<svg width="450" height="600" viewBox="0 0 450 600" fill="none" xmlns="http://www.w3.org/2000/svg">
<rect width="450" height="600" fill="#282C33"/>
<path d="M365.751 352.121L370.928 336.442L361.313 318.322L353.03 316.325L333.653 289.478C333.653 269.288 321.82 264.628 306.51 265.072V301.534L335.502 324.239L329.659 330.821L331.582 352.491L345.856 358.481M336.316 324.091L353.844 316.029M250.82 394.721C251.855 405.667 253.926 416.909 256.219 416.909H306.732C323.225 416.909 323.447 351.234 307.916 351.234H299.262M87.6677 352.121L82.4906 336.442L92.1052 318.322L100.388 316.325L119.766 289.478C119.766 269.288 131.599 264.628 146.908 265.072V301.534L117.917 324.091M117.917 324.091L123.759 330.673L121.836 352.343L107.562 358.334M117.917 324.091L100.388 316.029M203.486 394.721C202.451 405.667 200.38 416.909 198.013 416.909H147.5C131.081 416.909 130.785 351.234 146.317 351.234H155.044M226.709 286.002C230.946 286.007 235.044 287.514 238.274 290.256C241.504 292.998 243.656 296.796 244.348 300.976C245.041 305.156 244.228 309.446 242.054 313.082C239.88 316.719 236.487 319.467 232.478 320.837L240.318 358.703L226.709 362.475L212.953 358.703L220.793 320.837C216.771 319.463 213.37 316.703 211.197 313.051C209.024 309.399 208.222 305.092 208.933 300.903C209.645 296.713 211.824 292.913 215.081 290.183C218.338 287.453 222.46 285.971 226.709 286.002ZM270.567 233.862H248.379V228.241C248.81 225.61 250.163 223.217 252.195 221.491C254.227 219.765 256.806 218.817 259.473 218.817C262.139 218.817 264.719 219.765 266.751 221.491C268.783 223.217 270.135 225.61 270.567 228.241V233.862ZM205.409 233.862H183.222V228.241C183.653 225.61 185.005 223.217 187.037 221.491C189.07 219.765 191.649 218.817 194.316 218.817C196.982 218.817 199.562 219.765 201.594 221.491C203.626 223.217 204.978 225.61 205.409 228.241V233.862Z" stroke="#F2F5F8" stroke-width="6" stroke-linecap="round" stroke-linejoin="round"/>
<path d="M157.854 261.522H295.564C298.467 261.522 301.252 262.675 303.304 264.728C305.357 266.781 306.51 269.565 306.51 272.468V318.618C306.51 339.782 298.103 360.08 283.137 375.046C268.172 390.011 247.874 398.419 226.709 398.419C205.545 398.419 185.247 390.011 170.281 375.046C155.316 360.08 146.908 339.782 146.908 318.618V272.468C146.908 269.565 148.061 266.781 150.114 264.728C152.167 262.675 154.951 261.522 157.854 261.522ZM157.854 261.522H295.49C296.938 261.522 298.371 261.237 299.708 260.683C301.045 260.129 302.259 259.318 303.283 258.294C304.306 257.271 305.118 256.056 305.671 254.719C306.225 253.382 306.51 251.949 306.51 250.502C306.51 229.338 298.103 209.04 283.137 194.074C268.172 179.109 247.874 170.701 226.709 170.701C216.223 170.692 205.838 172.749 196.148 176.755C186.458 180.761 177.652 186.637 170.234 194.048C162.816 201.459 156.931 210.26 152.916 219.947C148.901 229.633 146.834 240.016 146.834 250.502C146.834 253.425 147.995 256.228 150.062 258.294C152.128 260.361 154.931 261.522 157.854 261.522Z" stroke="#F2F5F8" stroke-width="6" stroke-linecap="round" stroke-linejoin="round"/>
<path d="M88.2898 80.84C89.1165 80.84 89.7032 81.0667 90.0498 81.52C90.3965 81.9467 90.5698 82.4 90.5698 82.88C90.5698 83.5467 90.2365 84.2533 89.5698 85C88.9032 85.7467 88.0365 86.44 86.9698 87.08C85.9298 87.6933 84.8098 88.2 83.6098 88.6C82.4098 89 81.2632 89.2 80.1698 89.2C78.5432 89.2 76.9832 88.76 75.4898 87.88C74.0232 86.9733 72.8232 85.7067 71.8898 84.08C70.9832 82.4533 70.5298 80.52 70.5298 78.28C70.5298 76.44 70.8765 74.6133 71.5698 72.8C72.2898 70.9867 73.2365 69.24 74.4098 67.56C75.6098 65.88 76.9165 64.32 78.3298 62.88C79.7698 61.44 81.2098 60.1867 82.6498 59.12C84.1165 58.0533 85.4632 57.2267 86.6898 56.64C87.9165 56.0267 88.9032 55.72 89.6498 55.72C90.5832 55.72 91.2765 55.96 91.7298 56.44C92.2098 56.8933 92.4498 57.5333 92.4498 58.36C92.4498 59.0267 92.3165 59.5467 92.0498 59.92C91.8098 60.2667 91.4232 60.5733 90.8898 60.84C89.1832 61.72 87.4498 62.7867 85.6898 64.04C83.9565 65.2933 82.3698 66.68 80.9298 68.2C79.4898 69.6933 78.3298 71.2667 77.4498 72.92C76.5698 74.5733 76.1298 76.2533 76.1298 77.96C76.1298 79.8267 76.5032 81.24 77.2498 82.2C77.9965 83.16 79.0098 83.64 80.2898 83.64C80.9298 83.64 81.6232 83.5067 82.3698 83.24C83.1165 82.9467 83.8498 82.6133 84.5698 82.24C85.3165 81.8667 86.0098 81.5467 86.6498 81.28C87.3165 80.9867 87.8632 80.84 88.2898 80.84ZM98.7255 89.76C98.0588 89.76 97.4855 89.52 97.0055 89.04C96.5521 88.56 96.3255 87.8667 96.3255 86.96C96.3255 86.56 96.3788 85.9067 96.4855 85C96.6188 84.0667 96.7788 83 96.9655 81.8C97.1788 80.6 97.3788 79.3467 97.5655 78.04C97.7788 76.7333 97.9521 75.4933 98.0855 74.32C98.2455 73.1467 98.3521 72.1467 98.4055 71.32C98.4588 70.3067 98.7255 69.5867 99.2055 69.16C99.6855 68.7067 100.259 68.48 100.925 68.48C101.459 68.48 101.939 68.6133 102.365 68.88C102.819 69.12 103.099 69.64 103.205 70.44C103.339 71.2133 103.352 72.3333 103.245 73.8C104.419 71.6667 105.605 69.76 106.805 68.08C108.032 66.4 109.312 65.0667 110.645 64.08C112.859 62.4 114.859 61.56 116.645 61.56C117.659 61.56 118.325 61.7867 118.645 62.24C118.965 62.6933 119.125 63.16 119.125 63.64C119.125 63.96 119.045 64.2533 118.885 64.52C118.752 64.7867 118.459 65.0667 118.005 65.36C117.552 65.6533 116.859 66.04 115.925 66.52C114.672 67.16 113.432 68 112.205 69.04C111.005 70.08 109.805 71.4133 108.605 73.04C107.405 74.6667 106.192 76.6667 104.965 79.04C103.739 81.4133 102.472 84.24 101.165 87.52C100.925 88.4267 100.579 89.0267 100.125 89.32C99.6988 89.6133 99.2321 89.76 98.7255 89.76ZM123.811 99C122.318 99 120.958 98.9067 119.731 98.72C118.504 98.56 117.304 98.2933 116.131 97.92C114.958 97.5467 113.691 97.0533 112.331 96.44C111.771 96.1733 111.304 95.8933 110.931 95.6C110.558 95.3067 110.371 94.8667 110.371 94.28C110.371 93.4267 110.638 92.7733 111.171 92.32C111.678 91.8933 112.384 91.68 113.291 91.68C113.771 91.68 114.384 91.84 115.131 92.16C115.878 92.5067 116.731 92.8933 117.691 93.32C118.678 93.7733 119.771 94.16 120.971 94.48C122.171 94.8267 123.464 95 124.851 95C126.264 95 127.584 94.4133 128.811 93.24C130.038 92.0667 131.024 90.4133 131.771 88.28C132.544 86.1733 132.931 83.68 132.931 80.8C132.931 80.1333 132.918 79.4133 132.891 78.64C132.864 77.84 132.838 77 132.811 76.12C131.851 77.9333 130.811 79.6267 129.691 81.2C128.571 82.7733 127.411 84.0533 126.211 85.04C125.038 86 123.851 86.48 122.651 86.48C121.184 86.48 120.118 86.1333 119.451 85.44C118.811 84.72 118.491 83.5867 118.491 82.04C118.491 80.7333 118.584 79.3067 118.771 77.76C118.984 76.1867 119.264 74.6 119.611 73C119.958 71.4 120.358 69.88 120.811 68.44C121.291 66.9733 121.798 65.7067 122.331 64.64C122.731 63.8667 123.344 63.48 124.171 63.48C124.704 63.48 125.238 63.7333 125.771 64.24C126.331 64.7467 126.611 65.4267 126.611 66.28C126.611 66.76 126.491 67.4533 126.251 68.36C126.011 69.2667 125.718 70.2933 125.371 71.44C125.051 72.56 124.718 73.7467 124.371 75C124.024 76.2267 123.731 77.44 123.491 78.64C123.251 79.8133 123.131 80.88 123.131 81.84C123.131 81.9467 123.211 82 123.371 82C123.691 82 124.118 81.7333 124.651 81.2C125.211 80.64 125.824 79.92 126.491 79.04C127.184 78.1333 127.878 77.1467 128.571 76.08C129.291 74.9867 129.984 73.9067 130.651 72.84C131.318 71.7733 131.918 70.8 132.451 69.92C132.371 69.4933 132.318 69.12 132.291 68.8C132.291 68.4533 132.291 68.16 132.291 67.92C132.291 66.8267 132.478 65.92 132.851 65.2C133.251 64.48 134.024 64.12 135.171 64.12C135.918 64.12 136.491 64.4 136.891 64.96C137.291 65.4933 137.491 66.2533 137.491 67.24C137.491 67.6667 137.424 68.16 137.291 68.72C137.158 69.2533 136.891 70.1067 136.491 71.28L136.931 70.04C137.171 72.44 137.371 74.5733 137.531 76.44C137.718 78.3067 137.811 80.16 137.811 82C137.811 85.4667 137.224 88.4667 136.051 91C134.904 93.56 133.278 95.5333 131.171 96.92C129.091 98.3067 126.638 99 123.811 99ZM145.516 100.84C144.769 100.84 144.182 100.573 143.756 100.04C143.356 99.5333 143.156 98.7467 143.156 97.68C143.156 96.2133 143.289 94.4667 143.556 92.44C143.822 90.4133 144.182 88.2667 144.636 86C145.089 83.7333 145.582 81.5067 146.116 79.32C146.756 76.8133 147.382 74.5333 147.996 72.48C148.636 70.4267 149.276 68.7867 149.916 67.56C150.582 66.3067 151.249 65.68 151.916 65.68C152.529 65.68 153.062 65.9067 153.516 66.36C153.996 66.7867 154.236 67.4267 154.236 68.28C154.236 68.8933 154.076 69.7733 153.756 70.92C153.436 72.04 153.036 73.44 152.556 75.12C153.462 73.6267 154.396 72.16 155.356 70.72C156.342 69.28 157.342 67.9733 158.356 66.8C159.369 65.6267 160.356 64.6933 161.316 64C162.276 63.3067 163.182 62.96 164.036 62.96C165.049 62.96 165.942 63.2533 166.716 63.84C167.516 64.4267 168.142 65.2267 168.596 66.24C169.049 67.2533 169.276 68.4 169.276 69.68C169.276 72.0533 168.849 74.36 167.996 76.6C167.142 78.8133 165.956 80.8 164.436 82.56C162.942 84.32 161.196 85.72 159.196 86.76C157.196 87.7733 155.036 88.28 152.716 88.28C152.049 88.28 151.436 88.2133 150.876 88.08C150.342 87.9733 149.849 87.84 149.396 87.68C149.076 89.3867 148.769 91.1333 148.476 92.92C148.209 94.7333 147.929 96.64 147.636 98.64C147.316 100.107 146.609 100.84 145.516 100.84ZM164.436 67.68C163.849 67.68 163.102 68.08 162.196 68.88C161.316 69.68 160.356 70.7333 159.316 72.04C158.276 73.32 157.222 74.72 156.156 76.24C155.116 77.7333 154.116 79.2 153.156 80.64C152.222 82.08 151.422 83.3333 150.756 84.4C152.782 84.1867 154.569 83.6533 156.116 82.8C157.662 81.92 158.982 80.8533 160.076 79.6C161.169 78.3467 162.049 77.0267 162.716 75.64C163.409 74.2267 163.916 72.8533 164.236 71.52C164.556 70.1867 164.716 69.0267 164.716 68.04C164.716 67.8 164.622 67.68 164.436 67.68ZM201.958 67.84C201.958 68.16 201.851 68.44 201.638 68.68C201.424 68.92 201.158 69.1067 200.838 69.24C200.384 69.4267 199.598 69.6667 198.478 69.96C197.358 70.2533 195.998 70.5867 194.398 70.96C192.824 71.3333 191.131 71.72 189.318 72.12C187.504 72.4933 185.691 72.8533 183.878 73.2C183.184 75.76 182.478 78.4 181.758 81.12C181.038 83.8133 180.318 86.4667 179.598 89.08C179.331 90.0133 179.011 90.72 178.638 91.2C178.264 91.7067 177.624 91.96 176.718 91.96C175.731 91.96 175.064 91.64 174.718 91C174.398 90.3867 174.358 89.5467 174.598 88.48C175.291 85.5733 175.931 82.8667 176.518 80.36C177.131 77.8533 177.624 75.8267 177.998 74.28C176.398 74.5467 174.998 74.76 173.798 74.92C172.598 75.0533 171.744 75.1067 171.238 75.08C170.678 75.0267 170.211 74.8 169.838 74.4C169.464 74 169.291 73.5067 169.318 72.92C169.371 72.3867 169.611 71.9333 170.038 71.56C170.464 71.16 170.971 70.92 171.558 70.84C172.384 70.76 173.451 70.64 174.758 70.48C176.064 70.32 177.504 70.1333 179.078 69.92C179.424 68.56 179.824 67.16 180.278 65.72C180.731 64.2533 181.198 62.8533 181.678 61.52C182.184 60.16 182.664 58.9733 183.118 57.96C183.571 56.9467 183.984 56.2133 184.358 55.76C184.651 55.4133 185.011 55.1467 185.438 54.96C185.891 54.7733 186.331 54.68 186.758 54.68C187.318 54.68 187.771 54.88 188.118 55.28C188.464 55.68 188.638 56.1467 188.638 56.68C188.638 56.8933 188.624 57.12 188.598 57.36C188.571 57.5733 188.518 57.7867 188.438 58C187.931 59.3333 187.384 60.9467 186.798 62.84C186.238 64.7333 185.651 66.8133 185.038 69.08C187.038 68.7867 188.998 68.4933 190.918 68.2C192.864 67.88 194.624 67.5867 196.198 67.32C197.798 67.0267 199.078 66.7733 200.038 66.56C200.571 66.3733 201.024 66.4133 201.398 66.68C201.771 66.92 201.958 67.3067 201.958 67.84ZM202.585 89.32C200.692 89.32 199.172 88.6533 198.025 87.32C196.878 85.96 196.305 84.1467 196.305 81.88C196.305 81.16 196.398 80.4267 196.585 79.68C196.798 78.9333 197.052 78.24 197.345 77.6C197.185 77.36 197.052 77.0533 196.945 76.68C196.865 76.28 196.825 75.8133 196.825 75.28C196.825 73.5467 197.132 71.96 197.745 70.52C198.358 69.0533 199.185 67.7867 200.225 66.72C201.265 65.6533 202.412 64.8267 203.665 64.24C204.918 63.6533 206.185 63.36 207.465 63.36C209.652 63.36 211.438 64.0933 212.825 65.56C214.238 67.0267 214.945 69.3067 214.945 72.4C214.945 73.9467 214.705 75.52 214.225 77.12C213.745 78.72 213.092 80.2533 212.265 81.72C211.465 83.16 210.532 84.4533 209.465 85.6C208.425 86.7467 207.305 87.6533 206.105 88.32C204.932 88.9867 203.758 89.32 202.585 89.32ZM201.945 75.8C202.078 76.0933 202.145 76.44 202.145 76.84C202.145 77.24 202.065 77.6533 201.905 78.08C201.745 78.5067 201.585 79.08 201.425 79.8C201.265 80.4933 201.185 81.4933 201.185 82.8C201.185 83.1467 201.225 83.44 201.305 83.68C201.412 83.8933 201.638 84 201.985 84C202.892 84 203.745 83.7067 204.545 83.12C205.372 82.5333 206.105 81.76 206.745 80.8C207.412 79.84 207.972 78.7733 208.425 77.6C208.905 76.4 209.265 75.1867 209.505 73.96C209.772 72.7067 209.905 71.5467 209.905 70.48C209.905 69.7867 209.772 69.3067 209.505 69.04C209.238 68.7733 208.772 68.64 208.105 68.64C207.198 68.64 206.265 68.9333 205.305 69.52C204.372 70.08 203.585 70.8533 202.945 71.84C202.305 72.8 201.985 73.8933 201.985 75.12C201.985 75.36 201.972 75.5867 201.945 75.8ZM222.656 99.52C220.656 99.52 219.136 99.3733 218.096 99.08C217.083 98.7867 216.39 98.4 216.016 97.92C215.643 97.4667 215.456 97 215.456 96.52C215.456 95.8533 215.67 95.3067 216.096 94.88C216.55 94.4533 217.136 94.24 217.856 94.24C218.336 94.24 219.03 94.3067 219.936 94.44C220.843 94.5733 221.75 94.64 222.656 94.64C225.323 94.64 227.523 94 229.256 92.72C230.99 91.4667 232.35 89.56 233.336 87C234.323 84.4133 235.003 81.16 235.376 77.24C233.536 80.2533 231.496 82.6667 229.256 84.48C227.043 86.2933 224.736 87.2 222.336 87.2C219.51 87.2 218.096 85.8133 218.096 83.04C218.096 81.7067 218.456 80.3067 219.176 78.84C219.896 77.3733 220.856 75.92 222.056 74.48C223.256 73.04 224.576 71.68 226.016 70.4C227.456 69.0933 228.896 67.9467 230.336 66.96C231.803 65.9733 233.163 65.2 234.416 64.64C235.67 64.0533 236.683 63.76 237.456 63.76C238.07 63.76 238.603 63.8667 239.056 64.08C239.536 64.2933 239.91 64.72 240.176 65.36C240.443 65.9733 240.576 66.88 240.576 68.08C240.576 71.4133 240.456 74.64 240.216 77.76C239.976 80.8533 239.51 83.72 238.816 86.36C238.123 89 237.11 91.3067 235.776 93.28C234.47 95.2533 232.75 96.7867 230.616 97.88C228.483 98.9733 225.83 99.52 222.656 99.52ZM223.216 82.24C223.216 82.4267 223.296 82.52 223.456 82.52C223.99 82.52 224.71 82.24 225.616 81.68C226.523 81.0933 227.496 80.32 228.536 79.36C229.603 78.3733 230.643 77.28 231.656 76.08C232.67 74.8533 233.563 73.5867 234.336 72.28C235.136 70.9733 235.71 69.7067 236.056 68.48C234.67 69.28 233.23 70.2133 231.736 71.28C230.27 72.32 228.883 73.44 227.576 74.64C226.296 75.84 225.243 77.0933 224.416 78.4C223.616 79.68 223.216 80.96 223.216 82.24ZM248.843 89.76C248.176 89.76 247.603 89.52 247.123 89.04C246.669 88.56 246.443 87.8667 246.443 86.96C246.443 86.56 246.496 85.9067 246.603 85C246.736 84.0667 246.896 83 247.083 81.8C247.296 80.6 247.496 79.3467 247.683 78.04C247.896 76.7333 248.069 75.4933 248.203 74.32C248.363 73.1467 248.469 72.1467 248.523 71.32C248.576 70.3067 248.843 69.5867 249.323 69.16C249.803 68.7067 250.376 68.48 251.043 68.48C251.576 68.48 252.056 68.6133 252.483 68.88C252.936 69.12 253.216 69.64 253.323 70.44C253.456 71.2133 253.469 72.3333 253.363 73.8C254.536 71.6667 255.723 69.76 256.923 68.08C258.149 66.4 259.429 65.0667 260.763 64.08C262.976 62.4 264.976 61.56 266.763 61.56C267.776 61.56 268.443 61.7867 268.763 62.24C269.083 62.6933 269.243 63.16 269.243 63.64C269.243 63.96 269.163 64.2533 269.003 64.52C268.869 64.7867 268.576 65.0667 268.123 65.36C267.669 65.6533 266.976 66.04 266.043 66.52C264.789 67.16 263.549 68 262.323 69.04C261.123 70.08 259.923 71.4133 258.723 73.04C257.523 74.6667 256.309 76.6667 255.083 79.04C253.856 81.4133 252.589 84.24 251.283 87.52C251.043 88.4267 250.696 89.0267 250.243 89.32C249.816 89.6133 249.349 89.76 248.843 89.76ZM267.92 89.52C267.067 89.52 266.294 89.28 265.6 88.8C264.907 88.3467 264.36 87.7467 263.96 87C263.56 86.2267 263.36 85.4 263.36 84.52C263.36 82.8667 263.72 81.2533 264.44 79.68C265.187 78.1067 266.16 76.6133 267.36 75.2C268.56 73.7867 269.867 72.4933 271.28 71.32C272.72 70.12 274.147 69.0933 275.56 68.24C277 67.3867 278.307 66.72 279.48 66.24C280.68 65.76 281.614 65.52 282.28 65.52C283.054 65.52 283.68 65.6933 284.16 66.04C284.667 66.36 284.92 66.8667 284.92 67.56C284.92 67.7733 284.867 67.9467 284.76 68.08C285.107 68.16 285.387 68.36 285.6 68.68C285.814 69 285.92 69.48 285.92 70.12C285.92 70.3867 285.854 71.08 285.72 72.2C285.587 73.32 285.44 74.68 285.28 76.28C285.147 77.88 285.08 79.5467 285.08 81.28C285.08 81.5467 285.12 81.7867 285.2 82C285.28 82.1867 285.454 82.28 285.72 82.28C286.787 82.28 287.867 82.0667 288.96 81.64C290.08 81.1867 291.16 80.64 292.2 80C293.267 79.3333 294.227 78.68 295.08 78.04C295.96 77.3733 296.694 76.8267 297.28 76.4C297.894 75.9467 298.294 75.72 298.48 75.72C299.387 75.72 299.84 76.1733 299.84 77.08C299.84 77.32 299.547 77.8267 298.96 78.6C298.4 79.3467 297.627 80.2133 296.64 81.2C295.654 82.16 294.547 83.12 293.32 84.08C292.12 85.0133 290.867 85.7867 289.56 86.4C288.28 87.0133 287.04 87.32 285.84 87.32C284.374 87.32 283.254 86.9733 282.48 86.28C281.734 85.5867 281.2 84.6533 280.88 83.48C280.587 82.28 280.427 80.9333 280.4 79.44C279.04 81.3867 277.627 83.12 276.16 84.64C274.72 86.1333 273.294 87.32 271.88 88.2C270.467 89.08 269.147 89.52 267.92 89.52ZM282.08 69.48C279.467 70.7333 277.12 72.1733 275.04 73.8C272.96 75.4 271.307 77.08 270.08 78.84C268.88 80.6 268.28 82.2933 268.28 83.92C268.28 84.3733 268.494 84.6 268.92 84.6C269.427 84.6 270.094 84.3067 270.92 83.72C271.774 83.1333 272.694 82.36 273.68 81.4C274.667 80.4133 275.654 79.32 276.64 78.12C277.627 76.8933 278.547 75.64 279.4 74.36C280.254 73.08 280.934 71.8533 281.44 70.68C281.627 70.2533 281.84 69.8533 282.08 69.48ZM297.391 100.84C296.644 100.84 296.057 100.573 295.631 100.04C295.231 99.5333 295.031 98.7467 295.031 97.68C295.031 96.2133 295.164 94.4667 295.431 92.44C295.697 90.4133 296.057 88.2667 296.511 86C296.964 83.7333 297.457 81.5067 297.991 79.32C298.631 76.8133 299.257 74.5333 299.871 72.48C300.511 70.4267 301.151 68.7867 301.791 67.56C302.457 66.3067 303.124 65.68 303.791 65.68C304.404 65.68 304.937 65.9067 305.391 66.36C305.871 66.7867 306.111 67.4267 306.111 68.28C306.111 68.8933 305.951 69.7733 305.631 70.92C305.311 72.04 304.911 73.44 304.431 75.12C305.337 73.6267 306.271 72.16 307.231 70.72C308.217 69.28 309.217 67.9733 310.231 66.8C311.244 65.6267 312.231 64.6933 313.191 64C314.151 63.3067 315.057 62.96 315.911 62.96C316.924 62.96 317.817 63.2533 318.591 63.84C319.391 64.4267 320.017 65.2267 320.471 66.24C320.924 67.2533 321.151 68.4 321.151 69.68C321.151 72.0533 320.724 74.36 319.871 76.6C319.017 78.8133 317.831 80.8 316.311 82.56C314.817 84.32 313.071 85.72 311.071 86.76C309.071 87.7733 306.911 88.28 304.591 88.28C303.924 88.28 303.311 88.2133 302.751 88.08C302.217 87.9733 301.724 87.84 301.271 87.68C300.951 89.3867 300.644 91.1333 300.351 92.92C300.084 94.7333 299.804 96.64 299.511 98.64C299.191 100.107 298.484 100.84 297.391 100.84ZM316.311 67.68C315.724 67.68 314.977 68.08 314.071 68.88C313.191 69.68 312.231 70.7333 311.191 72.04C310.151 73.32 309.097 74.72 308.031 76.24C306.991 77.7333 305.991 79.2 305.031 80.64C304.097 82.08 303.297 83.3333 302.631 84.4C304.657 84.1867 306.444 83.6533 307.991 82.8C309.537 81.92 310.857 80.8533 311.951 79.6C313.044 78.3467 313.924 77.0267 314.591 75.64C315.284 74.2267 315.791 72.8533 316.111 71.52C316.431 70.1867 316.591 69.0267 316.591 68.04C316.591 67.8 316.497 67.68 316.311 67.68ZM327.696 91.12C326.469 91.12 325.589 90.7733 325.056 90.08C324.523 89.3867 324.256 88.3733 324.256 87.04C324.256 85.8133 324.483 84.2133 324.936 82.24C325.416 80.24 326.043 78.0133 326.816 75.56C327.616 73.08 328.509 70.5333 329.496 67.92C330.483 65.28 331.509 62.6933 332.576 60.16C333.643 57.6 334.683 55.2533 335.696 53.12C336.176 52.1867 336.683 51.5467 337.216 51.2C337.749 50.8533 338.336 50.68 338.976 50.68C339.589 50.68 340.109 50.8533 340.536 51.2C340.963 51.52 341.176 52.04 341.176 52.76C341.176 52.92 340.963 53.5333 340.536 54.6C340.109 55.64 339.549 57 338.856 58.68C338.163 60.3333 337.403 62.2 336.576 64.28C335.749 66.3333 334.923 68.48 334.096 70.72C333.269 72.9333 332.523 75.12 331.856 77.28C331.189 79.44 330.656 81.44 330.256 83.28C331.189 82.0267 332.189 80.64 333.256 79.12C334.349 77.5733 335.456 76.04 336.576 74.52C337.723 72.9733 338.843 71.56 339.936 70.28C341.056 69 342.096 67.9733 343.056 67.2C344.016 66.4267 344.856 66.04 345.576 66.04C346.909 66.04 347.976 66.4133 348.776 67.16C349.603 67.88 350.016 69.1333 350.016 70.92C350.016 71.7467 349.856 72.7467 349.536 73.92C349.216 75.0667 348.829 76.28 348.376 77.56C347.949 78.8133 347.576 80.0267 347.256 81.2C346.936 82.3733 346.776 83.4 346.776 84.28C346.776 84.76 347.003 85 347.456 85C348.763 85 350.083 84.72 351.416 84.16C352.776 83.6 354.069 82.9067 355.296 82.08C356.549 81.2267 357.683 80.3867 358.696 79.56C359.736 78.7067 360.576 78 361.216 77.44C361.669 77.0133 362.083 76.7333 362.456 76.6C362.829 76.44 363.176 76.36 363.496 76.36C364.589 76.36 365.136 76.9067 365.136 78C365.136 78.2133 365.096 78.48 365.016 78.8C364.936 79.0933 364.683 79.4667 364.256 79.92C363.829 80.3733 363.189 81.0133 362.336 81.84C361.483 82.6667 360.483 83.5467 359.336 84.48C358.216 85.4133 356.989 86.3067 355.656 87.16C354.349 87.9867 353.003 88.6667 351.616 89.2C350.229 89.7333 348.883 90 347.576 90C345.603 90 344.083 89.44 343.016 88.32C341.949 87.2267 341.416 85.7333 341.416 83.84C341.416 82.5333 341.683 80.8933 342.216 78.92C342.749 76.92 343.349 74.88 344.016 72.8C343.083 73.7067 342.109 74.7867 341.096 76.04C340.083 77.2667 339.056 78.5733 338.016 79.96C336.976 81.32 335.949 82.6667 334.936 84C333.949 85.3067 333.003 86.5067 332.096 87.6C331.189 88.6667 330.363 89.52 329.616 90.16C328.869 90.8 328.229 91.12 327.696 91.12ZM368.264 99C366.771 99 365.411 98.9067 364.184 98.72C362.958 98.56 361.758 98.2933 360.584 97.92C359.411 97.5467 358.144 97.0533 356.784 96.44C356.224 96.1733 355.758 95.8933 355.384 95.6C355.011 95.3067 354.824 94.8667 354.824 94.28C354.824 93.4267 355.091 92.7733 355.624 92.32C356.131 91.8933 356.838 91.68 357.744 91.68C358.224 91.68 358.838 91.84 359.584 92.16C360.331 92.5067 361.184 92.8933 362.144 93.32C363.131 93.7733 364.224 94.16 365.424 94.48C366.624 94.8267 367.918 95 369.304 95C370.718 95 372.038 94.4133 373.264 93.24C374.491 92.0667 375.478 90.4133 376.224 88.28C376.998 86.1733 377.384 83.68 377.384 80.8C377.384 80.1333 377.371 79.4133 377.344 78.64C377.318 77.84 377.291 77 377.264 76.12C376.304 77.9333 375.264 79.6267 374.144 81.2C373.024 82.7733 371.864 84.0533 370.664 85.04C369.491 86 368.304 86.48 367.104 86.48C365.638 86.48 364.571 86.1333 363.904 85.44C363.264 84.72 362.944 83.5867 362.944 82.04C362.944 80.7333 363.038 79.3067 363.224 77.76C363.438 76.1867 363.718 74.6 364.064 73C364.411 71.4 364.811 69.88 365.264 68.44C365.744 66.9733 366.251 65.7067 366.784 64.64C367.184 63.8667 367.798 63.48 368.624 63.48C369.158 63.48 369.691 63.7333 370.224 64.24C370.784 64.7467 371.064 65.4267 371.064 66.28C371.064 66.76 370.944 67.4533 370.704 68.36C370.464 69.2667 370.171 70.2933 369.824 71.44C369.504 72.56 369.171 73.7467 368.824 75C368.478 76.2267 368.184 77.44 367.944 78.64C367.704 79.8133 367.584 80.88 367.584 81.84C367.584 81.9467 367.664 82 367.824 82C368.144 82 368.571 81.7333 369.104 81.2C369.664 80.64 370.278 79.92 370.944 79.04C371.638 78.1333 372.331 77.1467 373.024 76.08C373.744 74.9867 374.438 73.9067 375.104 72.84C375.771 71.7733 376.371 70.8 376.904 69.92C376.824 69.4933 376.771 69.12 376.744 68.8C376.744 68.4533 376.744 68.16 376.744 67.92C376.744 66.8267 376.931 65.92 377.304 65.2C377.704 64.48 378.478 64.12 379.624 64.12C380.371 64.12 380.944 64.4 381.344 64.96C381.744 65.4933 381.944 66.2533 381.944 67.24C381.944 67.6667 381.878 68.16 381.744 68.72C381.611 69.2533 381.344 70.1067 380.944 71.28L381.384 70.04C381.624 72.44 381.824 74.5733 381.984 76.44C382.171 78.3067 382.264 80.16 382.264 82C382.264 85.4667 381.678 88.4667 380.504 91C379.358 93.56 377.731 95.5333 375.624 96.92C373.544 98.3067 371.091 99 368.264 99ZM185.338 118.64C184.058 118.64 183.111 118.52 182.498 118.28C181.911 118.013 181.524 117.707 181.338 117.36C181.178 116.987 181.098 116.653 181.098 116.36C181.098 115.987 181.311 115.56 181.738 115.08C182.164 114.573 182.991 114.2 184.218 113.96C185.444 113.693 186.898 113.453 188.578 113.24C190.258 113 192.044 112.8 193.938 112.64C195.831 112.453 197.751 112.293 199.698 112.16C201.644 112.027 203.498 111.933 205.258 111.88C207.018 111.8 208.578 111.76 209.938 111.76C211.351 111.76 212.444 111.84 213.218 112C213.991 112.16 214.538 112.36 214.858 112.6C215.204 112.84 215.404 113.093 215.458 113.36C215.538 113.627 215.578 113.88 215.578 114.12C215.578 114.173 215.578 114.213 215.578 114.24C215.578 114.56 215.498 114.907 215.338 115.28C215.204 115.653 214.898 115.973 214.418 116.24C213.938 116.48 213.218 116.6 212.258 116.6C211.911 116.6 211.138 116.653 209.938 116.76C208.738 116.867 207.271 117 205.538 117.16C203.804 117.32 201.964 117.48 200.018 117.64C199.724 118.84 199.391 120.24 199.018 121.84C198.671 123.44 198.311 125.12 197.938 126.88C197.591 128.64 197.258 130.373 196.938 132.08C196.618 133.76 196.351 135.32 196.138 136.76C195.924 138.173 195.778 139.333 195.698 140.24C195.591 141.467 195.231 142.333 194.618 142.84C194.031 143.32 193.444 143.56 192.858 143.56C192.431 143.56 192.004 143.467 191.578 143.28C191.151 143.12 190.804 142.76 190.538 142.2C190.271 141.613 190.138 140.747 190.138 139.6C190.138 138.427 190.244 136.987 190.458 135.28C190.671 133.547 190.951 131.693 191.298 129.72C191.671 127.747 192.084 125.76 192.538 123.76C193.018 121.76 193.511 119.893 194.018 118.16C192.231 118.293 190.578 118.413 189.058 118.52C187.538 118.6 186.298 118.64 185.338 118.64ZM216.745 144.32C214.852 144.32 213.332 143.653 212.185 142.32C211.039 140.96 210.465 139.147 210.465 136.88C210.465 136.16 210.559 135.427 210.745 134.68C210.959 133.933 211.212 133.24 211.505 132.6C211.345 132.36 211.212 132.053 211.105 131.68C211.025 131.28 210.985 130.813 210.985 130.28C210.985 128.547 211.292 126.96 211.905 125.52C212.519 124.053 213.345 122.787 214.385 121.72C215.425 120.653 216.572 119.827 217.825 119.24C219.079 118.653 220.345 118.36 221.625 118.36C223.812 118.36 225.599 119.093 226.985 120.56C228.399 122.027 229.105 124.307 229.105 127.4C229.105 128.947 228.865 130.52 228.385 132.12C227.905 133.72 227.252 135.253 226.425 136.72C225.625 138.16 224.692 139.453 223.625 140.6C222.585 141.747 221.465 142.653 220.265 143.32C219.092 143.987 217.919 144.32 216.745 144.32ZM216.105 130.8C216.239 131.093 216.305 131.44 216.305 131.84C216.305 132.24 216.225 132.653 216.065 133.08C215.905 133.507 215.745 134.08 215.585 134.8C215.425 135.493 215.345 136.493 215.345 137.8C215.345 138.147 215.385 138.44 215.465 138.68C215.572 138.893 215.799 139 216.145 139C217.052 139 217.905 138.707 218.705 138.12C219.532 137.533 220.265 136.76 220.905 135.8C221.572 134.84 222.132 133.773 222.585 132.6C223.065 131.4 223.425 130.187 223.665 128.96C223.932 127.707 224.065 126.547 224.065 125.48C224.065 124.787 223.932 124.307 223.665 124.04C223.399 123.773 222.932 123.64 222.265 123.64C221.359 123.64 220.425 123.933 219.465 124.52C218.532 125.08 217.745 125.853 217.105 126.84C216.465 127.8 216.145 128.893 216.145 130.12C216.145 130.36 216.132 130.587 216.105 130.8ZM239.988 144.32C238.094 144.32 236.574 143.653 235.428 142.32C234.281 140.96 233.708 139.147 233.708 136.88C233.708 136.16 233.801 135.427 233.988 134.68C234.201 133.933 234.454 133.24 234.748 132.6C234.588 132.36 234.454 132.053 234.348 131.68C234.268 131.28 234.228 130.813 234.228 130.28C234.228 128.547 234.534 126.96 235.148 125.52C235.761 124.053 236.588 122.787 237.628 121.72C238.668 120.653 239.814 119.827 241.068 119.24C242.321 118.653 243.588 118.36 244.868 118.36C247.054 118.36 248.841 119.093 250.228 120.56C251.641 122.027 252.348 124.307 252.348 127.4C252.348 128.947 252.108 130.52 251.628 132.12C251.148 133.72 250.494 135.253 249.668 136.72C248.868 138.16 247.934 139.453 246.868 140.6C245.828 141.747 244.708 142.653 243.508 143.32C242.334 143.987 241.161 144.32 239.988 144.32ZM239.348 130.8C239.481 131.093 239.548 131.44 239.548 131.84C239.548 132.24 239.468 132.653 239.308 133.08C239.148 133.507 238.988 134.08 238.828 134.8C238.668 135.493 238.588 136.493 238.588 137.8C238.588 138.147 238.628 138.44 238.708 138.68C238.814 138.893 239.041 139 239.388 139C240.294 139 241.148 138.707 241.948 138.12C242.774 137.533 243.508 136.76 244.148 135.8C244.814 134.84 245.374 133.773 245.828 132.6C246.308 131.4 246.668 130.187 246.908 128.96C247.174 127.707 247.308 126.547 247.308 125.48C247.308 124.787 247.174 124.307 246.908 124.04C246.641 123.773 246.174 123.64 245.508 123.64C244.601 123.64 243.668 123.933 242.708 124.52C241.774 125.08 240.988 125.853 240.348 126.84C239.708 127.8 239.388 128.893 239.388 130.12C239.388 130.36 239.374 130.587 239.348 130.8ZM265.408 145C263.008 145 261.115 144.267 259.728 142.8C258.368 141.307 257.688 139.187 257.688 136.44C257.688 134.947 257.888 133.2 258.288 131.2C258.688 129.173 259.208 127.04 259.848 124.8C260.515 122.533 261.222 120.293 261.968 118.08C262.742 115.867 263.502 113.813 264.248 111.92C264.995 110.027 265.648 108.44 266.208 107.16C266.688 106.173 267.368 105.68 268.248 105.68C268.808 105.68 269.262 105.853 269.608 106.2C269.982 106.547 270.168 107.107 270.168 107.88C270.168 108.253 269.982 109.067 269.608 110.32C269.235 111.573 268.742 113.12 268.128 114.96C267.542 116.773 266.902 118.733 266.208 120.84C265.542 122.947 264.902 125.067 264.288 127.2C263.702 129.333 263.222 131.347 262.848 133.24C262.475 135.107 262.288 136.693 262.288 138C262.288 138.533 262.435 138.96 262.728 139.28C263.048 139.6 263.462 139.76 263.968 139.76C265.062 139.76 266.182 139.56 267.328 139.16C268.502 138.76 269.648 138.253 270.768 137.64C271.915 137.027 272.995 136.373 274.008 135.68C275.022 134.987 275.928 134.333 276.728 133.72C277.555 133.08 278.222 132.573 278.728 132.2C279.395 131.693 279.848 131.44 280.088 131.44C280.995 131.44 281.448 131.88 281.448 132.76C281.448 132.973 281.182 133.413 280.648 134.08C280.195 134.667 279.555 135.413 278.728 136.32C277.902 137.227 276.942 138.187 275.848 139.2C274.782 140.187 273.635 141.12 272.408 142C271.208 142.88 270.008 143.6 268.808 144.16C267.608 144.72 266.475 145 265.408 145Z" fill="#F2F5F8"/>
<path d="M11.924 524.144C11.924 522.203 12.344 520.476 13.184 518.964C14.024 517.433 15.1907 516.248 16.684 515.408C18.196 514.549 19.904 514.12 21.808 514.12C24.1413 514.12 26.1387 514.736 27.8 515.968C29.4613 517.2 30.572 518.88 31.132 521.008H25.868C25.476 520.187 24.916 519.561 24.188 519.132C23.4787 518.703 22.6667 518.488 21.752 518.488C20.2773 518.488 19.0827 519.001 18.168 520.028C17.2533 521.055 16.796 522.427 16.796 524.144C16.796 525.861 17.2533 527.233 18.168 528.26C19.0827 529.287 20.2773 529.8 21.752 529.8C22.6667 529.8 23.4787 529.585 24.188 529.156C24.916 528.727 25.476 528.101 25.868 527.28H31.132C30.572 529.408 29.4613 531.088 27.8 532.32C26.1387 533.533 24.1413 534.14 21.808 534.14C19.904 534.14 18.196 533.72 16.684 532.88C15.1907 532.021 14.024 530.836 13.184 529.324C12.344 527.812 11.924 526.085 11.924 524.144ZM38.8521 520.98C39.4121 520.121 40.1121 519.449 40.9521 518.964C41.7921 518.46 42.7255 518.208 43.7521 518.208V523.276H42.4361C41.2415 523.276 40.3455 523.537 39.7481 524.06C39.1508 524.564 38.8521 525.46 38.8521 526.748V534H34.0641V518.376H38.8521V520.98ZM62.0007 518.376L52.2007 541.42H47.0487L50.6327 533.468L44.2767 518.376H49.6247L53.2367 528.148L56.8207 518.376H62.0007ZM68.5201 520.588C68.9868 519.86 69.6308 519.272 70.4521 518.824C71.2734 518.376 72.2348 518.152 73.3361 518.152C74.6241 518.152 75.7908 518.479 76.8361 519.132C77.8814 519.785 78.7028 520.719 79.3001 521.932C79.9161 523.145 80.2241 524.555 80.2241 526.16C80.2241 527.765 79.9161 529.184 79.3001 530.416C78.7028 531.629 77.8814 532.572 76.8361 533.244C75.7908 533.897 74.6241 534.224 73.3361 534.224C72.2534 534.224 71.2921 534 70.4521 533.552C69.6308 533.104 68.9868 532.525 68.5201 531.816V541.448H63.7321V518.376H68.5201V520.588ZM75.3521 526.16C75.3521 524.965 75.0161 524.032 74.3441 523.36C73.6908 522.669 72.8788 522.324 71.9081 522.324C70.9561 522.324 70.1441 522.669 69.4721 523.36C68.8188 524.051 68.4921 524.993 68.4921 526.188C68.4921 527.383 68.8188 528.325 69.4721 529.016C70.1441 529.707 70.9561 530.052 71.9081 530.052C72.8601 530.052 73.6721 529.707 74.3441 529.016C75.0161 528.307 75.3521 527.355 75.3521 526.16ZM91.444 529.94V534H89.008C87.272 534 85.9187 533.58 84.948 532.74C83.9773 531.881 83.492 530.491 83.492 528.568V522.352H81.588V518.376H83.492V514.568H88.28V518.376H91.416V522.352H88.28V528.624C88.28 529.091 88.392 529.427 88.616 529.632C88.84 529.837 89.2133 529.94 89.736 529.94H91.444ZM101.223 534.224C99.6923 534.224 98.311 533.897 97.079 533.244C95.8657 532.591 94.9043 531.657 94.195 530.444C93.5043 529.231 93.159 527.812 93.159 526.188C93.159 524.583 93.5137 523.173 94.223 521.96C94.9323 520.728 95.903 519.785 97.135 519.132C98.367 518.479 99.7483 518.152 101.279 518.152C102.81 518.152 104.191 518.479 105.423 519.132C106.655 519.785 107.626 520.728 108.335 521.96C109.044 523.173 109.399 524.583 109.399 526.188C109.399 527.793 109.035 529.212 108.307 530.444C107.598 531.657 106.618 532.591 105.367 533.244C104.135 533.897 102.754 534.224 101.223 534.224ZM101.223 530.08C102.138 530.08 102.912 529.744 103.547 529.072C104.2 528.4 104.527 527.439 104.527 526.188C104.527 524.937 104.21 523.976 103.575 523.304C102.959 522.632 102.194 522.296 101.279 522.296C100.346 522.296 99.571 522.632 98.955 523.304C98.339 523.957 98.031 524.919 98.031 526.188C98.031 527.439 98.3297 528.4 98.927 529.072C99.543 529.744 100.308 530.08 101.223 530.08ZM117.875 518.152C118.976 518.152 119.938 518.376 120.759 518.824C121.599 519.272 122.243 519.86 122.691 520.588V518.376H127.479V533.972C127.479 535.409 127.19 536.707 126.611 537.864C126.051 539.04 125.183 539.973 124.007 540.664C122.85 541.355 121.403 541.7 119.667 541.7C117.352 541.7 115.476 541.149 114.039 540.048C112.602 538.965 111.78 537.491 111.575 535.624H116.307C116.456 536.221 116.811 536.688 117.371 537.024C117.931 537.379 118.622 537.556 119.443 537.556C120.432 537.556 121.216 537.267 121.795 536.688C122.392 536.128 122.691 535.223 122.691 533.972V531.76C122.224 532.488 121.58 533.085 120.759 533.552C119.938 534 118.976 534.224 117.875 534.224C116.587 534.224 115.42 533.897 114.375 533.244C113.33 532.572 112.499 531.629 111.883 530.416C111.286 529.184 110.987 527.765 110.987 526.16C110.987 524.555 111.286 523.145 111.883 521.932C112.499 520.719 113.33 519.785 114.375 519.132C115.42 518.479 116.587 518.152 117.875 518.152ZM122.691 526.188C122.691 524.993 122.355 524.051 121.683 523.36C121.03 522.669 120.227 522.324 119.275 522.324C118.323 522.324 117.511 522.669 116.839 523.36C116.186 524.032 115.859 524.965 115.859 526.16C115.859 527.355 116.186 528.307 116.839 529.016C117.511 529.707 118.323 530.052 119.275 530.052C120.227 530.052 121.03 529.707 121.683 529.016C122.355 528.325 122.691 527.383 122.691 526.188ZM135.731 520.98C136.291 520.121 136.991 519.449 137.831 518.964C138.671 518.46 139.604 518.208 140.631 518.208V523.276H139.315C138.12 523.276 137.224 523.537 136.627 524.06C136.03 524.564 135.731 525.46 135.731 526.748V534H130.943V518.376H135.731V520.98ZM141.968 526.16C141.968 524.555 142.266 523.145 142.864 521.932C143.48 520.719 144.31 519.785 145.356 519.132C146.401 518.479 147.568 518.152 148.856 518.152C149.957 518.152 150.918 518.376 151.74 518.824C152.58 519.272 153.224 519.86 153.672 520.588V518.376H158.46V534H153.672V531.788C153.205 532.516 152.552 533.104 151.712 533.552C150.89 534 149.929 534.224 148.828 534.224C147.558 534.224 146.401 533.897 145.356 533.244C144.31 532.572 143.48 531.629 142.864 530.416C142.266 529.184 141.968 527.765 141.968 526.16ZM153.672 526.188C153.672 524.993 153.336 524.051 152.664 523.36C152.01 522.669 151.208 522.324 150.256 522.324C149.304 522.324 148.492 522.669 147.82 523.36C147.166 524.032 146.84 524.965 146.84 526.16C146.84 527.355 147.166 528.307 147.82 529.016C148.492 529.707 149.304 530.052 150.256 530.052C151.208 530.052 152.01 529.707 152.664 529.016C153.336 528.325 153.672 527.383 153.672 526.188ZM166.712 520.588C167.178 519.86 167.822 519.272 168.644 518.824C169.465 518.376 170.426 518.152 171.528 518.152C172.816 518.152 173.982 518.479 175.028 519.132C176.073 519.785 176.894 520.719 177.492 521.932C178.108 523.145 178.416 524.555 178.416 526.16C178.416 527.765 178.108 529.184 177.492 530.416C176.894 531.629 176.073 532.572 175.028 533.244C173.982 533.897 172.816 534.224 171.528 534.224C170.445 534.224 169.484 534 168.644 533.552C167.822 533.104 167.178 532.525 166.712 531.816V541.448H161.924V518.376H166.712V520.588ZM173.544 526.16C173.544 524.965 173.208 524.032 172.536 523.36C171.882 522.669 171.07 522.324 170.1 522.324C169.148 522.324 168.336 522.669 167.664 523.36C167.01 524.051 166.684 524.993 166.684 526.188C166.684 527.383 167.01 528.325 167.664 529.016C168.336 529.707 169.148 530.052 170.1 530.052C171.052 530.052 171.864 529.707 172.536 529.016C173.208 528.307 173.544 527.355 173.544 526.16ZM190.531 518.208C192.323 518.208 193.761 518.805 194.843 520C195.926 521.176 196.467 522.8 196.467 524.872V534H191.707V525.516C191.707 524.471 191.437 523.659 190.895 523.08C190.354 522.501 189.626 522.212 188.711 522.212C187.797 522.212 187.069 522.501 186.527 523.08C185.986 523.659 185.715 524.471 185.715 525.516V534H180.927V513.28H185.715V520.476C186.201 519.785 186.863 519.235 187.703 518.824C188.543 518.413 189.486 518.208 190.531 518.208ZM215.755 518.376L205.955 541.42H200.803L204.387 533.468L198.031 518.376H203.379L206.991 528.148L210.575 518.376H215.755ZM237.56 514.344V518.18H232.352V534H227.564V518.18H222.356V514.344H237.56ZM247.075 534.224C245.544 534.224 244.163 533.897 242.931 533.244C241.717 532.591 240.756 531.657 240.047 530.444C239.356 529.231 239.011 527.812 239.011 526.188C239.011 524.583 239.365 523.173 240.075 521.96C240.784 520.728 241.755 519.785 242.987 519.132C244.219 518.479 245.6 518.152 247.131 518.152C248.661 518.152 250.043 518.479 251.275 519.132C252.507 519.785 253.477 520.728 254.187 521.96C254.896 523.173 255.251 524.583 255.251 526.188C255.251 527.793 254.887 529.212 254.159 530.444C253.449 531.657 252.469 532.591 251.219 533.244C249.987 533.897 248.605 534.224 247.075 534.224ZM247.075 530.08C247.989 530.08 248.764 529.744 249.399 529.072C250.052 528.4 250.379 527.439 250.379 526.188C250.379 524.937 250.061 523.976 249.427 523.304C248.811 522.632 248.045 522.296 247.131 522.296C246.197 522.296 245.423 522.632 244.807 523.304C244.191 523.957 243.883 524.919 243.883 526.188C243.883 527.439 244.181 528.4 244.779 529.072C245.395 529.744 246.16 530.08 247.075 530.08ZM264.903 534.224C263.372 534.224 261.991 533.897 260.759 533.244C259.545 532.591 258.584 531.657 257.875 530.444C257.184 529.231 256.839 527.812 256.839 526.188C256.839 524.583 257.193 523.173 257.903 521.96C258.612 520.728 259.583 519.785 260.815 519.132C262.047 518.479 263.428 518.152 264.959 518.152C266.489 518.152 267.871 518.479 269.103 519.132C270.335 519.785 271.305 520.728 272.015 521.96C272.724 523.173 273.079 524.583 273.079 526.188C273.079 527.793 272.715 529.212 271.987 530.444C271.277 531.657 270.297 532.591 269.047 533.244C267.815 533.897 266.433 534.224 264.903 534.224ZM264.903 530.08C265.817 530.08 266.592 529.744 267.227 529.072C267.88 528.4 268.207 527.439 268.207 526.188C268.207 524.937 267.889 523.976 267.255 523.304C266.639 522.632 265.873 522.296 264.959 522.296C264.025 522.296 263.251 522.632 262.635 523.304C262.019 523.957 261.711 524.919 261.711 526.188C261.711 527.439 262.009 528.4 262.607 529.072C263.223 529.744 263.988 530.08 264.903 530.08ZM280.407 513.28V534H275.619V513.28H280.407Z" fill="white"/>
<rect x="11.5" y="545.5" width="121" height="31" rx="7.5" stroke="#F2F5F8"/>
<path d="M16.688 561.416C16.688 560.328 16.9333 559.352 17.424 558.488C17.9147 557.613 18.5813 556.931 19.424 556.44C20.2773 555.949 21.2213 555.704 22.256 555.704C23.472 555.704 24.5333 555.997 25.44 556.584C26.3467 557.171 27.008 558.003 27.424 559.08H25.68C25.3707 558.408 24.9227 557.891 24.336 557.528C23.76 557.165 23.0667 556.984 22.256 556.984C21.4773 556.984 20.7787 557.165 20.16 557.528C19.5413 557.891 19.056 558.408 18.704 559.08C18.352 559.741 18.176 560.52 18.176 561.416C18.176 562.301 18.352 563.08 18.704 563.752C19.056 564.413 19.5413 564.925 20.16 565.288C20.7787 565.651 21.4773 565.832 22.256 565.832C23.0667 565.832 23.76 565.656 24.336 565.304C24.9227 564.941 25.3707 564.424 25.68 563.752H27.424C27.008 564.819 26.3467 565.645 25.44 566.232C24.5333 566.808 23.472 567.096 22.256 567.096C21.2213 567.096 20.2773 566.856 19.424 566.376C18.5813 565.885 17.9147 565.208 17.424 564.344C16.9333 563.48 16.688 562.504 16.688 561.416ZM31.0474 559.656C31.3034 559.155 31.666 558.765 32.1354 558.488C32.6154 558.211 33.1967 558.072 33.8794 558.072V559.576H33.4954C31.8634 559.576 31.0474 560.461 31.0474 562.232V567H29.5914V558.232H31.0474V559.656ZM43.1121 558.232L37.8321 571.128H36.3281L38.0561 566.904L34.5201 558.232H36.1361L38.8881 565.336L41.6081 558.232H43.1121ZM46.0318 559.848C46.3198 559.347 46.7464 558.931 47.3118 558.6C47.8878 558.259 48.5544 558.088 49.3118 558.088C50.0904 558.088 50.7944 558.275 51.4237 558.648C52.0637 559.021 52.5651 559.549 52.9278 560.232C53.2904 560.904 53.4718 561.688 53.4718 562.584C53.4718 563.469 53.2904 564.259 52.9278 564.952C52.5651 565.645 52.0637 566.184 51.4237 566.568C50.7944 566.952 50.0904 567.144 49.3118 567.144C48.5651 567.144 47.9038 566.979 47.3278 566.648C46.7624 566.307 46.3304 565.885 46.0318 565.384V571.16H44.5758V558.232H46.0318V559.848ZM51.9838 562.584C51.9838 561.923 51.8504 561.347 51.5838 560.856C51.3171 560.365 50.9544 559.992 50.4958 559.736C50.0478 559.48 49.5518 559.352 49.0078 559.352C48.4744 559.352 47.9784 559.485 47.5198 559.752C47.0718 560.008 46.7091 560.387 46.4318 560.888C46.1651 561.379 46.0318 561.949 46.0318 562.6C46.0318 563.261 46.1651 563.843 46.4318 564.344C46.7091 564.835 47.0718 565.213 47.5198 565.48C47.9784 565.736 48.4744 565.864 49.0078 565.864C49.5518 565.864 50.0478 565.736 50.4958 565.48C50.9544 565.213 51.3171 564.835 51.5838 564.344C51.8504 563.843 51.9838 563.256 51.9838 562.584ZM57.1643 559.432V564.6C57.1643 565.027 57.2549 565.331 57.4363 565.512C57.6176 565.683 57.9323 565.768 58.3802 565.768H59.4523V567H58.1403C57.3296 567 56.7216 566.813 56.3163 566.44C55.9109 566.067 55.7083 565.453 55.7083 564.6V559.432H54.5723V558.232H55.7083V556.024H57.1643V558.232H59.4523V559.432H57.1643ZM65.0404 567.144C64.219 567.144 63.4724 566.957 62.8004 566.584C62.139 566.211 61.6164 565.683 61.2324 565C60.859 564.307 60.6724 563.507 60.6724 562.6C60.6724 561.704 60.8644 560.915 61.2484 560.232C61.643 559.539 62.1764 559.011 62.8484 558.648C63.5204 558.275 64.2724 558.088 65.1044 558.088C65.9364 558.088 66.6884 558.275 67.3604 558.648C68.0324 559.011 68.5604 559.533 68.9444 560.216C69.339 560.899 69.5364 561.693 69.5364 562.6C69.5364 563.507 69.3337 564.307 68.9284 565C68.5337 565.683 67.995 566.211 67.3124 566.584C66.6297 566.957 65.8724 567.144 65.0404 567.144ZM65.0404 565.864C65.563 565.864 66.0537 565.741 66.5124 565.496C66.971 565.251 67.339 564.883 67.6164 564.392C67.9044 563.901 68.0484 563.304 68.0484 562.6C68.0484 561.896 67.9097 561.299 67.6324 560.808C67.355 560.317 66.9924 559.955 66.5444 559.72C66.0964 559.475 65.611 559.352 65.0884 559.352C64.555 559.352 64.0644 559.475 63.6164 559.72C63.179 559.955 62.827 560.317 62.5604 560.808C62.2937 561.299 62.1604 561.896 62.1604 562.6C62.1604 563.315 62.2884 563.917 62.5444 564.408C62.811 564.899 63.163 565.267 63.6004 565.512C64.0377 565.747 64.5177 565.864 65.0404 565.864ZM75.0668 558.088C75.8241 558.088 76.4854 558.253 77.0508 558.584C77.6268 558.915 78.0534 559.331 78.3308 559.832V558.232H79.8028V567.192C79.8028 567.992 79.6321 568.701 79.2908 569.32C78.9494 569.949 78.4588 570.44 77.8188 570.792C77.1894 571.144 76.4534 571.32 75.6108 571.32C74.4588 571.32 73.4988 571.048 72.7308 570.504C71.9628 569.96 71.5094 569.219 71.3708 568.28H72.8108C72.9708 568.813 73.3014 569.24 73.8028 569.56C74.3041 569.891 74.9068 570.056 75.6108 570.056C76.4108 570.056 77.0614 569.805 77.5628 569.304C78.0748 568.803 78.3308 568.099 78.3308 567.192V565.352C78.0428 565.864 77.6161 566.291 77.0508 566.632C76.4854 566.973 75.8241 567.144 75.0668 567.144C74.2881 567.144 73.5788 566.952 72.9388 566.568C72.3094 566.184 71.8134 565.645 71.4508 564.952C71.0881 564.259 70.9068 563.469 70.9068 562.584C70.9068 561.688 71.0881 560.904 71.4508 560.232C71.8134 559.549 72.3094 559.021 72.9388 558.648C73.5788 558.275 74.2881 558.088 75.0668 558.088ZM78.3308 562.6C78.3308 561.939 78.1974 561.363 77.9308 560.872C77.6641 560.381 77.3014 560.008 76.8428 559.752C76.3948 559.485 75.8988 559.352 75.3548 559.352C74.8108 559.352 74.3148 559.48 73.8668 559.736C73.4188 559.992 73.0614 560.365 72.7948 560.856C72.5281 561.347 72.3948 561.923 72.3948 562.584C72.3948 563.256 72.5281 563.843 72.7948 564.344C73.0614 564.835 73.4188 565.213 73.8668 565.48C74.3148 565.736 74.8108 565.864 75.3548 565.864C75.8988 565.864 76.3948 565.736 76.8428 565.48C77.3014 565.213 77.6641 564.835 77.9308 564.344C78.1974 563.843 78.3308 563.261 78.3308 562.6ZM83.7193 559.656C83.9753 559.155 84.3379 558.765 84.8073 558.488C85.2873 558.211 85.8686 558.072 86.5513 558.072V559.576H86.1673C84.5353 559.576 83.7193 560.461 83.7193 562.232V567H82.2633V558.232H83.7193V559.656ZM87.688 562.584C87.688 561.688 87.8693 560.904 88.232 560.232C88.5947 559.549 89.0907 559.021 89.72 558.648C90.36 558.275 91.0693 558.088 91.848 558.088C92.616 558.088 93.2827 558.253 93.848 558.584C94.4133 558.915 94.8347 559.331 95.112 559.832V558.232H96.584V567H95.112V565.368C94.824 565.88 94.392 566.307 93.816 566.648C93.2507 566.979 92.5893 567.144 91.832 567.144C91.0533 567.144 90.3493 566.952 89.72 566.568C89.0907 566.184 88.5947 565.645 88.232 564.952C87.8693 564.259 87.688 563.469 87.688 562.584ZM95.112 562.6C95.112 561.939 94.9787 561.363 94.712 560.872C94.4453 560.381 94.0827 560.008 93.624 559.752C93.176 559.485 92.68 559.352 92.136 559.352C91.592 559.352 91.096 559.48 90.648 559.736C90.2 559.992 89.8427 560.365 89.576 560.856C89.3093 561.347 89.176 561.923 89.176 562.584C89.176 563.256 89.3093 563.843 89.576 564.344C89.8427 564.835 90.2 565.213 90.648 565.48C91.096 565.736 91.592 565.864 92.136 565.864C92.68 565.864 93.176 565.736 93.624 565.48C94.0827 565.213 94.4453 564.835 94.712 564.344C94.9787 563.843 95.112 563.261 95.112 562.6ZM100.501 559.848C100.789 559.347 101.215 558.931 101.781 558.6C102.357 558.259 103.023 558.088 103.781 558.088C104.559 558.088 105.263 558.275 105.892 558.648C106.532 559.021 107.034 559.549 107.397 560.232C107.759 560.904 107.941 561.688 107.941 562.584C107.941 563.469 107.759 564.259 107.397 564.952C107.034 565.645 106.532 566.184 105.892 566.568C105.263 566.952 104.559 567.144 103.781 567.144C103.034 567.144 102.373 566.979 101.797 566.648C101.231 566.307 100.799 565.885 100.501 565.384V571.16H99.0445V558.232H100.501V559.848ZM106.453 562.584C106.453 561.923 106.319 561.347 106.053 560.856C105.786 560.365 105.423 559.992 104.965 559.736C104.517 559.48 104.021 559.352 103.477 559.352C102.943 559.352 102.447 559.485 101.989 559.752C101.541 560.008 101.178 560.387 100.901 560.888C100.634 561.379 100.501 561.949 100.501 562.6C100.501 563.261 100.634 563.843 100.901 564.344C101.178 564.835 101.541 565.213 101.989 565.48C102.447 565.736 102.943 565.864 103.477 565.864C104.021 565.864 104.517 565.736 104.965 565.48C105.423 565.213 105.786 564.835 106.053 564.344C106.319 563.843 106.453 563.256 106.453 562.584ZM114.209 558.072C114.87 558.072 115.468 558.216 116.001 558.504C116.534 558.781 116.95 559.203 117.249 559.768C117.558 560.333 117.713 561.021 117.713 561.832V567H116.273V562.04C116.273 561.165 116.054 560.499 115.617 560.04C115.18 559.571 114.582 559.336 113.825 559.336C113.057 559.336 112.444 559.576 111.985 560.056C111.537 560.536 111.313 561.235 111.313 562.152V567H109.857V555.16H111.313V559.48C111.601 559.032 111.996 558.685 112.497 558.44C113.009 558.195 113.58 558.072 114.209 558.072ZM127.643 558.232L122.363 571.128H120.859L122.587 566.904L119.051 558.232H120.667L123.419 565.336L126.139 558.232H127.643Z" fill="#F2F5F8"/>
<rect x="143.5" y="545.5" width="64" height="31" rx="7.5" stroke="#F2F5F8"/>
<path d="M156.688 559.112C156.688 560.04 156.368 560.813 155.728 561.432C155.099 562.04 154.133 562.344 152.832 562.344H150.688V567H149.232V555.848H152.832C154.091 555.848 155.045 556.152 155.696 556.76C156.357 557.368 156.688 558.152 156.688 559.112ZM152.832 561.144C153.643 561.144 154.24 560.968 154.624 560.616C155.008 560.264 155.2 559.763 155.2 559.112C155.2 557.736 154.411 557.048 152.832 557.048H150.688V561.144H152.832ZM166.05 558.232L160.77 571.128H159.266L160.994 566.904L157.458 558.232H159.074L161.826 565.336L164.546 558.232H166.05ZM169.289 559.432V564.6C169.289 565.027 169.38 565.331 169.561 565.512C169.743 565.683 170.057 565.768 170.505 565.768H171.577V567H170.265C169.455 567 168.847 566.813 168.441 566.44C168.036 566.067 167.833 565.453 167.833 564.6V559.432H166.697V558.232H167.833V556.024H169.289V558.232H171.577V559.432H169.289ZM177.693 558.072C178.355 558.072 178.952 558.216 179.485 558.504C180.019 558.781 180.435 559.203 180.733 559.768C181.043 560.333 181.197 561.021 181.197 561.832V567H179.757V562.04C179.757 561.165 179.539 560.499 179.101 560.04C178.664 559.571 178.067 559.336 177.309 559.336C176.541 559.336 175.928 559.576 175.469 560.056C175.021 560.536 174.797 561.235 174.797 562.152V567H173.341V555.16H174.797V559.48C175.085 559.032 175.48 558.685 175.981 558.44C176.493 558.195 177.064 558.072 177.693 558.072ZM187.4 567.144C186.578 567.144 185.832 566.957 185.16 566.584C184.498 566.211 183.976 565.683 183.592 565C183.218 564.307 183.032 563.507 183.032 562.6C183.032 561.704 183.224 560.915 183.608 560.232C184.002 559.539 184.536 559.011 185.208 558.648C185.88 558.275 186.632 558.088 187.464 558.088C188.296 558.088 189.048 558.275 189.72 558.648C190.392 559.011 190.92 559.533 191.304 560.216C191.698 560.899 191.896 561.693 191.896 562.6C191.896 563.507 191.693 564.307 191.288 565C190.893 565.683 190.354 566.211 189.672 566.584C188.989 566.957 188.232 567.144 187.4 567.144ZM187.4 565.864C187.922 565.864 188.413 565.741 188.872 565.496C189.33 565.251 189.698 564.883 189.976 564.392C190.264 563.901 190.408 563.304 190.408 562.6C190.408 561.896 190.269 561.299 189.992 560.808C189.714 560.317 189.352 559.955 188.904 559.72C188.456 559.475 187.97 559.352 187.448 559.352C186.914 559.352 186.424 559.475 185.976 559.72C185.538 559.955 185.186 560.317 184.92 560.808C184.653 561.299 184.52 561.896 184.52 562.6C184.52 563.315 184.648 563.917 184.904 564.408C185.17 564.899 185.522 565.267 185.96 565.512C186.397 565.747 186.877 565.864 187.4 565.864ZM198.082 558.072C199.149 558.072 200.013 558.397 200.674 559.048C201.335 559.688 201.666 560.616 201.666 561.832V567H200.226V562.04C200.226 561.165 200.007 560.499 199.57 560.04C199.133 559.571 198.535 559.336 197.778 559.336C197.01 559.336 196.397 559.576 195.938 560.056C195.49 560.536 195.266 561.235 195.266 562.152V567H193.81V558.232H195.266V559.48C195.554 559.032 195.943 558.685 196.434 558.44C196.935 558.195 197.485 558.072 198.082 558.072Z" fill="#F2F5F8"/>
</svg>
