<svg width="450" height="600" viewBox="0 0 450 600" fill="none" xmlns="http://www.w3.org/2000/svg">
<rect width="450" height="600" fill="#282C33"/>
<path d="M128 292.75C128 310.77 166.954 325.375 215 325.375C218.683 325.375 222.308 325.292 225.875 325.125" stroke="#F2F5F8" stroke-width="12" stroke-linecap="round" stroke-linejoin="round"/>
<path d="M302 216.625V287.313M128 216.625V368.875C128 386.895 166.954 401.5 215 401.5C218.683 401.5 222.308 401.417 225.875 401.25" stroke="#F2F5F8" stroke-width="12" stroke-linecap="round" stroke-linejoin="round"/>
<path d="M215 249.25C263.049 249.25 302 234.643 302 216.625C302 198.607 263.049 184 215 184C166.951 184 128 198.607 128 216.625C128 234.643 166.951 249.25 215 249.25Z" stroke="#F2F5F8" stroke-width="12" stroke-linecap="round" stroke-linejoin="round"/>
<path d="M171.5 249.25V271M171.5 325.375V347.125M312.734 314.5L318.171 337.164L309.145 331.53C302.512 326.481 294.404 323.75 286.068 323.755C264.84 323.755 247.625 341.155 247.625 362.633C247.625 384.1 264.84 401.5 286.068 401.5C304.664 401.5 320.183 388.146 323.75 370.398" stroke="#F2F5F8" stroke-width="12" stroke-linecap="round" stroke-linejoin="round"/>
<path d="M61.3786 90.44C60.6053 90.44 59.9919 90.2267 59.5386 89.8C59.1119 89.4 58.8986 88.8267 58.8986 88.08C58.8986 87.3867 59.0853 86.8 59.4586 86.32C59.8319 85.8133 60.5519 85.3333 61.6186 84.88C61.6986 84.8533 61.7786 84.8267 61.8586 84.8C61.1919 84.6667 60.7253 84.2933 60.4586 83.68C60.2186 83.0667 60.0986 82.36 60.0986 81.56C60.0986 81.1067 60.1786 80.3733 60.3386 79.36C60.4986 78.3467 60.6986 77.1867 60.9386 75.88C61.1786 74.5733 61.4319 73.28 61.6986 72C61.9653 70.6933 62.1919 69.5467 62.3786 68.56C62.8853 66.2933 63.5386 64.2933 64.3386 62.56C65.1386 60.8267 66.2186 59.48 67.5786 58.52C68.9386 57.5333 70.6853 57.04 72.8186 57.04C74.4453 57.04 76.0453 57.3867 77.6186 58.08C79.2186 58.7467 80.6719 59.6933 81.9786 60.92C83.2853 62.1467 84.3253 63.5867 85.0986 65.24C85.8986 66.8933 86.2986 68.7067 86.2986 70.68C86.2986 72.92 85.4186 75.1733 83.6586 77.44C81.8986 79.7067 79.4319 81.88 76.2586 83.96C73.1119 86.0133 69.4319 87.8667 65.2186 89.52C64.5253 89.7867 63.8986 90 63.3386 90.16C62.8053 90.3467 62.1519 90.44 61.3786 90.44ZM64.8186 83.64C68.6853 82.0933 71.8053 80.6133 74.1786 79.2C76.5519 77.7867 78.2719 76.2933 79.3386 74.72C80.4319 73.1467 80.9786 71.36 80.9786 69.36C80.9786 68.24 80.6053 67.1733 79.8586 66.16C79.1119 65.1467 78.1519 64.3333 76.9786 63.72C75.8053 63.08 74.5653 62.76 73.2586 62.76C71.8453 62.76 70.7119 63.3333 69.8586 64.48C69.0053 65.6 68.3253 67.52 67.8186 70.24C67.5786 71.3333 67.3253 72.52 67.0586 73.8C66.8186 75.0533 66.5786 76.2667 66.3386 77.44C66.1253 78.5867 65.9386 79.5467 65.7786 80.32C65.6453 81.0933 65.5653 81.5467 65.5386 81.68C65.4053 82.48 65.1653 83.1333 64.8186 83.64ZM94.1314 89.52C93.2781 89.52 92.5047 89.28 91.8114 88.8C91.1181 88.3467 90.5714 87.7467 90.1714 87C89.7714 86.2267 89.5714 85.4 89.5714 84.52C89.5714 82.8667 89.9314 81.2533 90.6514 79.68C91.3981 78.1067 92.3714 76.6133 93.5714 75.2C94.7714 73.7867 96.0781 72.4933 97.4914 71.32C98.9314 70.12 100.358 69.0933 101.771 68.24C103.211 67.3867 104.518 66.72 105.691 66.24C106.891 65.76 107.825 65.52 108.491 65.52C109.265 65.52 109.891 65.6933 110.371 66.04C110.878 66.36 111.131 66.8667 111.131 67.56C111.131 67.7733 111.078 67.9467 110.971 68.08C111.318 68.16 111.598 68.36 111.811 68.68C112.025 69 112.131 69.48 112.131 70.12C112.131 70.3867 112.065 71.08 111.931 72.2C111.798 73.32 111.651 74.68 111.491 76.28C111.358 77.88 111.291 79.5467 111.291 81.28C111.291 81.5467 111.331 81.7867 111.411 82C111.491 82.1867 111.665 82.28 111.931 82.28C112.998 82.28 114.078 82.0667 115.171 81.64C116.291 81.1867 117.371 80.64 118.411 80C119.478 79.3333 120.438 78.68 121.291 78.04C122.171 77.3733 122.905 76.8267 123.491 76.4C124.105 75.9467 124.505 75.72 124.691 75.72C125.598 75.72 126.051 76.1733 126.051 77.08C126.051 77.32 125.758 77.8267 125.171 78.6C124.611 79.3467 123.838 80.2133 122.851 81.2C121.865 82.16 120.758 83.12 119.531 84.08C118.331 85.0133 117.078 85.7867 115.771 86.4C114.491 87.0133 113.251 87.32 112.051 87.32C110.585 87.32 109.465 86.9733 108.691 86.28C107.945 85.5867 107.411 84.6533 107.091 83.48C106.798 82.28 106.638 80.9333 106.611 79.44C105.251 81.3867 103.838 83.12 102.371 84.64C100.931 86.1333 99.5047 87.32 98.0914 88.2C96.6781 89.08 95.3581 89.52 94.1314 89.52ZM108.291 69.48C105.678 70.7333 103.331 72.1733 101.251 73.8C99.1714 75.4 97.5181 77.08 96.2914 78.84C95.0914 80.6 94.4914 82.2933 94.4914 83.92C94.4914 84.3733 94.7047 84.6 95.1314 84.6C95.6381 84.6 96.3047 84.3067 97.1314 83.72C97.9847 83.1333 98.9047 82.36 99.8914 81.4C100.878 80.4133 101.865 79.32 102.851 78.12C103.838 76.8933 104.758 75.64 105.611 74.36C106.465 73.08 107.145 71.8533 107.651 70.68C107.838 70.2533 108.051 69.8533 108.291 69.48ZM151.489 67.84C151.489 68.16 151.382 68.44 151.169 68.68C150.956 68.92 150.689 69.1067 150.369 69.24C149.916 69.4267 149.129 69.6667 148.009 69.96C146.889 70.2533 145.529 70.5867 143.929 70.96C142.356 71.3333 140.662 71.72 138.849 72.12C137.036 72.4933 135.222 72.8533 133.409 73.2C132.716 75.76 132.009 78.4 131.289 81.12C130.569 83.8133 129.849 86.4667 129.129 89.08C128.862 90.0133 128.542 90.72 128.169 91.2C127.796 91.7067 127.156 91.96 126.249 91.96C125.262 91.96 124.596 91.64 124.249 91C123.929 90.3867 123.889 89.5467 124.129 88.48C124.822 85.5733 125.462 82.8667 126.049 80.36C126.662 77.8533 127.156 75.8267 127.529 74.28C125.929 74.5467 124.529 74.76 123.329 74.92C122.129 75.0533 121.276 75.1067 120.769 75.08C120.209 75.0267 119.742 74.8 119.369 74.4C118.996 74 118.822 73.5067 118.849 72.92C118.902 72.3867 119.142 71.9333 119.569 71.56C119.996 71.16 120.502 70.92 121.089 70.84C121.916 70.76 122.982 70.64 124.289 70.48C125.596 70.32 127.036 70.1333 128.609 69.92C128.956 68.56 129.356 67.16 129.809 65.72C130.262 64.2533 130.729 62.8533 131.209 61.52C131.716 60.16 132.196 58.9733 132.649 57.96C133.102 56.9467 133.516 56.2133 133.889 55.76C134.182 55.4133 134.542 55.1467 134.969 54.96C135.422 54.7733 135.862 54.68 136.289 54.68C136.849 54.68 137.302 54.88 137.649 55.28C137.996 55.68 138.169 56.1467 138.169 56.68C138.169 56.8933 138.156 57.12 138.129 57.36C138.102 57.5733 138.049 57.7867 137.969 58C137.462 59.3333 136.916 60.9467 136.329 62.84C135.769 64.7333 135.182 66.8133 134.569 69.08C136.569 68.7867 138.529 68.4933 140.449 68.2C142.396 67.88 144.156 67.5867 145.729 67.32C147.329 67.0267 148.609 66.7733 149.569 66.56C150.102 66.3733 150.556 66.4133 150.929 66.68C151.302 66.92 151.489 67.3067 151.489 67.84ZM147.139 89.52C146.286 89.52 145.513 89.28 144.819 88.8C144.126 88.3467 143.579 87.7467 143.179 87C142.779 86.2267 142.579 85.4 142.579 84.52C142.579 82.8667 142.939 81.2533 143.659 79.68C144.406 78.1067 145.379 76.6133 146.579 75.2C147.779 73.7867 149.086 72.4933 150.499 71.32C151.939 70.12 153.366 69.0933 154.779 68.24C156.219 67.3867 157.526 66.72 158.699 66.24C159.899 65.76 160.833 65.52 161.499 65.52C162.273 65.52 162.899 65.6933 163.379 66.04C163.886 66.36 164.139 66.8667 164.139 67.56C164.139 67.7733 164.086 67.9467 163.979 68.08C164.326 68.16 164.606 68.36 164.819 68.68C165.033 69 165.139 69.48 165.139 70.12C165.139 70.3867 165.073 71.08 164.939 72.2C164.806 73.32 164.659 74.68 164.499 76.28C164.366 77.88 164.299 79.5467 164.299 81.28C164.299 81.5467 164.339 81.7867 164.419 82C164.499 82.1867 164.673 82.28 164.939 82.28C166.006 82.28 167.086 82.0667 168.179 81.64C169.299 81.1867 170.379 80.64 171.419 80C172.486 79.3333 173.446 78.68 174.299 78.04C175.179 77.3733 175.913 76.8267 176.499 76.4C177.113 75.9467 177.513 75.72 177.699 75.72C178.606 75.72 179.059 76.1733 179.059 77.08C179.059 77.32 178.766 77.8267 178.179 78.6C177.619 79.3467 176.846 80.2133 175.859 81.2C174.873 82.16 173.766 83.12 172.539 84.08C171.339 85.0133 170.086 85.7867 168.779 86.4C167.499 87.0133 166.259 87.32 165.059 87.32C163.593 87.32 162.473 86.9733 161.699 86.28C160.953 85.5867 160.419 84.6533 160.099 83.48C159.806 82.28 159.646 80.9333 159.619 79.44C158.259 81.3867 156.846 83.12 155.379 84.64C153.939 86.1333 152.513 87.32 151.099 88.2C149.686 89.08 148.366 89.52 147.139 89.52ZM161.299 69.48C158.686 70.7333 156.339 72.1733 154.259 73.8C152.179 75.4 150.526 77.08 149.299 78.84C148.099 80.6 147.499 82.2933 147.499 83.92C147.499 84.3733 147.713 84.6 148.139 84.6C148.646 84.6 149.313 84.3067 150.139 83.72C150.993 83.1333 151.913 82.36 152.899 81.4C153.886 80.4133 154.873 79.32 155.859 78.12C156.846 76.8933 157.766 75.64 158.619 74.36C159.473 73.08 160.153 71.8533 160.659 70.68C160.846 70.2533 161.059 69.8533 161.299 69.48ZM198.933 87.8C197.946 87.8 197.213 87.4133 196.733 86.64C196.253 85.84 196.013 84.4 196.013 82.32C196.013 79.6533 196.253 77.0267 196.733 74.44C197.239 71.8533 197.946 69.4267 198.853 67.16C199.786 64.8933 200.906 62.9067 202.213 61.2C203.546 59.4667 205.053 58.12 206.733 57.16C208.413 56.1733 210.239 55.68 212.213 55.68C215.146 55.68 217.319 56.4667 218.733 58.04C220.173 59.5867 220.893 61.8667 220.893 64.88C220.893 66.48 220.573 67.9067 219.933 69.16C219.293 70.3867 218.453 71.36 217.413 72.08C216.399 72.7733 215.306 73.12 214.133 73.12C213.466 73.12 212.759 73 212.013 72.76C213.453 74.6267 214.893 76.2533 216.333 77.64C217.799 79.0267 219.253 80.3067 220.693 81.48C222.159 82.6267 223.626 83.8 225.093 85C225.866 85.6133 226.306 86.2667 226.413 86.96C226.519 87.6533 226.333 88.24 225.853 88.72C225.399 89.2267 224.693 89.48 223.733 89.48C222.986 89.48 222.039 89.1467 220.893 88.48C219.746 87.84 218.506 86.9733 217.173 85.88C215.839 84.76 214.506 83.52 213.173 82.16C211.866 80.8 210.666 79.4133 209.573 78C208.506 76.5867 207.639 75.24 206.973 73.96C206.333 72.68 206.013 71.5867 206.013 70.68C206.013 69.8267 206.239 69.1733 206.693 68.72C207.146 68.24 207.733 68 208.453 68C209.039 68 209.573 68.08 210.053 68.24C210.559 68.4 211.093 68.48 211.653 68.48C212.239 68.48 212.853 68.32 213.493 68C214.159 67.68 214.719 67.1867 215.173 66.52C215.626 65.8267 215.853 64.9467 215.853 63.88C215.853 62.7067 215.519 61.92 214.853 61.52C214.213 61.12 213.346 60.92 212.253 60.92C210.733 60.92 209.359 61.4533 208.133 62.52C206.906 63.5867 205.839 65.0933 204.933 67.04C204.026 68.9867 203.293 71.28 202.733 73.92C202.199 76.56 201.839 79.44 201.653 82.56C201.546 84.5867 201.279 85.9733 200.853 86.72C200.426 87.44 199.786 87.8 198.933 87.8ZM237.014 89.36C235.361 89.36 234.028 88.7867 233.014 87.64C232.001 86.4667 231.494 84.5867 231.494 82C231.494 80.3467 231.681 78.6933 232.054 77.04C232.454 75.36 233.001 73.7733 233.694 72.28C234.414 70.76 235.241 69.4133 236.174 68.24C237.134 67.0667 238.188 66.1467 239.334 65.48C240.481 64.7867 241.668 64.44 242.894 64.44C244.974 64.44 246.601 65 247.774 66.12C248.948 67.24 249.534 68.6667 249.534 70.4C249.534 71.7333 249.161 72.9467 248.414 74.04C247.694 75.1067 246.708 76.0667 245.454 76.92C244.201 77.7733 242.801 78.5467 241.254 79.24C239.708 79.9333 238.121 80.56 236.494 81.12C236.361 82.08 236.294 82.9333 236.294 83.68C236.294 84.1333 236.548 84.36 237.054 84.36C238.254 84.36 239.534 84.1733 240.894 83.8C242.281 83.4 243.681 82.8933 245.094 82.28C246.508 81.64 247.868 80.9867 249.174 80.32C250.481 79.6267 251.668 78.9733 252.734 78.36C253.828 77.72 254.721 77.2133 255.414 76.84C256.134 76.44 256.601 76.24 256.814 76.24C257.401 76.24 257.828 76.4133 258.094 76.76C258.361 77.1067 258.494 77.48 258.494 77.88C258.494 78.0667 258.134 78.48 257.414 79.12C256.721 79.76 255.761 80.52 254.534 81.4C253.334 82.2533 251.974 83.1467 250.454 84.08C248.961 84.9867 247.401 85.8533 245.774 86.68C244.174 87.48 242.614 88.12 241.094 88.6C239.601 89.1067 238.241 89.36 237.014 89.36ZM237.174 77.56C238.268 76.92 239.348 76.2533 240.414 75.56C241.508 74.84 242.414 74.04 243.134 73.16C243.854 72.2533 244.214 71.2 244.214 70C244.214 69.6533 244.121 69.4267 243.934 69.32C243.748 69.1867 243.481 69.12 243.134 69.12C242.201 69.12 241.348 69.5333 240.574 70.36C239.828 71.1867 239.161 72.2533 238.574 73.56C238.014 74.84 237.548 76.1733 237.174 77.56ZM262.518 89.12C261.024 89.12 259.731 88.7733 258.638 88.08C257.544 87.4133 256.704 86.5467 256.118 85.48C255.531 84.3867 255.238 83.2667 255.238 82.12C255.238 80.2 255.531 78.4267 256.118 76.8C256.704 75.1467 257.478 73.6533 258.438 72.32C259.398 70.96 260.438 69.76 261.558 68.72C262.704 67.68 263.811 66.8133 264.878 66.12C265.971 65.4 266.944 64.8667 267.798 64.52C268.651 64.1467 269.278 63.96 269.678 63.96C270.398 63.96 270.904 64.12 271.198 64.44C271.518 64.7333 271.678 65.2267 271.678 65.92C271.678 66.32 271.384 66.8 270.798 67.36C270.238 67.92 269.491 68.56 268.558 69.28C267.651 70 266.691 70.8133 265.678 71.72C264.664 72.6267 263.691 73.64 262.758 74.76C261.851 75.88 261.104 77.1067 260.518 78.44C259.958 79.7733 259.678 81.2267 259.678 82.8C259.678 83.3867 259.784 83.84 259.998 84.16C260.238 84.48 260.624 84.64 261.158 84.64C262.678 84.64 264.304 84.3733 266.038 83.84C267.798 83.28 269.544 82.5867 271.278 81.76C273.038 80.9067 274.691 80.0267 276.238 79.12C277.811 78.2133 279.158 77.4 280.278 76.68C280.731 76.36 281.118 76.1067 281.438 75.92C281.758 75.7333 281.984 75.64 282.118 75.64C282.918 75.64 283.318 76.0533 283.318 76.88C283.318 77.3067 282.998 77.88 282.358 78.6C281.611 79.5333 280.598 80.4933 279.318 81.48C278.064 82.4667 276.664 83.4133 275.118 84.32C273.598 85.2267 272.038 86.04 270.438 86.76C268.864 87.48 267.384 88.0533 265.998 88.48C264.611 88.9067 263.451 89.12 262.518 89.12ZM286.257 89.32C284.364 89.32 282.844 88.6533 281.697 87.32C280.55 85.96 279.977 84.1467 279.977 81.88C279.977 81.16 280.07 80.4267 280.257 79.68C280.47 78.9333 280.724 78.24 281.017 77.6C280.857 77.36 280.724 77.0533 280.617 76.68C280.537 76.28 280.497 75.8133 280.497 75.28C280.497 73.5467 280.804 71.96 281.417 70.52C282.03 69.0533 282.857 67.7867 283.897 66.72C284.937 65.6533 286.084 64.8267 287.337 64.24C288.59 63.6533 289.857 63.36 291.137 63.36C293.324 63.36 295.11 64.0933 296.497 65.56C297.91 67.0267 298.617 69.3067 298.617 72.4C298.617 73.9467 298.377 75.52 297.897 77.12C297.417 78.72 296.764 80.2533 295.937 81.72C295.137 83.16 294.204 84.4533 293.137 85.6C292.097 86.7467 290.977 87.6533 289.777 88.32C288.604 88.9867 287.43 89.32 286.257 89.32ZM285.617 75.8C285.75 76.0933 285.817 76.44 285.817 76.84C285.817 77.24 285.737 77.6533 285.577 78.08C285.417 78.5067 285.257 79.08 285.097 79.8C284.937 80.4933 284.857 81.4933 284.857 82.8C284.857 83.1467 284.897 83.44 284.977 83.68C285.084 83.8933 285.31 84 285.657 84C286.564 84 287.417 83.7067 288.217 83.12C289.044 82.5333 289.777 81.76 290.417 80.8C291.084 79.84 291.644 78.7733 292.097 77.6C292.577 76.4 292.937 75.1867 293.177 73.96C293.444 72.7067 293.577 71.5467 293.577 70.48C293.577 69.7867 293.444 69.3067 293.177 69.04C292.91 68.7733 292.444 68.64 291.777 68.64C290.87 68.64 289.937 68.9333 288.977 69.52C288.044 70.08 287.257 70.8533 286.617 71.84C285.977 72.8 285.657 73.8933 285.657 75.12C285.657 75.36 285.644 75.5867 285.617 75.8ZM308.918 87.96C308.225 87.96 307.611 87.6267 307.078 86.96C306.571 86.2933 306.185 85.2667 305.918 83.88C305.705 82.7067 305.518 81.3733 305.358 79.88C305.198 78.3867 305.051 76.92 304.918 75.48C304.811 74.0133 304.731 72.7333 304.678 71.64C304.625 70.5467 304.598 69.8 304.598 69.4C304.598 67.96 304.851 66.7733 305.358 65.84C305.865 64.88 306.838 64.4 308.278 64.4C308.891 64.4 309.358 64.6667 309.678 65.2C309.998 65.7067 310.158 66.4133 310.158 67.32C310.158 67.88 310.158 68.5867 310.158 69.44C310.185 70.2667 310.211 71.2 310.238 72.24C310.265 73.3867 310.291 74.6267 310.318 75.96C310.371 77.2667 310.398 78.5733 310.398 79.88C311.331 78.4133 312.331 76.8533 313.398 75.2C314.465 73.52 315.505 71.8933 316.518 70.32C317.558 68.7467 318.491 67.36 319.318 66.16C320.145 64.9333 320.771 64.0667 321.198 63.56C321.571 63.1067 322.025 62.72 322.558 62.4C323.091 62.0533 323.651 61.88 324.238 61.88C324.878 61.88 325.411 62.1333 325.838 62.64C326.265 63.1467 326.478 63.7333 326.478 64.4C326.478 64.9067 326.371 65.3867 326.158 65.84C325.971 66.2933 325.731 66.72 325.438 67.12C324.638 68.24 323.691 69.5467 322.598 71.04C321.531 72.5333 320.411 74.1067 319.238 75.76C318.065 77.3867 316.918 78.96 315.798 80.48C314.705 82 313.731 83.3467 312.878 84.52C312.185 85.5067 311.625 86.2533 311.198 86.76C310.771 87.24 310.385 87.56 310.038 87.72C309.718 87.88 309.345 87.96 308.918 87.96ZM347.527 70.68C347.527 72.4133 346.54 74.1333 344.567 75.84C342.62 77.52 339.594 79.0133 335.487 80.32C335.487 80.3467 335.487 80.3867 335.487 80.44C335.487 81.32 335.594 82.0267 335.807 82.56C336.02 83.0667 336.487 83.32 337.207 83.32C338.274 83.32 339.46 83 340.767 82.36C342.1 81.6933 343.474 80.8533 344.887 79.84C346.327 78.8 347.727 77.7067 349.087 76.56C350.447 75.4133 351.7 74.3333 352.847 73.32C354.02 72.28 355.007 71.44 355.807 70.8C356.634 70.1333 357.18 69.8 357.447 69.8C358.007 69.8 358.474 70.0133 358.847 70.44C359.247 70.8667 359.447 71.5067 359.447 72.36C359.447 72.84 359.42 73.4133 359.367 74.08C360.54 72.0533 361.9 70.3867 363.447 69.08C364.994 67.7467 366.514 66.76 368.007 66.12C369.527 65.4533 370.82 65.12 371.887 65.12C373.087 65.12 373.9 65.36 374.327 65.84C374.754 66.2933 374.967 66.7733 374.967 67.28C374.967 67.5733 374.9 67.8667 374.767 68.16C374.66 68.4267 374.367 68.72 373.887 69.04C373.434 69.36 372.674 69.7333 371.607 70.16C370.194 70.6933 368.847 71.32 367.567 72.04C366.314 72.76 365.154 73.7467 364.087 75C363.047 76.2267 362.1 77.88 361.247 79.96C360.42 82.0133 359.727 84.6533 359.167 87.88C358.98 88.7867 358.687 89.4 358.287 89.72C357.887 90.0667 357.42 90.24 356.887 90.24C356.834 90.24 356.74 90.24 356.607 90.24C356.367 90.2667 356.114 90.24 355.847 90.16C355.607 90.1067 355.367 89.88 355.127 89.48C354.914 89.1067 354.74 88.4533 354.607 87.52C354.474 86.5867 354.407 85.2533 354.407 83.52C354.407 82.48 354.447 81.3867 354.527 80.24C354.634 79.0667 354.767 77.8533 354.927 76.6C353.567 77.9333 352.114 79.28 350.567 80.64C349.02 82 347.42 83.2533 345.767 84.4C344.14 85.52 342.54 86.4267 340.967 87.12C339.42 87.8133 337.98 88.16 336.647 88.16C334.86 88.16 333.394 87.5867 332.247 86.44C331.127 85.2667 330.567 83.4667 330.567 81.04C330.567 78.64 330.887 76.4667 331.527 74.52C332.194 72.5467 333.047 70.8533 334.087 69.44C335.127 68.0267 336.234 66.9467 337.407 66.2C338.607 65.4267 339.727 65.04 340.767 65.04C342.98 65.04 344.66 65.5733 345.807 66.64C346.954 67.68 347.527 69.0267 347.527 70.68ZM336.007 76.76C336.7 76.4133 337.434 76.0133 338.207 75.56C339.007 75.08 339.754 74.5867 340.447 74.08C341.14 73.5467 341.7 73.0267 342.127 72.52C342.58 72.0133 342.807 71.5333 342.807 71.08C342.807 70.3333 342.594 69.88 342.167 69.72C341.767 69.5333 341.22 69.44 340.527 69.44C339.807 69.44 339.154 69.8267 338.567 70.6C337.98 71.3467 337.474 72.28 337.047 73.4C336.62 74.52 336.274 75.64 336.007 76.76ZM380.295 99C378.802 99 377.442 98.9067 376.215 98.72C374.989 98.56 373.789 98.2933 372.615 97.92C371.442 97.5467 370.175 97.0533 368.815 96.44C368.255 96.1733 367.789 95.8933 367.415 95.6C367.042 95.3067 366.855 94.8667 366.855 94.28C366.855 93.4267 367.122 92.7733 367.655 92.32C368.162 91.8933 368.869 91.68 369.775 91.68C370.255 91.68 370.869 91.84 371.615 92.16C372.362 92.5067 373.215 92.8933 374.175 93.32C375.162 93.7733 376.255 94.16 377.455 94.48C378.655 94.8267 379.949 95 381.335 95C382.749 95 384.069 94.4133 385.295 93.24C386.522 92.0667 387.509 90.4133 388.255 88.28C389.029 86.1733 389.415 83.68 389.415 80.8C389.415 80.1333 389.402 79.4133 389.375 78.64C389.349 77.84 389.322 77 389.295 76.12C388.335 77.9333 387.295 79.6267 386.175 81.2C385.055 82.7733 383.895 84.0533 382.695 85.04C381.522 86 380.335 86.48 379.135 86.48C377.669 86.48 376.602 86.1333 375.935 85.44C375.295 84.72 374.975 83.5867 374.975 82.04C374.975 80.7333 375.069 79.3067 375.255 77.76C375.469 76.1867 375.749 74.6 376.095 73C376.442 71.4 376.842 69.88 377.295 68.44C377.775 66.9733 378.282 65.7067 378.815 64.64C379.215 63.8667 379.829 63.48 380.655 63.48C381.189 63.48 381.722 63.7333 382.255 64.24C382.815 64.7467 383.095 65.4267 383.095 66.28C383.095 66.76 382.975 67.4533 382.735 68.36C382.495 69.2667 382.202 70.2933 381.855 71.44C381.535 72.56 381.202 73.7467 380.855 75C380.509 76.2267 380.215 77.44 379.975 78.64C379.735 79.8133 379.615 80.88 379.615 81.84C379.615 81.9467 379.695 82 379.855 82C380.175 82 380.602 81.7333 381.135 81.2C381.695 80.64 382.309 79.92 382.975 79.04C383.669 78.1333 384.362 77.1467 385.055 76.08C385.775 74.9867 386.469 73.9067 387.135 72.84C387.802 71.7733 388.402 70.8 388.935 69.92C388.855 69.4933 388.802 69.12 388.775 68.8C388.775 68.4533 388.775 68.16 388.775 67.92C388.775 66.8267 388.962 65.92 389.335 65.2C389.735 64.48 390.509 64.12 391.655 64.12C392.402 64.12 392.975 64.4 393.375 64.96C393.775 65.4933 393.975 66.2533 393.975 67.24C393.975 67.6667 393.909 68.16 393.775 68.72C393.642 69.2533 393.375 70.1067 392.975 71.28L393.415 70.04C393.655 72.44 393.855 74.5733 394.015 76.44C394.202 78.3067 394.295 80.16 394.295 82C394.295 85.4667 393.709 88.4667 392.535 91C391.389 93.56 389.762 95.5333 387.655 96.92C385.575 98.3067 383.122 99 380.295 99ZM185.338 118.64C184.058 118.64 183.111 118.52 182.498 118.28C181.911 118.013 181.524 117.707 181.338 117.36C181.178 116.987 181.098 116.653 181.098 116.36C181.098 115.987 181.311 115.56 181.738 115.08C182.164 114.573 182.991 114.2 184.218 113.96C185.444 113.693 186.898 113.453 188.578 113.24C190.258 113 192.044 112.8 193.938 112.64C195.831 112.453 197.751 112.293 199.698 112.16C201.644 112.027 203.498 111.933 205.258 111.88C207.018 111.8 208.578 111.76 209.938 111.76C211.351 111.76 212.444 111.84 213.218 112C213.991 112.16 214.538 112.36 214.858 112.6C215.204 112.84 215.404 113.093 215.458 113.36C215.538 113.627 215.578 113.88 215.578 114.12C215.578 114.173 215.578 114.213 215.578 114.24C215.578 114.56 215.498 114.907 215.338 115.28C215.204 115.653 214.898 115.973 214.418 116.24C213.938 116.48 213.218 116.6 212.258 116.6C211.911 116.6 211.138 116.653 209.938 116.76C208.738 116.867 207.271 117 205.538 117.16C203.804 117.32 201.964 117.48 200.018 117.64C199.724 118.84 199.391 120.24 199.018 121.84C198.671 123.44 198.311 125.12 197.938 126.88C197.591 128.64 197.258 130.373 196.938 132.08C196.618 133.76 196.351 135.32 196.138 136.76C195.924 138.173 195.778 139.333 195.698 140.24C195.591 141.467 195.231 142.333 194.618 142.84C194.031 143.32 193.444 143.56 192.858 143.56C192.431 143.56 192.004 143.467 191.578 143.28C191.151 143.12 190.804 142.76 190.538 142.2C190.271 141.613 190.138 140.747 190.138 139.6C190.138 138.427 190.244 136.987 190.458 135.28C190.671 133.547 190.951 131.693 191.298 129.72C191.671 127.747 192.084 125.76 192.538 123.76C193.018 121.76 193.511 119.893 194.018 118.16C192.231 118.293 190.578 118.413 189.058 118.52C187.538 118.6 186.298 118.64 185.338 118.64ZM216.745 144.32C214.852 144.32 213.332 143.653 212.185 142.32C211.039 140.96 210.465 139.147 210.465 136.88C210.465 136.16 210.559 135.427 210.745 134.68C210.959 133.933 211.212 133.24 211.505 132.6C211.345 132.36 211.212 132.053 211.105 131.68C211.025 131.28 210.985 130.813 210.985 130.28C210.985 128.547 211.292 126.96 211.905 125.52C212.519 124.053 213.345 122.787 214.385 121.72C215.425 120.653 216.572 119.827 217.825 119.24C219.079 118.653 220.345 118.36 221.625 118.36C223.812 118.36 225.599 119.093 226.985 120.56C228.399 122.027 229.105 124.307 229.105 127.4C229.105 128.947 228.865 130.52 228.385 132.12C227.905 133.72 227.252 135.253 226.425 136.72C225.625 138.16 224.692 139.453 223.625 140.6C222.585 141.747 221.465 142.653 220.265 143.32C219.092 143.987 217.919 144.32 216.745 144.32ZM216.105 130.8C216.239 131.093 216.305 131.44 216.305 131.84C216.305 132.24 216.225 132.653 216.065 133.08C215.905 133.507 215.745 134.08 215.585 134.8C215.425 135.493 215.345 136.493 215.345 137.8C215.345 138.147 215.385 138.44 215.465 138.68C215.572 138.893 215.799 139 216.145 139C217.052 139 217.905 138.707 218.705 138.12C219.532 137.533 220.265 136.76 220.905 135.8C221.572 134.84 222.132 133.773 222.585 132.6C223.065 131.4 223.425 130.187 223.665 128.96C223.932 127.707 224.065 126.547 224.065 125.48C224.065 124.787 223.932 124.307 223.665 124.04C223.399 123.773 222.932 123.64 222.265 123.64C221.359 123.64 220.425 123.933 219.465 124.52C218.532 125.08 217.745 125.853 217.105 126.84C216.465 127.8 216.145 128.893 216.145 130.12C216.145 130.36 216.132 130.587 216.105 130.8ZM239.988 144.32C238.094 144.32 236.574 143.653 235.428 142.32C234.281 140.96 233.708 139.147 233.708 136.88C233.708 136.16 233.801 135.427 233.988 134.68C234.201 133.933 234.454 133.24 234.748 132.6C234.588 132.36 234.454 132.053 234.348 131.68C234.268 131.28 234.228 130.813 234.228 130.28C234.228 128.547 234.534 126.96 235.148 125.52C235.761 124.053 236.588 122.787 237.628 121.72C238.668 120.653 239.814 119.827 241.068 119.24C242.321 118.653 243.588 118.36 244.868 118.36C247.054 118.36 248.841 119.093 250.228 120.56C251.641 122.027 252.348 124.307 252.348 127.4C252.348 128.947 252.108 130.52 251.628 132.12C251.148 133.72 250.494 135.253 249.668 136.72C248.868 138.16 247.934 139.453 246.868 140.6C245.828 141.747 244.708 142.653 243.508 143.32C242.334 143.987 241.161 144.32 239.988 144.32ZM239.348 130.8C239.481 131.093 239.548 131.44 239.548 131.84C239.548 132.24 239.468 132.653 239.308 133.08C239.148 133.507 238.988 134.08 238.828 134.8C238.668 135.493 238.588 136.493 238.588 137.8C238.588 138.147 238.628 138.44 238.708 138.68C238.814 138.893 239.041 139 239.388 139C240.294 139 241.148 138.707 241.948 138.12C242.774 137.533 243.508 136.76 244.148 135.8C244.814 134.84 245.374 133.773 245.828 132.6C246.308 131.4 246.668 130.187 246.908 128.96C247.174 127.707 247.308 126.547 247.308 125.48C247.308 124.787 247.174 124.307 246.908 124.04C246.641 123.773 246.174 123.64 245.508 123.64C244.601 123.64 243.668 123.933 242.708 124.52C241.774 125.08 240.988 125.853 240.348 126.84C239.708 127.8 239.388 128.893 239.388 130.12C239.388 130.36 239.374 130.587 239.348 130.8ZM265.408 145C263.008 145 261.115 144.267 259.728 142.8C258.368 141.307 257.688 139.187 257.688 136.44C257.688 134.947 257.888 133.2 258.288 131.2C258.688 129.173 259.208 127.04 259.848 124.8C260.515 122.533 261.222 120.293 261.968 118.08C262.742 115.867 263.502 113.813 264.248 111.92C264.995 110.027 265.648 108.44 266.208 107.16C266.688 106.173 267.368 105.68 268.248 105.68C268.808 105.68 269.262 105.853 269.608 106.2C269.982 106.547 270.168 107.107 270.168 107.88C270.168 108.253 269.982 109.067 269.608 110.32C269.235 111.573 268.742 113.12 268.128 114.96C267.542 116.773 266.902 118.733 266.208 120.84C265.542 122.947 264.902 125.067 264.288 127.2C263.702 129.333 263.222 131.347 262.848 133.24C262.475 135.107 262.288 136.693 262.288 138C262.288 138.533 262.435 138.96 262.728 139.28C263.048 139.6 263.462 139.76 263.968 139.76C265.062 139.76 266.182 139.56 267.328 139.16C268.502 138.76 269.648 138.253 270.768 137.64C271.915 137.027 272.995 136.373 274.008 135.68C275.022 134.987 275.928 134.333 276.728 133.72C277.555 133.08 278.222 132.573 278.728 132.2C279.395 131.693 279.848 131.44 280.088 131.44C280.995 131.44 281.448 131.88 281.448 132.76C281.448 132.973 281.182 133.413 280.648 134.08C280.195 134.667 279.555 135.413 278.728 136.32C277.902 137.227 276.942 138.187 275.848 139.2C274.782 140.187 273.635 141.12 272.408 142C271.208 142.88 270.008 143.6 268.808 144.16C267.608 144.72 266.475 145 265.408 145Z" fill="#F2F5F8"/>
<path d="M20.1 514.344C22.172 514.344 23.9827 514.755 25.532 515.576C27.0813 516.397 28.276 517.555 29.116 519.048C29.9747 520.523 30.404 522.231 30.404 524.172C30.404 526.095 29.9747 527.803 29.116 529.296C28.276 530.789 27.072 531.947 25.504 532.768C23.9547 533.589 22.1533 534 20.1 534H12.736V514.344H20.1ZM19.792 529.856C21.6027 529.856 23.012 529.361 24.02 528.372C25.028 527.383 25.532 525.983 25.532 524.172C25.532 522.361 25.028 520.952 24.02 519.944C23.012 518.936 21.6027 518.432 19.792 518.432H17.524V529.856H19.792ZM32.1278 526.16C32.1278 524.555 32.4264 523.145 33.0238 521.932C33.6398 520.719 34.4704 519.785 35.5158 519.132C36.5611 518.479 37.7278 518.152 39.0158 518.152C40.1171 518.152 41.0784 518.376 41.8998 518.824C42.7398 519.272 43.3838 519.86 43.8318 520.588V518.376H48.6198V534H43.8318V531.788C43.3651 532.516 42.7118 533.104 41.8718 533.552C41.0504 534 40.0891 534.224 38.9878 534.224C37.7184 534.224 36.5611 533.897 35.5158 533.244C34.4704 532.572 33.6398 531.629 33.0238 530.416C32.4264 529.184 32.1278 527.765 32.1278 526.16ZM43.8318 526.188C43.8318 524.993 43.4958 524.051 42.8238 523.36C42.1704 522.669 41.3678 522.324 40.4158 522.324C39.4638 522.324 38.6518 522.669 37.9798 523.36C37.3264 524.032 36.9998 524.965 36.9998 526.16C36.9998 527.355 37.3264 528.307 37.9798 529.016C38.6518 529.707 39.4638 530.052 40.4158 530.052C41.3678 530.052 42.1704 529.707 42.8238 529.016C43.4958 528.325 43.8318 527.383 43.8318 526.188ZM60.7917 529.94V534H58.3557C56.6197 534 55.2663 533.58 54.2957 532.74C53.325 531.881 52.8397 530.491 52.8397 528.568V522.352H50.9357V518.376H52.8397V514.568H57.6277V518.376H60.7637V522.352H57.6277V528.624C57.6277 529.091 57.7397 529.427 57.9637 529.632C58.1877 529.837 58.561 529.94 59.0837 529.94H60.7917ZM62.5067 526.16C62.5067 524.555 62.8053 523.145 63.4027 521.932C64.0187 520.719 64.8493 519.785 65.8947 519.132C66.94 518.479 68.1067 518.152 69.3947 518.152C70.496 518.152 71.4573 518.376 72.2787 518.824C73.1187 519.272 73.7627 519.86 74.2107 520.588V518.376H78.9987V534H74.2107V531.788C73.744 532.516 73.0907 533.104 72.2507 533.552C71.4293 534 70.468 534.224 69.3667 534.224C68.0973 534.224 66.94 533.897 65.8947 533.244C64.8493 532.572 64.0187 531.629 63.4027 530.416C62.8053 529.184 62.5067 527.765 62.5067 526.16ZM74.2107 526.188C74.2107 524.993 73.8747 524.051 73.2027 523.36C72.5493 522.669 71.7467 522.324 70.7947 522.324C69.8427 522.324 69.0307 522.669 68.3587 523.36C67.7053 524.032 67.3787 524.965 67.3787 526.16C67.3787 527.355 67.7053 528.307 68.3587 529.016C69.0307 529.707 69.8427 530.052 70.7947 530.052C71.7467 530.052 72.5493 529.707 73.2027 529.016C73.8747 528.325 74.2107 527.383 74.2107 526.188ZM98.4202 534L94.3322 526.58H93.1842V534H88.3962V514.344H96.4322C97.9815 514.344 99.2975 514.615 100.38 515.156C101.481 515.697 102.303 516.444 102.844 517.396C103.385 518.329 103.656 519.375 103.656 520.532C103.656 521.839 103.283 523.005 102.536 524.032C101.808 525.059 100.725 525.787 99.2882 526.216L103.824 534H98.4202ZM93.1842 523.192H96.1522C97.0295 523.192 97.6828 522.977 98.1122 522.548C98.5602 522.119 98.7842 521.512 98.7842 520.728C98.7842 519.981 98.5602 519.393 98.1122 518.964C97.6828 518.535 97.0295 518.32 96.1522 518.32H93.1842V523.192ZM121.39 525.936C121.39 526.384 121.362 526.851 121.306 527.336H110.47C110.544 528.307 110.852 529.053 111.394 529.576C111.954 530.08 112.635 530.332 113.438 530.332C114.632 530.332 115.463 529.828 115.93 528.82H121.026C120.764 529.847 120.288 530.771 119.598 531.592C118.926 532.413 118.076 533.057 117.05 533.524C116.023 533.991 114.875 534.224 113.606 534.224C112.075 534.224 110.712 533.897 109.518 533.244C108.323 532.591 107.39 531.657 106.718 530.444C106.046 529.231 105.71 527.812 105.71 526.188C105.71 524.564 106.036 523.145 106.69 521.932C107.362 520.719 108.295 519.785 109.49 519.132C110.684 518.479 112.056 518.152 113.606 518.152C115.118 518.152 116.462 518.469 117.638 519.104C118.814 519.739 119.728 520.644 120.382 521.82C121.054 522.996 121.39 524.368 121.39 525.936ZM116.49 524.676C116.49 523.855 116.21 523.201 115.65 522.716C115.09 522.231 114.39 521.988 113.55 521.988C112.747 521.988 112.066 522.221 111.506 522.688C110.964 523.155 110.628 523.817 110.498 524.676H116.49ZM122.964 526.188C122.964 524.564 123.29 523.145 123.944 521.932C124.616 520.719 125.54 519.785 126.716 519.132C127.91 518.479 129.273 518.152 130.804 518.152C132.764 518.152 134.397 518.665 135.704 519.692C137.029 520.719 137.897 522.165 138.308 524.032H133.212C132.782 522.837 131.952 522.24 130.72 522.24C129.842 522.24 129.142 522.585 128.62 523.276C128.097 523.948 127.836 524.919 127.836 526.188C127.836 527.457 128.097 528.437 128.62 529.128C129.142 529.8 129.842 530.136 130.72 530.136C131.952 530.136 132.782 529.539 133.212 528.344H138.308C137.897 530.173 137.029 531.611 135.704 532.656C134.378 533.701 132.745 534.224 130.804 534.224C129.273 534.224 127.91 533.897 126.716 533.244C125.54 532.591 124.616 531.657 123.944 530.444C123.29 529.231 122.964 527.812 122.964 526.188ZM147.981 534.224C146.45 534.224 145.069 533.897 143.837 533.244C142.623 532.591 141.662 531.657 140.953 530.444C140.262 529.231 139.917 527.812 139.917 526.188C139.917 524.583 140.271 523.173 140.981 521.96C141.69 520.728 142.661 519.785 143.893 519.132C145.125 518.479 146.506 518.152 148.037 518.152C149.567 518.152 150.949 518.479 152.181 519.132C153.413 519.785 154.383 520.728 155.093 521.96C155.802 523.173 156.157 524.583 156.157 526.188C156.157 527.793 155.793 529.212 155.065 530.444C154.355 531.657 153.375 532.591 152.125 533.244C150.893 533.897 149.511 534.224 147.981 534.224ZM147.981 530.08C148.895 530.08 149.67 529.744 150.305 529.072C150.958 528.4 151.285 527.439 151.285 526.188C151.285 524.937 150.967 523.976 150.333 523.304C149.717 522.632 148.951 522.296 148.037 522.296C147.103 522.296 146.329 522.632 145.713 523.304C145.097 523.957 144.789 524.919 144.789 526.188C144.789 527.439 145.087 528.4 145.685 529.072C146.301 529.744 147.066 530.08 147.981 530.08ZM165.725 529.52L169.113 518.376H174.209L168.665 534H162.757L157.213 518.376H162.337L165.725 529.52ZM190.952 525.936C190.952 526.384 190.924 526.851 190.868 527.336H180.032C180.107 528.307 180.415 529.053 180.956 529.576C181.516 530.08 182.198 530.332 183 530.332C184.195 530.332 185.026 529.828 185.492 528.82H190.588C190.327 529.847 189.851 530.771 189.16 531.592C188.488 532.413 187.639 533.057 186.612 533.524C185.586 533.991 184.438 534.224 183.168 534.224C181.638 534.224 180.275 533.897 179.08 533.244C177.886 532.591 176.952 531.657 176.28 530.444C175.608 529.231 175.272 527.812 175.272 526.188C175.272 524.564 175.599 523.145 176.252 521.932C176.924 520.719 177.858 519.785 179.052 519.132C180.247 518.479 181.619 518.152 183.168 518.152C184.68 518.152 186.024 518.469 187.2 519.104C188.376 519.739 189.291 520.644 189.944 521.82C190.616 522.996 190.952 524.368 190.952 525.936ZM186.052 524.676C186.052 523.855 185.772 523.201 185.212 522.716C184.652 522.231 183.952 521.988 183.112 521.988C182.31 521.988 181.628 522.221 181.068 522.688C180.527 523.155 180.191 523.817 180.06 524.676H186.052ZM198.266 520.98C198.826 520.121 199.526 519.449 200.366 518.964C201.206 518.46 202.14 518.208 203.166 518.208V523.276H201.85C200.656 523.276 199.76 523.537 199.162 524.06C198.565 524.564 198.266 525.46 198.266 526.748V534H193.478V518.376H198.266V520.98ZM221.415 518.376L211.615 541.42H206.463L210.047 533.468L203.691 518.376H209.039L212.651 528.148L216.235 518.376H221.415ZM243.22 514.344V518.18H238.012V534H233.224V518.18H228.016V514.344H243.22ZM252.735 534.224C251.204 534.224 249.823 533.897 248.591 533.244C247.377 532.591 246.416 531.657 245.707 530.444C245.016 529.231 244.671 527.812 244.671 526.188C244.671 524.583 245.025 523.173 245.735 521.96C246.444 520.728 247.415 519.785 248.647 519.132C249.879 518.479 251.26 518.152 252.791 518.152C254.321 518.152 255.703 518.479 256.935 519.132C258.167 519.785 259.137 520.728 259.847 521.96C260.556 523.173 260.911 524.583 260.911 526.188C260.911 527.793 260.547 529.212 259.819 530.444C259.109 531.657 258.129 532.591 256.879 533.244C255.647 533.897 254.265 534.224 252.735 534.224ZM252.735 530.08C253.649 530.08 254.424 529.744 255.059 529.072C255.712 528.4 256.039 527.439 256.039 526.188C256.039 524.937 255.721 523.976 255.087 523.304C254.471 522.632 253.705 522.296 252.791 522.296C251.857 522.296 251.083 522.632 250.467 523.304C249.851 523.957 249.543 524.919 249.543 526.188C249.543 527.439 249.841 528.4 250.439 529.072C251.055 529.744 251.82 530.08 252.735 530.08ZM270.563 534.224C269.032 534.224 267.651 533.897 266.419 533.244C265.206 532.591 264.244 531.657 263.535 530.444C262.844 529.231 262.499 527.812 262.499 526.188C262.499 524.583 262.854 523.173 263.563 521.96C264.272 520.728 265.243 519.785 266.475 519.132C267.707 518.479 269.088 518.152 270.619 518.152C272.15 518.152 273.531 518.479 274.763 519.132C275.995 519.785 276.966 520.728 277.675 521.96C278.384 523.173 278.739 524.583 278.739 526.188C278.739 527.793 278.375 529.212 277.647 530.444C276.938 531.657 275.958 532.591 274.707 533.244C273.475 533.897 272.094 534.224 270.563 534.224ZM270.563 530.08C271.478 530.08 272.252 529.744 272.887 529.072C273.54 528.4 273.867 527.439 273.867 526.188C273.867 524.937 273.55 523.976 272.915 523.304C272.299 522.632 271.534 522.296 270.619 522.296C269.686 522.296 268.911 522.632 268.295 523.304C267.679 523.957 267.371 524.919 267.371 526.188C267.371 527.439 267.67 528.4 268.267 529.072C268.883 529.744 269.648 530.08 270.563 530.08ZM286.067 513.28V534H281.279V513.28H286.067Z" fill="white"/>
<rect x="11.5" y="545.5" width="84" height="31" rx="7.5" stroke="#F2F5F8"/>
<path d="M23.536 555.848V557.032H18.688V560.792H22.624V561.976H18.688V567H17.232V555.848H23.536ZM29.1185 567.144C28.2972 567.144 27.5505 566.957 26.8785 566.584C26.2172 566.211 25.6945 565.683 25.3105 565C24.9372 564.307 24.7505 563.507 24.7505 562.6C24.7505 561.704 24.9425 560.915 25.3265 560.232C25.7212 559.539 26.2545 559.011 26.9265 558.648C27.5985 558.275 28.3505 558.088 29.1825 558.088C30.0145 558.088 30.7665 558.275 31.4385 558.648C32.1105 559.011 32.6385 559.533 33.0225 560.216C33.4172 560.899 33.6145 561.693 33.6145 562.6C33.6145 563.507 33.4118 564.307 33.0065 565C32.6118 565.683 32.0732 566.211 31.3905 566.584C30.7078 566.957 29.9505 567.144 29.1185 567.144ZM29.1185 565.864C29.6412 565.864 30.1318 565.741 30.5905 565.496C31.0492 565.251 31.4172 564.883 31.6945 564.392C31.9825 563.901 32.1265 563.304 32.1265 562.6C32.1265 561.896 31.9878 561.299 31.7105 560.808C31.4332 560.317 31.0705 559.955 30.6225 559.72C30.1745 559.475 29.6892 559.352 29.1665 559.352C28.6332 559.352 28.1425 559.475 27.6945 559.72C27.2572 559.955 26.9052 560.317 26.6385 560.808C26.3718 561.299 26.2385 561.896 26.2385 562.6C26.2385 563.315 26.3665 563.917 26.6225 564.408C26.8892 564.899 27.2412 565.267 27.6785 565.512C28.1158 565.747 28.5958 565.864 29.1185 565.864ZM36.9849 559.656C37.2409 559.155 37.6035 558.765 38.0729 558.488C38.5529 558.211 39.1342 558.072 39.8169 558.072V559.576H39.4329C37.8009 559.576 36.9849 560.461 36.9849 562.232V567H35.5289V558.232H36.9849V559.656ZM49.4976 562.28C49.4976 562.557 49.4816 562.851 49.4496 563.16H42.4416C42.495 564.024 42.7883 564.701 43.3216 565.192C43.8656 565.672 44.5216 565.912 45.2896 565.912C45.919 565.912 46.4416 565.768 46.8576 565.48C47.2843 565.181 47.583 564.787 47.7536 564.296H49.3216C49.087 565.139 48.6176 565.827 47.9136 566.36C47.2096 566.883 46.335 567.144 45.2896 567.144C44.4576 567.144 43.711 566.957 43.0496 566.584C42.399 566.211 41.887 565.683 41.5136 565C41.1403 564.307 40.9536 563.507 40.9536 562.6C40.9536 561.693 41.135 560.899 41.4976 560.216C41.8603 559.533 42.367 559.011 43.0176 558.648C43.679 558.275 44.4363 558.088 45.2896 558.088C46.1216 558.088 46.8576 558.269 47.4976 558.632C48.1376 558.995 48.6283 559.496 48.9696 560.136C49.3216 560.765 49.4976 561.48 49.4976 562.28ZM47.9936 561.976C47.9936 561.421 47.871 560.947 47.6256 560.552C47.3803 560.147 47.0443 559.843 46.6176 559.64C46.2016 559.427 45.7376 559.32 45.2256 559.32C44.4896 559.32 43.8603 559.555 43.3376 560.024C42.8256 560.493 42.5323 561.144 42.4576 561.976H47.9936ZM55.6915 558.072C56.7582 558.072 57.6222 558.397 58.2835 559.048C58.9448 559.688 59.2755 560.616 59.2755 561.832V567H57.8355V562.04C57.8355 561.165 57.6168 560.499 57.1795 560.04C56.7422 559.571 56.1448 559.336 55.3875 559.336C54.6195 559.336 54.0062 559.576 53.5475 560.056C53.0995 560.536 52.8755 561.235 52.8755 562.152V567H51.4195V558.232H52.8755V559.48C53.1635 559.032 53.5528 558.685 54.0435 558.44C54.5448 558.195 55.0942 558.072 55.6915 558.072ZM64.7579 567.144C64.0859 567.144 63.4832 567.032 62.9499 566.808C62.4165 566.573 61.9952 566.253 61.6859 565.848C61.3765 565.432 61.2059 564.957 61.1739 564.424H62.6779C62.7205 564.861 62.9232 565.219 63.2859 565.496C63.6592 565.773 64.1445 565.912 64.7419 565.912C65.2965 565.912 65.7339 565.789 66.0539 565.544C66.3739 565.299 66.5339 564.989 66.5339 564.616C66.5339 564.232 66.3632 563.949 66.0219 563.768C65.6805 563.576 65.1525 563.389 64.4379 563.208C63.7872 563.037 63.2539 562.867 62.8379 562.696C62.4325 562.515 62.0805 562.253 61.7819 561.912C61.4939 561.56 61.3499 561.101 61.3499 560.536C61.3499 560.088 61.4832 559.677 61.7499 559.304C62.0165 558.931 62.3952 558.637 62.8859 558.424C63.3765 558.2 63.9365 558.088 64.5659 558.088C65.5365 558.088 66.3205 558.333 66.9179 558.824C67.5152 559.315 67.8352 559.987 67.8779 560.84H66.4219C66.3899 560.381 66.2032 560.013 65.8619 559.736C65.5312 559.459 65.0832 559.32 64.5179 559.32C63.9952 559.32 63.5792 559.432 63.2699 559.656C62.9605 559.88 62.8059 560.173 62.8059 560.536C62.8059 560.824 62.8965 561.064 63.0779 561.256C63.2699 561.437 63.5045 561.587 63.7819 561.704C64.0699 561.811 64.4645 561.933 64.9659 562.072C65.5952 562.243 66.1072 562.413 66.5019 562.584C66.8965 562.744 67.2325 562.989 67.5099 563.32C67.7979 563.651 67.9472 564.083 67.9579 564.616C67.9579 565.096 67.8245 565.528 67.5579 565.912C67.2912 566.296 66.9125 566.6 66.4219 566.824C65.9419 567.037 65.3872 567.144 64.7579 567.144ZM70.7653 556.808C70.4879 556.808 70.2533 556.712 70.0613 556.52C69.8693 556.328 69.7733 556.093 69.7733 555.816C69.7733 555.539 69.8693 555.304 70.0613 555.112C70.2533 554.92 70.4879 554.824 70.7653 554.824C71.0319 554.824 71.2559 554.92 71.4373 555.112C71.6293 555.304 71.7253 555.539 71.7253 555.816C71.7253 556.093 71.6293 556.328 71.4373 556.52C71.2559 556.712 71.0319 556.808 70.7653 556.808ZM71.4693 558.232V567H70.0133V558.232H71.4693ZM73.4068 562.6C73.4068 561.693 73.5881 560.904 73.9508 560.232C74.3134 559.549 74.8148 559.021 75.4548 558.648C76.1054 558.275 76.8468 558.088 77.6788 558.088C78.7561 558.088 79.6414 558.349 80.3348 558.872C81.0388 559.395 81.5028 560.12 81.7268 561.048H80.1588C80.0094 560.515 79.7161 560.093 79.2788 559.784C78.8521 559.475 78.3188 559.32 77.6788 559.32C76.8468 559.32 76.1748 559.608 75.6628 560.184C75.1508 560.749 74.8948 561.555 74.8948 562.6C74.8948 563.656 75.1508 564.472 75.6628 565.048C76.1748 565.624 76.8468 565.912 77.6788 565.912C78.3188 565.912 78.8521 565.763 79.2788 565.464C79.7054 565.165 79.9988 564.739 80.1588 564.184H81.7268C81.4921 565.08 81.0228 565.8 80.3188 566.344C79.6148 566.877 78.7348 567.144 77.6788 567.144C76.8468 567.144 76.1054 566.957 75.4548 566.584C74.8148 566.211 74.3134 565.683 73.9508 565C73.5881 564.317 73.4068 563.517 73.4068 562.6ZM86.7735 567.144C86.1015 567.144 85.4988 567.032 84.9655 566.808C84.4322 566.573 84.0108 566.253 83.7015 565.848C83.3922 565.432 83.2215 564.957 83.1895 564.424H84.6935C84.7362 564.861 84.9388 565.219 85.3015 565.496C85.6748 565.773 86.1602 565.912 86.7575 565.912C87.3122 565.912 87.7495 565.789 88.0695 565.544C88.3895 565.299 88.5495 564.989 88.5495 564.616C88.5495 564.232 88.3788 563.949 88.0375 563.768C87.6962 563.576 87.1682 563.389 86.4535 563.208C85.8028 563.037 85.2695 562.867 84.8535 562.696C84.4482 562.515 84.0962 562.253 83.7975 561.912C83.5095 561.56 83.3655 561.101 83.3655 560.536C83.3655 560.088 83.4988 559.677 83.7655 559.304C84.0322 558.931 84.4108 558.637 84.9015 558.424C85.3922 558.2 85.9522 558.088 86.5815 558.088C87.5522 558.088 88.3362 558.333 88.9335 558.824C89.5308 559.315 89.8508 559.987 89.8935 560.84H88.4375C88.4055 560.381 88.2188 560.013 87.8775 559.736C87.5468 559.459 87.0988 559.32 86.5335 559.32C86.0108 559.32 85.5948 559.432 85.2855 559.656C84.9762 559.88 84.8215 560.173 84.8215 560.536C84.8215 560.824 84.9122 561.064 85.0935 561.256C85.2855 561.437 85.5202 561.587 85.7975 561.704C86.0855 561.811 86.4802 561.933 86.9815 562.072C87.6108 562.243 88.1228 562.413 88.5175 562.584C88.9122 562.744 89.2482 562.989 89.5255 563.32C89.8135 563.651 89.9628 564.083 89.9735 564.616C89.9735 565.096 89.8402 565.528 89.5735 565.912C89.3068 566.296 88.9282 566.6 88.4375 566.824C87.9575 567.037 87.4028 567.144 86.7735 567.144Z" fill="#F2F5F8"/>
<rect x="106.5" y="545.5" width="64" height="31" rx="7.5" stroke="#F2F5F8"/>
<path d="M119.688 559.112C119.688 560.04 119.368 560.813 118.728 561.432C118.099 562.04 117.133 562.344 115.832 562.344H113.688V567H112.232V555.848H115.832C117.091 555.848 118.045 556.152 118.696 556.76C119.357 557.368 119.688 558.152 119.688 559.112ZM115.832 561.144C116.643 561.144 117.24 560.968 117.624 560.616C118.008 560.264 118.2 559.763 118.2 559.112C118.2 557.736 117.411 557.048 115.832 557.048H113.688V561.144H115.832ZM129.05 558.232L123.77 571.128H122.266L123.994 566.904L120.458 558.232H122.074L124.826 565.336L127.546 558.232H129.05ZM132.289 559.432V564.6C132.289 565.027 132.38 565.331 132.561 565.512C132.743 565.683 133.057 565.768 133.505 565.768H134.577V567H133.265C132.455 567 131.847 566.813 131.441 566.44C131.036 566.067 130.833 565.453 130.833 564.6V559.432H129.697V558.232H130.833V556.024H132.289V558.232H134.577V559.432H132.289ZM140.693 558.072C141.355 558.072 141.952 558.216 142.485 558.504C143.019 558.781 143.435 559.203 143.733 559.768C144.043 560.333 144.197 561.021 144.197 561.832V567H142.757V562.04C142.757 561.165 142.539 560.499 142.101 560.04C141.664 559.571 141.067 559.336 140.309 559.336C139.541 559.336 138.928 559.576 138.469 560.056C138.021 560.536 137.797 561.235 137.797 562.152V567H136.341V555.16H137.797V559.48C138.085 559.032 138.48 558.685 138.981 558.44C139.493 558.195 140.064 558.072 140.693 558.072ZM150.4 567.144C149.578 567.144 148.832 566.957 148.16 566.584C147.498 566.211 146.976 565.683 146.592 565C146.218 564.307 146.032 563.507 146.032 562.6C146.032 561.704 146.224 560.915 146.608 560.232C147.002 559.539 147.536 559.011 148.208 558.648C148.88 558.275 149.632 558.088 150.464 558.088C151.296 558.088 152.048 558.275 152.72 558.648C153.392 559.011 153.92 559.533 154.304 560.216C154.698 560.899 154.896 561.693 154.896 562.6C154.896 563.507 154.693 564.307 154.288 565C153.893 565.683 153.354 566.211 152.672 566.584C151.989 566.957 151.232 567.144 150.4 567.144ZM150.4 565.864C150.922 565.864 151.413 565.741 151.872 565.496C152.33 565.251 152.698 564.883 152.976 564.392C153.264 563.901 153.408 563.304 153.408 562.6C153.408 561.896 153.269 561.299 152.992 560.808C152.714 560.317 152.352 559.955 151.904 559.72C151.456 559.475 150.97 559.352 150.448 559.352C149.914 559.352 149.424 559.475 148.976 559.72C148.538 559.955 148.186 560.317 147.92 560.808C147.653 561.299 147.52 561.896 147.52 562.6C147.52 563.315 147.648 563.917 147.904 564.408C148.17 564.899 148.522 565.267 148.96 565.512C149.397 565.747 149.877 565.864 150.4 565.864ZM161.082 558.072C162.149 558.072 163.013 558.397 163.674 559.048C164.335 559.688 164.666 560.616 164.666 561.832V567H163.226V562.04C163.226 561.165 163.007 560.499 162.57 560.04C162.133 559.571 161.535 559.336 160.778 559.336C160.01 559.336 159.397 559.576 158.938 560.056C158.49 560.536 158.266 561.235 158.266 562.152V567H156.81V558.232H158.266V559.48C158.554 559.032 158.943 558.685 159.434 558.44C159.935 558.195 160.485 558.072 161.082 558.072Z" fill="#F2F5F8"/>
<rect x="181.5" y="545.5" width="78" height="31" rx="7.5" stroke="#F2F5F8"/>
<path d="M198.544 555.928V567H197.088V558.744L193.408 567H192.384L188.688 558.728V567H187.232V555.928H188.8L192.896 565.08L196.992 555.928H198.544ZM200.469 562.584C200.469 561.688 200.651 560.904 201.013 560.232C201.376 559.549 201.872 559.021 202.501 558.648C203.141 558.275 203.851 558.088 204.629 558.088C205.397 558.088 206.064 558.253 206.629 558.584C207.195 558.915 207.616 559.331 207.893 559.832V558.232H209.365V567H207.893V565.368C207.605 565.88 207.173 566.307 206.597 566.648C206.032 566.979 205.371 567.144 204.613 567.144C203.835 567.144 203.131 566.952 202.501 566.568C201.872 566.184 201.376 565.645 201.013 564.952C200.651 564.259 200.469 563.469 200.469 562.584ZM207.893 562.6C207.893 561.939 207.76 561.363 207.493 560.872C207.227 560.381 206.864 560.008 206.405 559.752C205.957 559.485 205.461 559.352 204.917 559.352C204.373 559.352 203.877 559.48 203.429 559.736C202.981 559.992 202.624 560.365 202.357 560.856C202.091 561.347 201.957 561.923 201.957 562.584C201.957 563.256 202.091 563.843 202.357 564.344C202.624 564.835 202.981 565.213 203.429 565.48C203.877 565.736 204.373 565.864 204.917 565.864C205.461 565.864 205.957 565.736 206.405 565.48C206.864 565.213 207.227 564.835 207.493 564.344C207.76 563.843 207.893 563.261 207.893 562.6ZM213.282 555.16V567H211.826V555.16H213.282ZM227.443 558.232L224.707 567H223.203L221.091 560.04L218.979 567H217.475L214.723 558.232H216.211L218.227 565.592L220.403 558.232H221.891L224.019 565.608L226.003 558.232H227.443ZM228.344 562.584C228.344 561.688 228.526 560.904 228.888 560.232C229.251 559.549 229.747 559.021 230.376 558.648C231.016 558.275 231.726 558.088 232.504 558.088C233.272 558.088 233.939 558.253 234.504 558.584C235.07 558.915 235.491 559.331 235.768 559.832V558.232H237.24V567H235.768V565.368C235.48 565.88 235.048 566.307 234.472 566.648C233.907 566.979 233.246 567.144 232.488 567.144C231.71 567.144 231.006 566.952 230.376 566.568C229.747 566.184 229.251 565.645 228.888 564.952C228.526 564.259 228.344 563.469 228.344 562.584ZM235.768 562.6C235.768 561.939 235.635 561.363 235.368 560.872C235.102 560.381 234.739 560.008 234.28 559.752C233.832 559.485 233.336 559.352 232.792 559.352C232.248 559.352 231.752 559.48 231.304 559.736C230.856 559.992 230.499 560.365 230.232 560.856C229.966 561.347 229.832 561.923 229.832 562.584C229.832 563.256 229.966 563.843 230.232 564.344C230.499 564.835 230.856 565.213 231.304 565.48C231.752 565.736 232.248 565.864 232.792 565.864C233.336 565.864 233.832 565.736 234.28 565.48C234.739 565.213 235.102 564.835 235.368 564.344C235.635 563.843 235.768 563.261 235.768 562.6ZM241.157 559.656C241.413 559.155 241.775 558.765 242.245 558.488C242.725 558.211 243.306 558.072 243.989 558.072V559.576H243.605C241.973 559.576 241.157 560.461 241.157 562.232V567H239.701V558.232H241.157V559.656ZM253.67 562.28C253.67 562.557 253.654 562.851 253.622 563.16H246.614C246.667 564.024 246.96 564.701 247.494 565.192C248.038 565.672 248.694 565.912 249.462 565.912C250.091 565.912 250.614 565.768 251.03 565.48C251.456 565.181 251.755 564.787 251.926 564.296H253.494C253.259 565.139 252.79 565.827 252.086 566.36C251.382 566.883 250.507 567.144 249.462 567.144C248.63 567.144 247.883 566.957 247.222 566.584C246.571 566.211 246.059 565.683 245.686 565C245.312 564.307 245.126 563.507 245.126 562.6C245.126 561.693 245.307 560.899 245.67 560.216C246.032 559.533 246.539 559.011 247.19 558.648C247.851 558.275 248.608 558.088 249.462 558.088C250.294 558.088 251.03 558.269 251.67 558.632C252.31 558.995 252.8 559.496 253.142 560.136C253.494 560.765 253.67 561.48 253.67 562.28ZM252.166 561.976C252.166 561.421 252.043 560.947 251.798 560.552C251.552 560.147 251.216 559.843 250.79 559.64C250.374 559.427 249.91 559.32 249.398 559.32C248.662 559.32 248.032 559.555 247.51 560.024C246.998 560.493 246.704 561.144 246.63 561.976H252.166Z" fill="#F2F5F8"/>
<rect x="270.5" y="545.5" width="88" height="31" rx="7.5" stroke="#F2F5F8"/>
<path d="M284.824 555.848V567H283.368V561.944H277.688V567H276.232V555.848H277.688V560.744H283.368V555.848H284.824ZM286.766 562.584C286.766 561.688 286.947 560.904 287.31 560.232C287.673 559.549 288.169 559.021 288.798 558.648C289.438 558.275 290.147 558.088 290.926 558.088C291.694 558.088 292.361 558.253 292.926 558.584C293.491 558.915 293.913 559.331 294.19 559.832V558.232H295.662V567H294.19V565.368C293.902 565.88 293.47 566.307 292.894 566.648C292.329 566.979 291.667 567.144 290.91 567.144C290.131 567.144 289.427 566.952 288.798 566.568C288.169 566.184 287.673 565.645 287.31 564.952C286.947 564.259 286.766 563.469 286.766 562.584ZM294.19 562.6C294.19 561.939 294.057 561.363 293.79 560.872C293.523 560.381 293.161 560.008 292.702 559.752C292.254 559.485 291.758 559.352 291.214 559.352C290.67 559.352 290.174 559.48 289.726 559.736C289.278 559.992 288.921 560.365 288.654 560.856C288.387 561.347 288.254 561.923 288.254 562.584C288.254 563.256 288.387 563.843 288.654 564.344C288.921 564.835 289.278 565.213 289.726 565.48C290.174 565.736 290.67 565.864 291.214 565.864C291.758 565.864 292.254 565.736 292.702 565.48C293.161 565.213 293.523 564.835 293.79 564.344C294.057 563.843 294.19 563.261 294.19 562.6ZM299.579 559.656C299.835 559.155 300.197 558.765 300.667 558.488C301.147 558.211 301.728 558.072 302.411 558.072V559.576H302.027C300.395 559.576 299.579 560.461 299.579 562.232V567H298.123V558.232H299.579V559.656ZM303.547 562.584C303.547 561.688 303.729 560.904 304.091 560.232C304.454 559.549 304.95 559.021 305.579 558.648C306.219 558.275 306.934 558.088 307.723 558.088C308.406 558.088 309.041 558.248 309.627 558.568C310.214 558.877 310.662 559.288 310.971 559.8V555.16H312.443V567H310.971V565.352C310.683 565.875 310.257 566.307 309.691 566.648C309.126 566.979 308.465 567.144 307.707 567.144C306.929 567.144 306.219 566.952 305.579 566.568C304.95 566.184 304.454 565.645 304.091 564.952C303.729 564.259 303.547 563.469 303.547 562.584ZM310.971 562.6C310.971 561.939 310.838 561.363 310.571 560.872C310.305 560.381 309.942 560.008 309.483 559.752C309.035 559.485 308.539 559.352 307.995 559.352C307.451 559.352 306.955 559.48 306.507 559.736C306.059 559.992 305.702 560.365 305.435 560.856C305.169 561.347 305.035 561.923 305.035 562.584C305.035 563.256 305.169 563.843 305.435 564.344C305.702 564.835 306.059 565.213 306.507 565.48C306.955 565.736 307.451 565.864 307.995 565.864C308.539 565.864 309.035 565.736 309.483 565.48C309.942 565.213 310.305 564.835 310.571 564.344C310.838 563.843 310.971 563.261 310.971 562.6ZM326.584 558.232L323.848 567H322.344L320.232 560.04L318.12 567H316.616L313.864 558.232H315.352L317.368 565.592L319.544 558.232H321.032L323.16 565.608L325.144 558.232H326.584ZM327.485 562.584C327.485 561.688 327.666 560.904 328.029 560.232C328.392 559.549 328.888 559.021 329.517 558.648C330.157 558.275 330.866 558.088 331.645 558.088C332.413 558.088 333.08 558.253 333.645 558.584C334.21 558.915 334.632 559.331 334.909 559.832V558.232H336.381V567H334.909V565.368C334.621 565.88 334.189 566.307 333.613 566.648C333.048 566.979 332.386 567.144 331.629 567.144C330.85 567.144 330.146 566.952 329.517 566.568C328.888 566.184 328.392 565.645 328.029 564.952C327.666 564.259 327.485 563.469 327.485 562.584ZM334.909 562.6C334.909 561.939 334.776 561.363 334.509 560.872C334.242 560.381 333.88 560.008 333.421 559.752C332.973 559.485 332.477 559.352 331.933 559.352C331.389 559.352 330.893 559.48 330.445 559.736C329.997 559.992 329.64 560.365 329.373 560.856C329.106 561.347 328.973 561.923 328.973 562.584C328.973 563.256 329.106 563.843 329.373 564.344C329.64 564.835 329.997 565.213 330.445 565.48C330.893 565.736 331.389 565.864 331.933 565.864C332.477 565.864 332.973 565.736 333.421 565.48C333.88 565.213 334.242 564.835 334.509 564.344C334.776 563.843 334.909 563.261 334.909 562.6ZM340.297 559.656C340.553 559.155 340.916 558.765 341.385 558.488C341.865 558.211 342.447 558.072 343.129 558.072V559.576H342.745C341.113 559.576 340.297 560.461 340.297 562.232V567H338.841V558.232H340.297V559.656ZM352.81 562.28C352.81 562.557 352.794 562.851 352.762 563.16H345.754C345.807 564.024 346.101 564.701 346.634 565.192C347.178 565.672 347.834 565.912 348.602 565.912C349.231 565.912 349.754 565.768 350.17 565.48C350.597 565.181 350.895 564.787 351.066 564.296H352.634C352.399 565.139 351.93 565.827 351.226 566.36C350.522 566.883 349.647 567.144 348.602 567.144C347.77 567.144 347.023 566.957 346.362 566.584C345.711 566.211 345.199 565.683 344.826 565C344.453 564.307 344.266 563.507 344.266 562.6C344.266 561.693 344.447 560.899 344.81 560.216C345.173 559.533 345.679 559.011 346.33 558.648C346.991 558.275 347.749 558.088 348.602 558.088C349.434 558.088 350.17 558.269 350.81 558.632C351.45 558.995 351.941 559.496 352.282 560.136C352.634 560.765 352.81 561.48 352.81 562.28ZM351.306 561.976C351.306 561.421 351.183 560.947 350.938 560.552C350.693 560.147 350.357 559.843 349.93 559.64C349.514 559.427 349.05 559.32 348.538 559.32C347.802 559.32 347.173 559.555 346.65 560.024C346.138 560.493 345.845 561.144 345.77 561.976H351.306Z" fill="#F2F5F8"/>
</svg>
