<svg width="450" height="600" viewBox="0 0 450 600" fill="none" xmlns="http://www.w3.org/2000/svg">
<rect width="450" height="600" fill="#282C33"/>
<path d="M217.313 169C152.619 169 100 221.62 100 286.313C100 351.006 152.619 403.626 217.313 403.626C282.006 403.626 334.626 351.006 334.626 286.313C334.626 221.62 282.006 169 217.313 169ZM223.193 185.607C253.267 187.327 279.749 202.155 297.067 224.48C292.496 224.361 287.946 224.335 283.416 224.402C275.552 224.532 267.694 224.948 259.86 225.65C258.419 222.677 256.17 220.169 253.371 218.414C250.571 216.658 247.334 215.727 244.03 215.726C243.211 215.726 242.393 215.783 241.582 215.897C236.074 205.436 229.932 195.321 223.193 185.607ZM208.932 185.795C217.465 197.453 224.863 209.288 231.193 221.286C228.838 223.798 227.272 226.945 226.688 230.338C215.743 232.472 204.913 235.158 194.24 238.386C192.912 236.59 191.254 235.064 189.355 233.888C193.782 218.086 199.976 202.075 207.895 185.872C208.24 185.841 208.587 185.825 208.932 185.795ZM193.822 188.192C187.206 202.657 181.927 217.068 177.999 231.387C175.623 231.672 173.33 232.439 171.261 233.64C169.191 234.841 167.388 236.452 165.963 238.374C155.376 234.999 144.654 232.065 133.824 229.58C147.958 208.781 169.359 194.019 193.822 188.192ZM290.307 236.098C295.216 236.129 300.147 236.286 305.105 236.544C311.032 246.981 315.035 258.398 316.923 270.25C302.728 272.559 288.909 275.757 275.455 279.788C274.003 277.99 272.211 276.495 270.18 275.389C268.15 274.284 265.922 273.589 263.623 273.345C261.361 264.342 258.607 255.47 255.371 246.769C258.281 244.314 260.316 240.981 261.171 237.271C270.789 236.436 280.495 236.035 290.307 236.098ZM127.526 240.232C139.497 242.867 151.177 245.948 162.516 249.568L162.518 249.639C147.249 255.91 132.235 263.305 117.473 271.78C119.051 260.779 122.448 250.118 127.526 240.232ZM228.636 241.837C230.157 244.587 232.387 246.88 235.093 248.476C237.8 250.073 240.885 250.916 244.027 250.917L244.501 250.906C247.568 259.119 250.181 267.496 252.328 275.996C251.447 276.555 250.617 277.191 249.848 277.897C233.303 267.113 215.836 257.815 197.651 250.11C197.665 249.91 197.676 249.71 197.684 249.51C207.867 246.434 218.196 243.873 228.636 241.837ZM166.885 260.469C168.179 261.94 169.709 263.185 171.413 264.152C168.522 286.773 169.163 309.076 173.574 330.894C163.178 338.495 153.163 346.603 143.565 355.19C126.729 337.173 116.424 312.98 116.424 286.313C116.424 286.203 116.433 286.097 116.433 285.987C132.967 276.053 149.773 267.522 166.882 260.471M192.975 260.844C210.9 268.418 228.1 277.604 244.363 288.288C244.237 289.135 244.172 289.99 244.17 290.846V290.956C223.148 299.696 203.078 310.618 183.937 323.602C180.629 304.837 180.277 285.71 182.748 266.25C186.669 265.652 190.273 263.747 192.975 260.844ZM318.092 281.947C318.153 283.394 318.202 284.849 318.202 286.313C318.219 300.603 315.193 314.732 309.326 327.762C299.451 317.246 288.894 307.393 277.724 298.265C278.8 295.952 279.361 293.432 279.367 290.881C292.075 287.095 305.009 284.111 318.092 281.947ZM248.131 301.958C250.663 305.066 254.181 307.217 258.102 308.053C260.669 331.302 259.886 355.133 255.916 379.567C243.674 384.621 230.557 387.216 217.313 387.202C213.845 387.202 210.423 387.031 207.048 386.688C197.635 370.114 190.838 353.207 186.567 335.993C206.107 322.33 226.602 310.946 248.131 301.958ZM269.672 306.791C281.728 316.617 293.05 327.31 303.547 338.787C294.926 352.928 282.963 364.736 268.71 373.171C271.725 350.643 272.089 328.489 269.672 306.791ZM176.502 343.289C180.233 357.116 185.498 370.734 192.346 384.098C177.516 380.329 163.743 373.22 152.08 363.315C160.05 356.229 168.189 349.542 176.502 343.289Z" fill="#F2F5F8"/>
<path d="M315.198 399.896H309.246L307.136 397.861C311.845 392.391 315.286 385.947 317.214 378.991C319.142 372.035 319.509 364.739 318.288 357.624C314.746 336.677 297.265 319.949 276.167 317.388C268.75 316.449 261.216 317.22 254.142 319.641C247.069 322.062 240.643 326.07 235.356 331.356C230.07 336.643 226.062 343.069 223.641 350.142C221.22 357.216 220.449 364.75 221.388 372.167C223.949 393.265 240.677 410.746 261.624 414.288C268.739 415.509 276.035 415.142 282.991 413.214C289.947 411.286 296.391 407.845 301.861 403.136L303.896 405.246V411.198L335.92 443.222C339.009 446.311 344.057 446.311 347.147 443.222C350.236 440.133 350.236 435.084 347.147 431.995L315.198 399.896ZM269.988 399.896C251.226 399.896 236.081 384.75 236.081 365.988C236.081 347.226 251.226 332.081 269.988 332.081C288.75 332.081 303.896 347.226 303.896 365.988C303.896 384.75 288.75 399.896 269.988 399.896Z" fill="#282C33"/>
<circle cx="270.464" cy="365.547" r="35" fill="#282C33"/>
<path d="M305.524 391.721H300.844L299.185 390.122C302.887 385.821 305.593 380.754 307.109 375.286C308.624 369.817 308.913 364.08 307.953 358.487C305.168 342.018 291.424 328.866 274.837 326.852C269.005 326.114 263.082 326.721 257.521 328.624C251.959 330.528 246.907 333.678 242.751 337.835C238.594 341.991 235.444 347.043 233.54 352.605C231.637 358.166 231.031 364.089 231.768 369.921C233.783 386.508 246.934 400.252 263.403 403.036C268.997 403.996 274.733 403.708 280.202 402.193C285.671 400.677 290.737 397.971 295.038 394.269L296.638 395.927V400.608L321.815 425.785C324.244 428.214 328.213 428.214 330.642 425.785C333.071 423.356 333.071 419.387 330.642 416.958L305.524 391.721ZM269.979 391.721C255.228 391.721 243.32 379.814 243.32 365.063C243.32 350.312 255.228 338.404 269.979 338.404C284.73 338.404 296.638 350.312 296.638 365.063C296.638 379.814 284.73 391.721 269.979 391.721Z" fill="#F2F5F8"/>
<path d="M149.062 90.64C148.502 90.64 147.982 90.5067 147.502 90.24C147.022 89.9733 146.635 89.5067 146.342 88.84C146.075 88.1733 145.995 87.24 146.102 86.04C145.169 82.8933 144.315 79.76 143.542 76.64C142.795 73.52 142.089 70.3067 141.422 67C140.462 69.1867 139.595 71.4267 138.822 73.72C138.049 75.9867 137.355 78.1333 136.742 80.16C136.129 82.16 135.569 83.84 135.062 85.2C134.662 86.4 134.262 87.2933 133.862 87.88C133.462 88.44 133.062 88.8 132.662 88.96C132.289 89.1467 131.915 89.24 131.542 89.24C130.635 89.24 129.942 89.0267 129.462 88.6C128.982 88.1733 128.742 87.4 128.742 86.28C128.742 85.6933 128.902 84.8 129.222 83.6C129.542 82.3733 129.969 80.9733 130.502 79.4C131.062 77.8 131.702 76.1333 132.422 74.4C133.142 72.64 133.902 70.9333 134.702 69.28C135.502 67.6267 136.302 66.1333 137.102 64.8C137.902 63.44 138.675 62.36 139.422 61.56C140.169 60.76 140.835 60.36 141.422 60.36C141.929 60.36 142.395 60.4133 142.822 60.52C143.249 60.6 143.662 60.84 144.062 61.24C144.462 61.6133 144.875 62.24 145.302 63.12C145.649 63.7867 145.995 64.7467 146.342 66C146.689 67.2267 147.022 68.64 147.342 70.24C147.662 71.8133 147.982 73.4667 148.302 75.2C148.649 76.9333 148.995 78.6267 149.342 80.28C150.355 75.6667 151.169 71.6133 151.782 68.12C152.422 64.6 152.889 61.84 153.182 59.84C153.475 57.84 153.635 56.7867 153.662 56.68C153.849 55.9067 154.049 55.3733 154.262 55.08C154.475 54.76 154.715 54.5733 154.982 54.52C155.249 54.44 155.555 54.4 155.902 54.4C155.929 54.4 155.942 54.4 155.942 54.4C156.635 54.4 157.315 54.68 157.982 55.24C158.675 55.8 159.022 56.56 159.022 57.52C159.022 57.84 158.955 58.56 158.822 59.68C158.689 60.7733 158.489 62.16 158.222 63.84C157.982 65.4933 157.662 67.3333 157.262 69.36C156.862 71.36 156.395 73.4533 155.862 75.64C155.355 77.8 154.782 79.9467 154.142 82.08C153.502 84.2133 152.795 86.2133 152.022 88.08C151.595 89.1467 151.089 89.84 150.502 90.16C149.942 90.48 149.462 90.64 149.062 90.64ZM218.85 68.96C218.85 69.3333 218.344 69.7467 217.33 70.2C216.317 70.6533 214.957 71.1333 213.25 71.64C211.57 72.12 209.69 72.6 207.61 73.08C205.53 73.5333 203.424 73.9467 201.29 74.32C200.544 76.8 199.81 79.3067 199.09 81.84C198.37 84.3467 197.744 86.6933 197.21 88.88C197.077 89.4667 196.77 89.9067 196.29 90.2C195.837 90.4933 195.344 90.64 194.81 90.64C194.144 90.64 193.597 90.4533 193.17 90.08C192.744 89.7333 192.53 89.28 192.53 88.72C192.53 87.76 192.797 86.2267 193.33 84.12C193.864 82.0133 194.504 79.6267 195.25 76.96C194.024 78.72 192.784 80.3333 191.53 81.8C190.277 83.2667 189.09 84.4667 187.97 85.4C186.21 86.84 184.384 87.9867 182.49 88.84C180.624 89.72 178.757 90.16 176.89 90.16C173.904 90.16 171.73 89.4133 170.37 87.92C169.01 86.4267 168.33 84.2133 168.33 81.28C168.33 79.6 168.517 77.9333 168.89 76.28C169.29 74.6 169.824 73.0267 170.49 71.56C171.157 70.0667 171.917 68.7467 172.77 67.6C173.624 66.4533 174.517 65.56 175.45 64.92C176.384 64.2533 177.317 63.92 178.25 63.92C180.544 63.92 182.21 64.5333 183.25 65.76C184.317 66.96 184.85 68.44 184.85 70.2C184.85 71.4 184.504 72.5467 183.81 73.64C183.144 74.7333 182.25 75.7467 181.13 76.68C180.01 77.5867 178.757 78.36 177.37 79C176.01 79.64 174.637 80.1067 173.25 80.4C173.25 80.5867 173.25 80.7867 173.25 81C173.25 82.7067 173.57 83.88 174.21 84.52C174.877 85.16 175.944 85.48 177.41 85.48C179.837 85.48 182.25 84.68 184.65 83.08C187.077 81.4533 189.477 78.9733 191.85 75.64C190.757 75.72 189.81 75.76 189.01 75.76C187.864 75.76 187.117 75.5867 186.77 75.24C186.45 74.8667 186.29 74.3467 186.29 73.68C186.29 73.4667 186.384 73.2133 186.57 72.92C186.784 72.6 187.037 72.32 187.33 72.08C187.65 71.8133 187.984 71.68 188.33 71.68C189.477 71.5733 190.584 71.4667 191.65 71.36C192.744 71.2533 193.784 71.1333 194.77 71C196.61 67.8533 198.397 64.2133 200.13 60.08C200.877 57.9733 201.65 56.2933 202.45 55.04C203.277 53.76 204.13 53.12 205.01 53.12C205.464 53.12 205.877 53.3067 206.25 53.68C206.65 54.0267 206.85 54.5867 206.85 55.36C206.85 55.7067 206.65 56.5733 206.25 57.96C205.877 59.32 205.37 61.04 204.73 63.12C204.09 65.2 203.397 67.4667 202.65 69.92C206.944 69.2267 210.264 68.6 212.61 68.04C214.957 67.4533 216.437 67.16 217.05 67.16C217.61 67.16 218.05 67.3467 218.37 67.72C218.69 68.0933 218.85 68.5067 218.85 68.96ZM173.81 76.44C174.85 75.88 175.85 75.24 176.81 74.52C177.77 73.7733 178.557 73.0267 179.17 72.28C179.784 71.5067 180.09 70.7733 180.09 70.08C180.09 69.4667 179.97 69.0267 179.73 68.76C179.517 68.4933 179.077 68.36 178.41 68.36C177.824 68.36 177.237 68.7467 176.65 69.52C176.064 70.2933 175.517 71.3067 175.01 72.56C174.53 73.7867 174.13 75.08 173.81 76.44ZM217.473 92.76C216.913 92.76 216.38 92.64 215.873 92.4C215.367 92.16 214.913 91.6933 214.513 91C214.113 90.3333 213.793 89.3467 213.553 88.04C213.313 86.7067 213.193 84.9467 213.193 82.76C213.193 80.7067 213.3 78.7467 213.513 76.88C213.727 74.9867 214.033 73.3067 214.433 71.84C214.833 70.3467 215.313 69.1733 215.873 68.32C216.433 67.44 217.06 67 217.753 67C218.367 67 218.873 67.2933 219.273 67.88C219.673 68.4667 219.873 69.3067 219.873 70.4C219.873 71.2533 219.767 72.3733 219.553 73.76C219.367 75.1467 219.14 76.64 218.873 78.24C218.607 79.8133 218.367 81.3467 218.153 82.84C217.967 84.3067 217.873 85.56 217.873 86.6C217.873 86.7867 217.9 86.9733 217.953 87.16C218.007 87.32 218.087 87.4 218.193 87.4C218.353 87.4 218.62 87.0133 218.993 86.24C219.367 85.4667 219.82 84.4533 220.353 83.2C220.913 81.92 221.513 80.5333 222.153 79.04C222.82 77.5467 223.513 76.08 224.233 74.64C224.98 73.1733 225.727 71.8667 226.473 70.72C227.113 69.7333 227.873 68.9733 228.753 68.44C229.633 67.9067 230.447 67.64 231.193 67.64C231.86 67.64 232.513 67.8133 233.153 68.16C233.82 68.5067 234.367 69.0267 234.793 69.72C235.22 70.4133 235.433 71.28 235.433 72.32C235.433 72.72 235.38 73.3867 235.273 74.32C235.193 75.2267 235.087 76.2667 234.953 77.44C234.82 78.5867 234.687 79.7467 234.553 80.92C234.42 82.0667 234.3 83.0933 234.193 84C234.113 84.9067 234.073 85.5467 234.073 85.92C234.073 85.9733 234.073 86.04 234.073 86.12C234.073 86.4133 234.087 86.7067 234.113 87C234.14 87.2667 234.22 87.4 234.353 87.4C234.647 87.4 235.02 87.0667 235.473 86.4C235.953 85.7067 236.487 84.7867 237.073 83.64C237.687 82.4933 238.327 81.2133 238.993 79.8C239.66 78.3867 240.34 76.9333 241.033 75.44C241.753 73.92 242.46 72.48 243.153 71.12C243.687 69.9733 244.14 69.2533 244.513 68.96C244.887 68.64 245.247 68.48 245.593 68.48C246.073 68.48 246.58 68.72 247.113 69.2C247.647 69.68 247.913 70.4267 247.913 71.44C247.913 71.7867 247.9 72.1333 247.873 72.48C247.847 72.8267 247.753 73.1867 247.593 73.56C246.527 76.2533 245.42 78.7467 244.273 81.04C243.153 83.3067 242.033 85.28 240.913 86.96C239.793 88.64 238.713 89.9467 237.673 90.88C236.633 91.8133 235.66 92.28 234.753 92.28C232.887 92.28 231.447 91.7867 230.433 90.8C229.447 89.7867 228.953 88.4267 228.953 86.72C228.953 86.08 228.993 85.2667 229.073 84.28C229.153 83.2667 229.247 82.1733 229.353 81C229.487 79.8 229.62 78.6133 229.753 77.44C229.887 76.2667 230.02 75.1867 230.153 74.2C230.207 73.8267 230.14 73.5867 229.953 73.48C229.793 73.3733 229.647 73.4933 229.513 73.84C229.167 74.7467 228.793 75.7333 228.393 76.8C227.993 77.8667 227.62 78.8 227.273 79.6C226.713 80.9333 226.06 82.36 225.313 83.88C224.593 85.4 223.807 86.84 222.953 88.2C222.1 89.5333 221.207 90.6267 220.273 91.48C219.34 92.3333 218.407 92.76 217.473 92.76ZM257.527 89.32C255.633 89.32 254.113 88.6533 252.967 87.32C251.82 85.96 251.247 84.1467 251.247 81.88C251.247 81.16 251.34 80.4267 251.527 79.68C251.74 78.9333 251.993 78.24 252.287 77.6C252.127 77.36 251.993 77.0533 251.887 76.68C251.807 76.28 251.767 75.8133 251.767 75.28C251.767 73.5467 252.073 71.96 252.687 70.52C253.3 69.0533 254.127 67.7867 255.167 66.72C256.207 65.6533 257.353 64.8267 258.607 64.24C259.86 63.6533 261.127 63.36 262.407 63.36C264.593 63.36 266.38 64.0933 267.767 65.56C269.18 67.0267 269.887 69.3067 269.887 72.4C269.887 73.9467 269.647 75.52 269.167 77.12C268.687 78.72 268.033 80.2533 267.207 81.72C266.407 83.16 265.473 84.4533 264.407 85.6C263.367 86.7467 262.247 87.6533 261.047 88.32C259.873 88.9867 258.7 89.32 257.527 89.32ZM256.887 75.8C257.02 76.0933 257.087 76.44 257.087 76.84C257.087 77.24 257.007 77.6533 256.847 78.08C256.687 78.5067 256.527 79.08 256.367 79.8C256.207 80.4933 256.127 81.4933 256.127 82.8C256.127 83.1467 256.167 83.44 256.247 83.68C256.353 83.8933 256.58 84 256.927 84C257.833 84 258.687 83.7067 259.487 83.12C260.313 82.5333 261.047 81.76 261.687 80.8C262.353 79.84 262.913 78.7733 263.367 77.6C263.847 76.4 264.207 75.1867 264.447 73.96C264.713 72.7067 264.847 71.5467 264.847 70.48C264.847 69.7867 264.713 69.3067 264.447 69.04C264.18 68.7733 263.713 68.64 263.047 68.64C262.14 68.64 261.207 68.9333 260.247 69.52C259.313 70.08 258.527 70.8533 257.887 71.84C257.247 72.8 256.927 73.8933 256.927 75.12C256.927 75.36 256.913 75.5867 256.887 75.8ZM276.089 89.76C275.422 89.76 274.849 89.52 274.369 89.04C273.915 88.56 273.689 87.8667 273.689 86.96C273.689 86.56 273.742 85.9067 273.849 85C273.982 84.0667 274.142 83 274.329 81.8C274.542 80.6 274.742 79.3467 274.929 78.04C275.142 76.7333 275.315 75.4933 275.449 74.32C275.609 73.1467 275.715 72.1467 275.769 71.32C275.822 70.3067 276.089 69.5867 276.569 69.16C277.049 68.7067 277.622 68.48 278.289 68.48C278.822 68.48 279.302 68.6133 279.729 68.88C280.182 69.12 280.462 69.64 280.569 70.44C280.702 71.2133 280.715 72.3333 280.609 73.8C281.782 71.6667 282.969 69.76 284.169 68.08C285.395 66.4 286.675 65.0667 288.009 64.08C290.222 62.4 292.222 61.56 294.009 61.56C295.022 61.56 295.689 61.7867 296.009 62.24C296.329 62.6933 296.489 63.16 296.489 63.64C296.489 63.96 296.409 64.2533 296.249 64.52C296.115 64.7867 295.822 65.0667 295.369 65.36C294.915 65.6533 294.222 66.04 293.289 66.52C292.035 67.16 290.795 68 289.569 69.04C288.369 70.08 287.169 71.4133 285.969 73.04C284.769 74.6667 283.555 76.6667 282.329 79.04C281.102 81.4133 279.835 84.24 278.529 87.52C278.289 88.4267 277.942 89.0267 277.489 89.32C277.062 89.6133 276.595 89.76 276.089 89.76ZM317.014 90.92C315.201 90.92 313.521 90.5333 311.974 89.76C310.428 89.0133 309.014 88.0267 307.734 86.8C306.454 85.5467 305.308 84.1867 304.294 82.72C303.308 81.2267 302.468 79.76 301.774 78.32C301.454 79.7867 301.161 81.04 300.894 82.08C300.654 83.12 300.454 83.9867 300.294 84.68C300.161 85.2133 300.014 85.7333 299.854 86.24C299.721 86.7467 299.508 87.16 299.214 87.48C298.921 87.8 298.508 87.96 297.974 87.96C296.828 87.96 296.094 87.5733 295.774 86.8C295.454 86 295.294 84.9867 295.294 83.76C295.294 82.6667 295.468 81.2267 295.814 79.44C296.188 77.6533 296.681 75.6533 297.294 73.44C297.908 71.2267 298.614 68.9467 299.414 66.6C300.241 64.2267 301.121 61.92 302.054 59.68C302.988 57.4133 303.921 55.36 304.854 53.52C305.441 52.4 305.961 51.6933 306.414 51.4C306.868 51.08 307.401 50.92 308.014 50.92C308.628 50.92 309.094 51.08 309.414 51.4C309.734 51.72 309.894 52.1467 309.894 52.68C309.894 53.0267 309.814 53.3733 309.654 53.72C309.494 54.0667 309.321 54.4933 309.134 55C308.521 56.36 307.881 57.9467 307.214 59.76C306.548 61.5467 305.908 63.4 305.294 65.32C304.681 67.2133 304.134 69.0133 303.654 70.72C304.961 69.9467 306.414 69.2 308.014 68.48C309.614 67.7333 311.228 67.0667 312.854 66.48C314.508 65.8667 316.054 65.3867 317.494 65.04C318.934 64.6933 320.148 64.52 321.134 64.52C321.908 64.52 322.494 64.7467 322.894 65.2C323.294 65.6533 323.494 66.1467 323.494 66.68C323.494 67.08 323.374 67.48 323.134 67.88C322.894 68.28 322.388 68.6267 321.614 68.92C319.054 69.7733 316.508 70.64 313.974 71.52C311.468 72.4 308.681 73.44 305.614 74.64C306.254 75.8933 307.001 77.1867 307.854 78.52C308.708 79.8267 309.628 81.0533 310.614 82.2C311.601 83.32 312.614 84.24 313.654 84.96C314.694 85.6533 315.721 86 316.734 86C318.228 86 319.668 85.7067 321.054 85.12C322.441 84.5067 323.721 83.7733 324.894 82.92C326.068 82.04 327.094 81.1867 327.974 80.36C328.881 79.5333 329.588 78.8933 330.094 78.44C330.388 78.1467 330.668 77.9333 330.934 77.8C331.228 77.6667 331.588 77.6 332.014 77.6C332.521 77.6 332.908 77.76 333.174 78.08C333.468 78.3733 333.601 78.76 333.574 79.24C333.548 79.6933 333.321 80.1467 332.894 80.6C332.548 80.9733 332.001 81.5733 331.254 82.4C330.534 83.2 329.654 84.0933 328.614 85.08C327.601 86.04 326.468 86.9733 325.214 87.88C323.988 88.76 322.681 89.48 321.294 90.04C319.908 90.6267 318.481 90.92 317.014 90.92ZM137.239 144.56C136.172 144.56 135.372 144.267 134.839 143.68C134.306 143.093 134.039 142.493 134.039 141.88C134.039 141.16 134.172 140.613 134.439 140.24C134.706 139.867 135.226 139.587 135.999 139.4C137.012 139.187 138.066 138.92 139.159 138.6C140.279 138.28 141.346 137.947 142.359 137.6C143.399 137.227 144.306 136.853 145.079 136.48C145.852 136.08 146.412 135.707 146.759 135.36C146.332 135.12 145.652 134.84 144.719 134.52C143.786 134.173 142.746 133.773 141.599 133.32C140.479 132.84 139.399 132.28 138.359 131.64C137.319 131 136.466 130.253 135.799 129.4C135.132 128.547 134.799 127.573 134.799 126.48C134.799 124.96 135.186 123.533 135.959 122.2C136.732 120.867 137.759 119.627 139.039 118.48C140.319 117.333 141.706 116.28 143.199 115.32C144.719 114.36 146.226 113.493 147.719 112.72C149.239 111.92 150.599 111.213 151.799 110.6C152.252 110.333 152.679 110.16 153.079 110.08C153.506 109.973 153.892 109.92 154.239 109.92C155.439 109.92 156.266 110.213 156.719 110.8C157.172 111.387 157.399 111.987 157.399 112.6C157.399 113.027 157.199 113.533 156.799 114.12C156.399 114.68 155.759 115.2 154.879 115.68C154.026 116.16 152.892 116.507 151.479 116.72C151.239 116.747 151.026 116.773 150.839 116.8C149.772 117.333 148.626 117.973 147.399 118.72C146.172 119.467 145.012 120.253 143.919 121.08C142.852 121.88 141.972 122.68 141.279 123.48C140.586 124.28 140.239 125 140.239 125.64C140.239 126.36 140.532 127.013 141.119 127.6C141.706 128.16 142.452 128.68 143.359 129.16C144.292 129.613 145.266 130.053 146.279 130.48C147.319 130.907 148.292 131.347 149.199 131.8C150.132 132.227 150.892 132.707 151.479 133.24C152.066 133.773 152.359 134.373 152.359 135.04C152.359 135.947 152.052 136.813 151.439 137.64C150.826 138.467 150.026 139.24 149.039 139.96C148.052 140.653 146.972 141.28 145.799 141.84C144.626 142.4 143.466 142.88 142.319 143.28C141.199 143.707 140.186 144.027 139.279 144.24C138.372 144.453 137.692 144.56 137.239 144.56ZM166.033 144.12C164.54 144.12 163.247 143.773 162.153 143.08C161.06 142.413 160.22 141.547 159.633 140.48C159.047 139.387 158.753 138.267 158.753 137.12C158.753 135.2 159.047 133.427 159.633 131.8C160.22 130.147 160.993 128.653 161.953 127.32C162.913 125.96 163.953 124.76 165.073 123.72C166.22 122.68 167.327 121.813 168.393 121.12C169.487 120.4 170.46 119.867 171.313 119.52C172.167 119.147 172.793 118.96 173.193 118.96C173.913 118.96 174.42 119.12 174.713 119.44C175.033 119.733 175.193 120.227 175.193 120.92C175.193 121.32 174.9 121.8 174.313 122.36C173.753 122.92 173.007 123.56 172.073 124.28C171.167 125 170.207 125.813 169.193 126.72C168.18 127.627 167.207 128.64 166.273 129.76C165.367 130.88 164.62 132.107 164.033 133.44C163.473 134.773 163.193 136.227 163.193 137.8C163.193 138.387 163.3 138.84 163.513 139.16C163.753 139.48 164.14 139.64 164.673 139.64C166.193 139.64 167.82 139.373 169.553 138.84C171.313 138.28 173.06 137.587 174.793 136.76C176.553 135.907 178.207 135.027 179.753 134.12C181.327 133.213 182.673 132.4 183.793 131.68C184.247 131.36 184.633 131.107 184.953 130.92C185.273 130.733 185.5 130.64 185.633 130.64C186.433 130.64 186.833 131.053 186.833 131.88C186.833 132.307 186.513 132.88 185.873 133.6C185.127 134.533 184.113 135.493 182.833 136.48C181.58 137.467 180.18 138.413 178.633 139.32C177.113 140.227 175.553 141.04 173.953 141.76C172.38 142.48 170.9 143.053 169.513 143.48C168.127 143.907 166.967 144.12 166.033 144.12ZM186.086 143.16C184.406 143.16 183.18 142.653 182.406 141.64C181.66 140.6 181.286 139.28 181.286 137.68C181.286 136.16 181.62 134.693 182.286 133.28C182.953 131.84 183.846 130.467 184.966 129.16C186.086 127.853 187.34 126.64 188.726 125.52C190.113 124.373 191.513 123.347 192.926 122.44C194.366 121.507 195.74 120.72 197.046 120.08C198.353 119.413 199.486 118.907 200.446 118.56C201.406 118.213 202.1 118.04 202.526 118.04C202.98 118.04 203.353 118.16 203.646 118.4C203.966 118.613 204.126 119.04 204.126 119.68C204.126 120.347 203.86 120.947 203.326 121.48C202.793 122.013 202.14 122.467 201.366 122.84C200.273 123.373 199.033 124.027 197.646 124.8C196.286 125.547 194.913 126.4 193.526 127.36C192.14 128.32 190.86 129.347 189.686 130.44C188.54 131.533 187.606 132.68 186.886 133.88C186.166 135.053 185.806 136.253 185.806 137.48C185.806 137.747 185.86 137.96 185.966 138.12C186.073 138.28 186.3 138.36 186.646 138.36C187.1 138.36 187.7 138.147 188.446 137.72C189.193 137.267 190.006 136.68 190.886 135.96C191.766 135.213 192.646 134.4 193.526 133.52C194.406 132.613 195.22 131.707 195.966 130.8C196.74 129.867 197.38 129 197.886 128.2C198.26 127.587 198.7 127.08 199.206 126.68C199.74 126.28 200.286 126.08 200.846 126.08C201.3 126.08 201.673 126.213 201.966 126.48C202.286 126.72 202.446 127.16 202.446 127.8C202.446 128.013 202.433 128.52 202.406 129.32C202.38 130.093 202.34 131.04 202.286 132.16C202.26 133.253 202.246 134.4 202.246 135.6C202.246 136.64 202.34 137.547 202.526 138.32C202.74 139.067 203.18 139.44 203.846 139.44C204.646 139.44 205.473 139.16 206.326 138.6C207.18 138.013 208.006 137.28 208.806 136.4C209.633 135.493 210.393 134.533 211.086 133.52C211.78 132.507 212.366 131.547 212.846 130.64C213.353 129.707 213.713 128.96 213.926 128.4C214.273 126.053 214.726 124.213 215.286 122.88C215.846 121.52 216.46 120.56 217.126 120C217.82 119.44 218.486 119.16 219.126 119.16C219.846 119.16 220.446 119.333 220.926 119.68C221.433 120.027 221.686 120.84 221.686 122.12C221.686 122.787 221.406 123.787 220.846 125.12C220.286 126.453 219.54 127.92 218.606 129.52C218.393 130.72 218.26 131.96 218.206 133.24C218.153 134.52 218.233 135.72 218.446 136.84C219.166 136.333 219.9 135.587 220.646 134.6C221.393 133.587 222.14 132.467 222.886 131.24C223.633 129.987 224.38 128.733 225.126 127.48C225.873 126.2 226.606 125.027 227.326 123.96C228.073 122.893 228.793 122.04 229.486 121.4C230.206 120.733 230.913 120.4 231.606 120.4C232.326 120.4 232.98 120.533 233.566 120.8C234.18 121.04 234.686 121.52 235.086 122.24C235.513 122.933 235.833 123.933 236.046 125.24C236.286 126.52 236.406 128.2 236.406 130.28C236.406 131.373 236.513 132.44 236.726 133.48C236.94 134.493 237.3 135.333 237.806 136C238.313 136.64 239.02 136.96 239.926 136.96C241.393 136.96 242.7 136.72 243.846 136.24C244.993 135.733 245.993 135.147 246.846 134.48C247.7 133.813 248.406 133.24 248.966 132.76C249.553 132.253 250.006 132 250.326 132C250.86 132 251.26 132.16 251.526 132.48C251.82 132.773 251.966 133.147 251.966 133.6C251.966 133.867 251.74 134.333 251.286 135C250.86 135.64 250.26 136.36 249.486 137.16C248.74 137.933 247.86 138.693 246.846 139.44C245.86 140.16 244.806 140.76 243.686 141.24C242.566 141.72 241.433 141.96 240.286 141.96C238.206 141.96 236.486 141.587 235.126 140.84C233.793 140.067 232.793 138.787 232.126 137C231.486 135.187 231.166 132.747 231.166 129.68C231.166 129.493 231.166 129.32 231.166 129.16C231.166 129 231.166 128.84 231.166 128.68C231.166 128.013 231.153 127.44 231.126 126.96C231.126 126.48 231.06 126.107 230.926 125.84C230.5 126.56 229.98 127.467 229.366 128.56C228.78 129.653 228.126 130.827 227.406 132.08C226.686 133.333 225.913 134.573 225.086 135.8C224.286 137.027 223.473 138.147 222.646 139.16C221.82 140.173 220.993 140.987 220.166 141.6C219.366 142.213 218.606 142.52 217.886 142.52C217.353 142.52 216.766 142.253 216.126 141.72C215.513 141.187 214.993 140.467 214.566 139.56C214.14 138.627 213.926 137.573 213.926 136.4C212.78 137.84 211.593 139.16 210.366 140.36C209.14 141.533 207.926 142.467 206.726 143.16C205.553 143.88 204.433 144.24 203.366 144.24C202.486 144.24 201.633 143.987 200.806 143.48C200.006 142.973 199.313 142.067 198.726 140.76C198.14 139.453 197.766 137.6 197.606 135.2C196.353 136.773 195.046 138.16 193.686 139.36C192.353 140.56 191.033 141.493 189.726 142.16C188.446 142.827 187.233 143.16 186.086 143.16ZM251.751 143C251.111 143 250.471 142.787 249.831 142.36C249.218 141.907 248.711 141.267 248.311 140.44C247.911 139.587 247.711 138.56 247.711 137.36C247.711 135.76 247.925 134.053 248.351 132.24C248.805 130.427 249.351 128.613 249.991 126.8C250.631 124.987 251.258 123.28 251.871 121.68C252.165 120.907 252.525 120.387 252.951 120.12C253.378 119.827 253.938 119.68 254.631 119.68C256.205 119.68 256.991 120.467 256.991 122.04C256.991 122.307 256.871 122.827 256.631 123.6C256.391 124.347 256.071 125.267 255.671 126.36C255.298 127.453 254.898 128.64 254.471 129.92C254.071 131.173 253.698 132.453 253.351 133.76C253.031 135.04 252.778 136.253 252.591 137.4C253.205 136.467 253.885 135.307 254.631 133.92C255.405 132.507 256.218 131.027 257.071 129.48C257.951 127.933 258.831 126.493 259.711 125.16C260.591 123.8 261.458 122.693 262.311 121.84C263.165 120.987 263.978 120.56 264.751 120.56C265.418 120.56 266.045 120.693 266.631 120.96C267.245 121.2 267.778 121.68 268.231 122.4C268.685 123.093 269.031 124.093 269.271 125.4C269.538 126.707 269.671 128.427 269.671 130.56C269.671 131.627 269.765 132.667 269.951 133.68C270.165 134.667 270.511 135.493 270.991 136.16C271.471 136.8 272.151 137.12 273.031 137.12C274.551 137.12 275.911 136.84 277.111 136.28C278.311 135.72 279.365 135.067 280.271 134.32C281.178 133.573 281.938 132.92 282.551 132.36C282.925 131.987 283.245 131.693 283.511 131.48C283.805 131.267 284.045 131.16 284.231 131.16C284.791 131.16 285.191 131.307 285.431 131.6C285.698 131.893 285.831 132.293 285.831 132.8C285.831 133.067 285.605 133.56 285.151 134.28C284.698 135 284.058 135.827 283.231 136.76C282.431 137.667 281.511 138.547 280.471 139.4C279.431 140.253 278.311 140.96 277.111 141.52C275.911 142.08 274.685 142.36 273.431 142.36C271.325 142.36 269.578 141.987 268.191 141.24C266.831 140.467 265.818 139.187 265.151 137.4C264.485 135.587 264.151 133.12 264.151 130C264.151 129.92 264.151 129.787 264.151 129.6C264.151 128.773 264.138 128.04 264.111 127.4C264.111 126.76 264.071 126.24 263.991 125.84C263.538 126.667 262.991 127.653 262.351 128.8C261.738 129.947 261.071 131.173 260.351 132.48C259.631 133.76 258.885 135.027 258.111 136.28C257.338 137.507 256.565 138.627 255.791 139.64C255.045 140.653 254.325 141.467 253.631 142.08C252.938 142.693 252.311 143 251.751 143ZM299.793 125.68C299.793 127.413 298.806 129.133 296.833 130.84C294.886 132.52 291.859 134.013 287.753 135.32C287.753 135.347 287.753 135.387 287.753 135.44C287.753 136.32 287.859 137.027 288.073 137.56C288.286 138.067 288.753 138.32 289.473 138.32C290.539 138.32 291.726 138 293.033 137.36C294.366 136.693 295.739 135.853 297.153 134.84C298.593 133.8 299.993 132.707 301.353 131.56C302.713 130.413 303.966 129.333 305.113 128.32C306.286 127.28 307.273 126.44 308.073 125.8C308.899 125.133 309.446 124.8 309.713 124.8C310.273 124.8 310.739 125.013 311.113 125.44C311.513 125.867 311.713 126.507 311.713 127.36C311.713 127.84 311.686 128.413 311.633 129.08C312.806 127.053 314.166 125.387 315.713 124.08C317.259 122.747 318.779 121.76 320.273 121.12C321.793 120.453 323.086 120.12 324.153 120.12C325.353 120.12 326.166 120.36 326.593 120.84C327.019 121.293 327.233 121.773 327.233 122.28C327.233 122.573 327.166 122.867 327.033 123.16C326.926 123.427 326.633 123.72 326.153 124.04C325.699 124.36 324.939 124.733 323.873 125.16C322.459 125.693 321.113 126.32 319.833 127.04C318.579 127.76 317.419 128.747 316.353 130C315.313 131.227 314.366 132.88 313.513 134.96C312.686 137.013 311.993 139.653 311.433 142.88C311.246 143.787 310.953 144.4 310.553 144.72C310.153 145.067 309.686 145.24 309.153 145.24C309.099 145.24 309.006 145.24 308.873 145.24C308.633 145.267 308.379 145.24 308.113 145.16C307.873 145.107 307.633 144.88 307.393 144.48C307.179 144.107 307.006 143.453 306.873 142.52C306.739 141.587 306.673 140.253 306.673 138.52C306.673 137.48 306.713 136.387 306.793 135.24C306.899 134.067 307.033 132.853 307.193 131.6C305.833 132.933 304.379 134.28 302.833 135.64C301.286 137 299.686 138.253 298.033 139.4C296.406 140.52 294.806 141.427 293.233 142.12C291.686 142.813 290.246 143.16 288.913 143.16C287.126 143.16 285.659 142.587 284.513 141.44C283.393 140.267 282.833 138.467 282.833 136.04C282.833 133.64 283.153 131.467 283.793 129.52C284.459 127.547 285.313 125.853 286.353 124.44C287.393 123.027 288.499 121.947 289.673 121.2C290.873 120.427 291.993 120.04 293.033 120.04C295.246 120.04 296.926 120.573 298.073 121.64C299.219 122.68 299.793 124.027 299.793 125.68ZM288.273 131.76C288.966 131.413 289.699 131.013 290.473 130.56C291.273 130.08 292.019 129.587 292.713 129.08C293.406 128.547 293.966 128.027 294.393 127.52C294.846 127.013 295.073 126.533 295.073 126.08C295.073 125.333 294.859 124.88 294.433 124.72C294.033 124.533 293.486 124.44 292.793 124.44C292.073 124.44 291.419 124.827 290.833 125.6C290.246 126.347 289.739 127.28 289.313 128.4C288.886 129.52 288.539 130.64 288.273 131.76Z" fill="#F2F5F8"/>
<path d="M30.32 534H25.532L17.524 521.876V534H12.736V514.344H17.524L25.532 526.524V514.344H30.32V534ZM48.5187 525.936C48.5187 526.384 48.4907 526.851 48.4347 527.336H37.5987C37.6734 528.307 37.9814 529.053 38.5227 529.576C39.0827 530.08 39.764 530.332 40.5667 530.332C41.7614 530.332 42.592 529.828 43.0587 528.82H48.1547C47.8934 529.847 47.4174 530.771 46.7267 531.592C46.0547 532.413 45.2054 533.057 44.1787 533.524C43.152 533.991 42.004 534.224 40.7347 534.224C39.204 534.224 37.8414 533.897 36.6467 533.244C35.452 532.591 34.5187 531.657 33.8467 530.444C33.1747 529.231 32.8387 527.812 32.8387 526.188C32.8387 524.564 33.1654 523.145 33.8187 521.932C34.4907 520.719 35.424 519.785 36.6187 519.132C37.8134 518.479 39.1854 518.152 40.7347 518.152C42.2467 518.152 43.5907 518.469 44.7667 519.104C45.9427 519.739 46.8574 520.644 47.5107 521.82C48.1827 522.996 48.5187 524.368 48.5187 525.936ZM43.6187 524.676C43.6187 523.855 43.3387 523.201 42.7787 522.716C42.2187 522.231 41.5187 521.988 40.6787 521.988C39.876 521.988 39.1947 522.221 38.6347 522.688C38.0934 523.155 37.7574 523.817 37.6267 524.676H43.6187ZM59.7526 529.94V534H57.3166C55.5806 534 54.2273 533.58 53.2566 532.74C52.2859 531.881 51.8006 530.491 51.8006 528.568V522.352H49.8966V518.376H51.8006V514.568H56.5886V518.376H59.7246V522.352H56.5886V528.624C56.5886 529.091 56.7006 529.427 56.9246 529.632C57.1486 529.837 57.5219 529.94 58.0446 529.94H59.7526ZM84.8476 518.376L80.6196 534H75.3276L72.8636 523.864L70.3156 534H65.0516L60.7956 518.376H65.5836L67.7956 529.548L70.4276 518.376H75.4956L78.1556 529.492L80.3396 518.376H84.8476ZM93.7855 534.224C92.2548 534.224 90.8735 533.897 89.6415 533.244C88.4282 532.591 87.4668 531.657 86.7575 530.444C86.0668 529.231 85.7215 527.812 85.7215 526.188C85.7215 524.583 86.0762 523.173 86.7855 521.96C87.4948 520.728 88.4655 519.785 89.6975 519.132C90.9295 518.479 92.3108 518.152 93.8415 518.152C95.3722 518.152 96.7535 518.479 97.9855 519.132C99.2175 519.785 100.188 520.728 100.898 521.96C101.607 523.173 101.962 524.583 101.962 526.188C101.962 527.793 101.598 529.212 100.87 530.444C100.16 531.657 99.1802 532.591 97.9295 533.244C96.6975 533.897 95.3162 534.224 93.7855 534.224ZM93.7855 530.08C94.7002 530.08 95.4748 529.744 96.1095 529.072C96.7628 528.4 97.0895 527.439 97.0895 526.188C97.0895 524.937 96.7722 523.976 96.1375 523.304C95.5215 522.632 94.7562 522.296 93.8415 522.296C92.9082 522.296 92.1335 522.632 91.5175 523.304C90.9015 523.957 90.5935 524.919 90.5935 526.188C90.5935 527.439 90.8922 528.4 91.4895 529.072C92.1055 529.744 92.8708 530.08 93.7855 530.08ZM109.29 520.98C109.85 520.121 110.55 519.449 111.39 518.964C112.23 518.46 113.163 518.208 114.19 518.208V523.276H112.874C111.679 523.276 110.783 523.537 110.186 524.06C109.588 524.564 109.29 525.46 109.29 526.748V534H104.502V518.376H109.29V520.98ZM126.026 534L121.266 527.448V534H116.478V513.28H121.266V524.732L125.998 518.376H131.906L125.41 526.216L131.962 534H126.026ZM146.832 534.196C145.395 534.196 144.107 533.963 142.968 533.496C141.83 533.029 140.915 532.339 140.224 531.424C139.552 530.509 139.198 529.408 139.16 528.12H144.256C144.331 528.848 144.583 529.408 145.012 529.8C145.442 530.173 146.002 530.36 146.692 530.36C147.402 530.36 147.962 530.201 148.372 529.884C148.783 529.548 148.988 529.091 148.988 528.512C148.988 528.027 148.82 527.625 148.484 527.308C148.167 526.991 147.766 526.729 147.28 526.524C146.814 526.319 146.142 526.085 145.264 525.824C143.995 525.432 142.959 525.04 142.156 524.648C141.354 524.256 140.663 523.677 140.084 522.912C139.506 522.147 139.216 521.148 139.216 519.916C139.216 518.087 139.879 516.659 141.204 515.632C142.53 514.587 144.256 514.064 146.384 514.064C148.55 514.064 150.295 514.587 151.62 515.632C152.946 516.659 153.655 518.096 153.748 519.944H148.568C148.531 519.309 148.298 518.815 147.868 518.46C147.439 518.087 146.888 517.9 146.216 517.9C145.638 517.9 145.171 518.059 144.816 518.376C144.462 518.675 144.284 519.113 144.284 519.692C144.284 520.327 144.583 520.821 145.18 521.176C145.778 521.531 146.711 521.913 147.98 522.324C149.25 522.753 150.276 523.164 151.06 523.556C151.863 523.948 152.554 524.517 153.132 525.264C153.711 526.011 154 526.972 154 528.148C154 529.268 153.711 530.285 153.132 531.2C152.572 532.115 151.751 532.843 150.668 533.384C149.586 533.925 148.307 534.196 146.832 534.196ZM155.995 526.188C155.995 524.564 156.322 523.145 156.975 521.932C157.647 520.719 158.571 519.785 159.747 519.132C160.942 518.479 162.304 518.152 163.835 518.152C165.795 518.152 167.428 518.665 168.735 519.692C170.06 520.719 170.928 522.165 171.339 524.032H166.243C165.814 522.837 164.983 522.24 163.751 522.24C162.874 522.24 162.174 522.585 161.651 523.276C161.128 523.948 160.867 524.919 160.867 526.188C160.867 527.457 161.128 528.437 161.651 529.128C162.174 529.8 162.874 530.136 163.751 530.136C164.983 530.136 165.814 529.539 166.243 528.344H171.339C170.928 530.173 170.06 531.611 168.735 532.656C167.41 533.701 165.776 534.224 163.835 534.224C162.304 534.224 160.942 533.897 159.747 533.244C158.571 532.591 157.647 531.657 156.975 530.444C156.322 529.231 155.995 527.812 155.995 526.188ZM172.948 526.16C172.948 524.555 173.247 523.145 173.844 521.932C174.46 520.719 175.291 519.785 176.336 519.132C177.381 518.479 178.548 518.152 179.836 518.152C180.937 518.152 181.899 518.376 182.72 518.824C183.56 519.272 184.204 519.86 184.652 520.588V518.376H189.44V534H184.652V531.788C184.185 532.516 183.532 533.104 182.692 533.552C181.871 534 180.909 534.224 179.808 534.224C178.539 534.224 177.381 533.897 176.336 533.244C175.291 532.572 174.46 531.629 173.844 530.416C173.247 529.184 172.948 527.765 172.948 526.16ZM184.652 526.188C184.652 524.993 184.316 524.051 183.644 523.36C182.991 522.669 182.188 522.324 181.236 522.324C180.284 522.324 179.472 522.669 178.8 523.36C178.147 524.032 177.82 524.965 177.82 526.16C177.82 527.355 178.147 528.307 178.8 529.016C179.472 529.707 180.284 530.052 181.236 530.052C182.188 530.052 182.991 529.707 183.644 529.016C184.316 528.325 184.652 527.383 184.652 526.188ZM202.424 518.208C204.253 518.208 205.709 518.805 206.792 520C207.893 521.176 208.444 522.8 208.444 524.872V534H203.684V525.516C203.684 524.471 203.413 523.659 202.872 523.08C202.331 522.501 201.603 522.212 200.688 522.212C199.773 522.212 199.045 522.501 198.504 523.08C197.963 523.659 197.692 524.471 197.692 525.516V534H192.904V518.376H197.692V520.448C198.177 519.757 198.831 519.216 199.652 518.824C200.473 518.413 201.397 518.208 202.424 518.208ZM221.291 518.208C223.12 518.208 224.576 518.805 225.659 520C226.76 521.176 227.311 522.8 227.311 524.872V534H222.551V525.516C222.551 524.471 222.28 523.659 221.739 523.08C221.198 522.501 220.47 522.212 219.555 522.212C218.64 522.212 217.912 522.501 217.371 523.08C216.83 523.659 216.559 524.471 216.559 525.516V534H211.771V518.376H216.559V520.448C217.044 519.757 217.698 519.216 218.519 518.824C219.34 518.413 220.264 518.208 221.291 518.208ZM245.366 525.936C245.366 526.384 245.338 526.851 245.282 527.336H234.446C234.521 528.307 234.829 529.053 235.37 529.576C235.93 530.08 236.612 530.332 237.414 530.332C238.609 530.332 239.44 529.828 239.906 528.82H245.002C244.741 529.847 244.265 530.771 243.574 531.592C242.902 532.413 242.053 533.057 241.026 533.524C240 533.991 238.852 534.224 237.582 534.224C236.052 534.224 234.689 533.897 233.494 533.244C232.3 532.591 231.366 531.657 230.694 530.444C230.022 529.231 229.686 527.812 229.686 526.188C229.686 524.564 230.013 523.145 230.666 521.932C231.338 520.719 232.272 519.785 233.466 519.132C234.661 518.479 236.033 518.152 237.582 518.152C239.094 518.152 240.438 518.469 241.614 519.104C242.79 519.739 243.705 520.644 244.358 521.82C245.03 522.996 245.366 524.368 245.366 525.936ZM240.466 524.676C240.466 523.855 240.186 523.201 239.626 522.716C239.066 522.231 238.366 521.988 237.526 521.988C236.724 521.988 236.042 522.221 235.482 522.688C234.941 523.155 234.605 523.817 234.474 524.676H240.466ZM252.68 520.98C253.24 520.121 253.94 519.449 254.78 518.964C255.62 518.46 256.554 518.208 257.58 518.208V523.276H256.264C255.07 523.276 254.174 523.537 253.576 524.06C252.979 524.564 252.68 525.46 252.68 526.748V534H247.892V518.376H252.68V520.98Z" fill="white"/>
<rect x="11.5" y="545.5" width="74" height="31" rx="7.5" stroke="#F2F5F8"/>
<path d="M26 567H24.544L18.688 558.12V567H17.232V555.832H18.688L24.544 564.696V555.832H26V567ZM36.482 562.28C36.482 562.557 36.466 562.851 36.434 563.16H29.426C29.4793 564.024 29.7727 564.701 30.306 565.192C30.85 565.672 31.506 565.912 32.274 565.912C32.9033 565.912 33.426 565.768 33.842 565.48C34.2687 565.181 34.5673 564.787 34.738 564.296H36.306C36.0713 565.139 35.602 565.827 34.898 566.36C34.194 566.883 33.3193 567.144 32.274 567.144C31.442 567.144 30.6953 566.957 30.034 566.584C29.3833 566.211 28.8713 565.683 28.498 565C28.1247 564.307 27.938 563.507 27.938 562.6C27.938 561.693 28.1193 560.899 28.482 560.216C28.8447 559.533 29.3513 559.011 30.002 558.648C30.6633 558.275 31.4207 558.088 32.274 558.088C33.106 558.088 33.842 558.269 34.482 558.632C35.122 558.995 35.6127 559.496 35.954 560.136C36.306 560.765 36.482 561.48 36.482 562.28ZM34.978 561.976C34.978 561.421 34.8553 560.947 34.61 560.552C34.3647 560.147 34.0287 559.843 33.602 559.64C33.186 559.427 32.722 559.32 32.21 559.32C31.474 559.32 30.8447 559.555 30.322 560.024C29.81 560.493 29.5167 561.144 29.442 561.976H34.978ZM40.1799 559.432V564.6C40.1799 565.027 40.2705 565.331 40.4519 565.512C40.6332 565.683 40.9479 565.768 41.3959 565.768H42.4679V567H41.1559C40.3452 567 39.7372 566.813 39.3319 566.44C38.9265 566.067 38.7239 565.453 38.7239 564.6V559.432H37.5879V558.232H38.7239V556.024H40.1799V558.232H42.4679V559.432H40.1799ZM55.912 558.232L53.176 567H51.672L49.56 560.04L47.448 567H45.944L43.192 558.232H44.68L46.696 565.592L48.872 558.232H50.36L52.488 565.608L54.472 558.232H55.912ZM61.181 567.144C60.3597 567.144 59.613 566.957 58.941 566.584C58.2797 566.211 57.757 565.683 57.373 565C56.9997 564.307 56.813 563.507 56.813 562.6C56.813 561.704 57.005 560.915 57.389 560.232C57.7837 559.539 58.317 559.011 58.989 558.648C59.661 558.275 60.413 558.088 61.245 558.088C62.077 558.088 62.829 558.275 63.501 558.648C64.173 559.011 64.701 559.533 65.085 560.216C65.4797 560.899 65.677 561.693 65.677 562.6C65.677 563.507 65.4743 564.307 65.069 565C64.6743 565.683 64.1357 566.211 63.453 566.584C62.7703 566.957 62.013 567.144 61.181 567.144ZM61.181 565.864C61.7037 565.864 62.1943 565.741 62.653 565.496C63.1117 565.251 63.4797 564.883 63.757 564.392C64.045 563.901 64.189 563.304 64.189 562.6C64.189 561.896 64.0503 561.299 63.773 560.808C63.4957 560.317 63.133 559.955 62.685 559.72C62.237 559.475 61.7517 559.352 61.229 559.352C60.6957 559.352 60.205 559.475 59.757 559.72C59.3197 559.955 58.9677 560.317 58.701 560.808C58.4343 561.299 58.301 561.896 58.301 562.6C58.301 563.315 58.429 563.917 58.685 564.408C58.9517 564.899 59.3037 565.267 59.741 565.512C60.1783 565.747 60.6583 565.864 61.181 565.864ZM69.0474 559.656C69.3034 559.155 69.666 558.765 70.1354 558.488C70.6154 558.211 71.1967 558.072 71.8794 558.072V559.576H71.4954C69.8634 559.576 69.0474 560.461 69.0474 562.232V567H67.5914V558.232H69.0474V559.656ZM78.4561 567L75.0161 563.128V567H73.5601V555.16H75.0161V562.12L78.3921 558.232H80.4241L76.2961 562.6L80.4401 567H78.4561Z" fill="#F2F5F8"/>
<rect x="96.5" y="545.5" width="64" height="31" rx="7.5" stroke="#F2F5F8"/>
<path d="M109.688 559.112C109.688 560.04 109.368 560.813 108.728 561.432C108.099 562.04 107.133 562.344 105.832 562.344H103.688V567H102.232V555.848H105.832C107.091 555.848 108.045 556.152 108.696 556.76C109.357 557.368 109.688 558.152 109.688 559.112ZM105.832 561.144C106.643 561.144 107.24 560.968 107.624 560.616C108.008 560.264 108.2 559.763 108.2 559.112C108.2 557.736 107.411 557.048 105.832 557.048H103.688V561.144H105.832ZM119.05 558.232L113.77 571.128H112.266L113.994 566.904L110.458 558.232H112.074L114.826 565.336L117.546 558.232H119.05ZM122.289 559.432V564.6C122.289 565.027 122.38 565.331 122.561 565.512C122.743 565.683 123.057 565.768 123.505 565.768H124.577V567H123.265C122.455 567 121.847 566.813 121.441 566.44C121.036 566.067 120.833 565.453 120.833 564.6V559.432H119.697V558.232H120.833V556.024H122.289V558.232H124.577V559.432H122.289ZM130.693 558.072C131.355 558.072 131.952 558.216 132.485 558.504C133.019 558.781 133.435 559.203 133.733 559.768C134.043 560.333 134.197 561.021 134.197 561.832V567H132.757V562.04C132.757 561.165 132.539 560.499 132.101 560.04C131.664 559.571 131.067 559.336 130.309 559.336C129.541 559.336 128.928 559.576 128.469 560.056C128.021 560.536 127.797 561.235 127.797 562.152V567H126.341V555.16H127.797V559.48C128.085 559.032 128.48 558.685 128.981 558.44C129.493 558.195 130.064 558.072 130.693 558.072ZM140.4 567.144C139.578 567.144 138.832 566.957 138.16 566.584C137.498 566.211 136.976 565.683 136.592 565C136.218 564.307 136.032 563.507 136.032 562.6C136.032 561.704 136.224 560.915 136.608 560.232C137.002 559.539 137.536 559.011 138.208 558.648C138.88 558.275 139.632 558.088 140.464 558.088C141.296 558.088 142.048 558.275 142.72 558.648C143.392 559.011 143.92 559.533 144.304 560.216C144.698 560.899 144.896 561.693 144.896 562.6C144.896 563.507 144.693 564.307 144.288 565C143.893 565.683 143.354 566.211 142.672 566.584C141.989 566.957 141.232 567.144 140.4 567.144ZM140.4 565.864C140.922 565.864 141.413 565.741 141.872 565.496C142.33 565.251 142.698 564.883 142.976 564.392C143.264 563.901 143.408 563.304 143.408 562.6C143.408 561.896 143.269 561.299 142.992 560.808C142.714 560.317 142.352 559.955 141.904 559.72C141.456 559.475 140.97 559.352 140.448 559.352C139.914 559.352 139.424 559.475 138.976 559.72C138.538 559.955 138.186 560.317 137.92 560.808C137.653 561.299 137.52 561.896 137.52 562.6C137.52 563.315 137.648 563.917 137.904 564.408C138.17 564.899 138.522 565.267 138.96 565.512C139.397 565.747 139.877 565.864 140.4 565.864ZM151.082 558.072C152.149 558.072 153.013 558.397 153.674 559.048C154.335 559.688 154.666 560.616 154.666 561.832V567H153.226V562.04C153.226 561.165 153.007 560.499 152.57 560.04C152.133 559.571 151.535 559.336 150.778 559.336C150.01 559.336 149.397 559.576 148.938 560.056C148.49 560.536 148.266 561.235 148.266 562.152V567H146.81V558.232H148.266V559.48C148.554 559.032 148.943 558.685 149.434 558.44C149.935 558.195 150.485 558.072 151.082 558.072Z" fill="#F2F5F8"/>
<rect x="171.5" y="545.5" width="49" height="31" rx="7.5" stroke="#F2F5F8"/>
<path d="M182.816 561.256C183.221 561.32 183.589 561.485 183.92 561.752C184.261 562.019 184.528 562.349 184.72 562.744C184.923 563.139 185.024 563.56 185.024 564.008C185.024 564.573 184.88 565.085 184.592 565.544C184.304 565.992 183.883 566.349 183.328 566.616C182.784 566.872 182.139 567 181.392 567H177.232V555.848H181.232C181.989 555.848 182.635 555.976 183.168 556.232C183.701 556.477 184.101 556.813 184.368 557.24C184.635 557.667 184.768 558.147 184.768 558.68C184.768 559.341 184.587 559.891 184.224 560.328C183.872 560.755 183.403 561.064 182.816 561.256ZM178.688 560.664H181.136C181.819 560.664 182.347 560.504 182.72 560.184C183.093 559.864 183.28 559.421 183.28 558.856C183.28 558.291 183.093 557.848 182.72 557.528C182.347 557.208 181.808 557.048 181.104 557.048H178.688V560.664ZM181.264 565.8C181.989 565.8 182.555 565.629 182.96 565.288C183.365 564.947 183.568 564.472 183.568 563.864C183.568 563.245 183.355 562.76 182.928 562.408C182.501 562.045 181.931 561.864 181.216 561.864H178.688V565.8H181.264ZM186.501 562.584C186.501 561.688 186.682 560.904 187.045 560.232C187.407 559.549 187.903 559.021 188.533 558.648C189.173 558.275 189.882 558.088 190.661 558.088C191.429 558.088 192.095 558.253 192.661 558.584C193.226 558.915 193.647 559.331 193.925 559.832V558.232H195.397V567H193.925V565.368C193.637 565.88 193.205 566.307 192.629 566.648C192.063 566.979 191.402 567.144 190.645 567.144C189.866 567.144 189.162 566.952 188.533 566.568C187.903 566.184 187.407 565.645 187.045 564.952C186.682 564.259 186.501 563.469 186.501 562.584ZM193.925 562.6C193.925 561.939 193.791 561.363 193.525 560.872C193.258 560.381 192.895 560.008 192.437 559.752C191.989 559.485 191.493 559.352 190.949 559.352C190.405 559.352 189.909 559.48 189.461 559.736C189.013 559.992 188.655 560.365 188.389 560.856C188.122 561.347 187.989 561.923 187.989 562.584C187.989 563.256 188.122 563.843 188.389 564.344C188.655 564.835 189.013 565.213 189.461 565.48C189.909 565.736 190.405 565.864 190.949 565.864C191.493 565.864 191.989 565.736 192.437 565.48C192.895 565.213 193.258 564.835 193.525 564.344C193.791 563.843 193.925 563.261 193.925 562.6ZM200.961 567.144C200.289 567.144 199.686 567.032 199.153 566.808C198.62 566.573 198.198 566.253 197.889 565.848C197.58 565.432 197.409 564.957 197.377 564.424H198.881C198.924 564.861 199.126 565.219 199.489 565.496C199.862 565.773 200.348 565.912 200.945 565.912C201.5 565.912 201.937 565.789 202.257 565.544C202.577 565.299 202.737 564.989 202.737 564.616C202.737 564.232 202.566 563.949 202.225 563.768C201.884 563.576 201.356 563.389 200.641 563.208C199.99 563.037 199.457 562.867 199.041 562.696C198.636 562.515 198.284 562.253 197.985 561.912C197.697 561.56 197.553 561.101 197.553 560.536C197.553 560.088 197.686 559.677 197.953 559.304C198.22 558.931 198.598 558.637 199.089 558.424C199.58 558.2 200.14 558.088 200.769 558.088C201.74 558.088 202.524 558.333 203.121 558.824C203.718 559.315 204.038 559.987 204.081 560.84H202.625C202.593 560.381 202.406 560.013 202.065 559.736C201.734 559.459 201.286 559.32 200.721 559.32C200.198 559.32 199.782 559.432 199.473 559.656C199.164 559.88 199.009 560.173 199.009 560.536C199.009 560.824 199.1 561.064 199.281 561.256C199.473 561.437 199.708 561.587 199.985 561.704C200.273 561.811 200.668 561.933 201.169 562.072C201.798 562.243 202.31 562.413 202.705 562.584C203.1 562.744 203.436 562.989 203.713 563.32C204.001 563.651 204.15 564.083 204.161 564.616C204.161 565.096 204.028 565.528 203.761 565.912C203.494 566.296 203.116 566.6 202.625 566.824C202.145 567.037 201.59 567.144 200.961 567.144ZM210.568 558.072C211.23 558.072 211.827 558.216 212.36 558.504C212.894 558.781 213.31 559.203 213.608 559.768C213.918 560.333 214.072 561.021 214.072 561.832V567H212.632V562.04C212.632 561.165 212.414 560.499 211.976 560.04C211.539 559.571 210.942 559.336 210.184 559.336C209.416 559.336 208.803 559.576 208.344 560.056C207.896 560.536 207.672 561.235 207.672 562.152V567H206.216V555.16H207.672V559.48C207.96 559.032 208.355 558.685 208.856 558.44C209.368 558.195 209.939 558.072 210.568 558.072Z" fill="#F2F5F8"/>
</svg>
