<svg width="450" height="600" viewBox="0 0 450 600" fill="none" xmlns="http://www.w3.org/2000/svg">
<rect width="450" height="600" fill="#282C33"/>
<path d="M173.181 225.182H309V391.182H173.181V225.182Z" stroke="#F2F5F8" stroke-width="10" stroke-linecap="round" stroke-linejoin="round"/>
<path d="M278.819 224.427V195H143V361H172.427" stroke="#F2F5F8" stroke-width="10" stroke-linecap="round" stroke-linejoin="round"/>
<path d="M232.818 272.909V305.93C228.193 307.559 224.188 310.583 221.355 314.585C218.521 318.587 217 323.369 217 328.273C217 341.362 227.638 352 240.727 352C253.817 352 264.455 341.362 264.455 328.273C264.455 323.369 262.933 318.587 260.1 314.585C257.267 310.583 253.261 307.559 248.636 305.93V304.545L256.545 296.636L248.636 288.727L256.545 280.818L240.569 265L232.818 272.909ZM252.591 328.273C252.591 334.798 247.252 340.136 240.727 340.136C234.202 340.136 228.864 334.798 228.864 328.273C228.864 321.748 234.202 316.409 240.727 316.409C247.252 316.409 252.591 321.748 252.591 328.273Z" fill="#F2F5F8"/>
<path d="M218 286H264.003" stroke="#282C33" stroke-width="10" stroke-linecap="round"/>
<path d="M218 331H264.003" stroke="#282C33" stroke-width="10" stroke-linecap="round"/>
<path d="M146.394 87.8C145.407 87.8 144.674 87.4133 144.194 86.64C143.714 85.84 143.474 84.4 143.474 82.32C143.474 79.6533 143.714 77.0267 144.194 74.44C144.7 71.8533 145.407 69.4267 146.314 67.16C147.247 64.8933 148.367 62.9067 149.674 61.2C151.007 59.4667 152.514 58.12 154.194 57.16C155.874 56.1733 157.7 55.68 159.674 55.68C162.607 55.68 164.78 56.4667 166.194 58.04C167.634 59.5867 168.354 61.8667 168.354 64.88C168.354 66.48 168.034 67.9067 167.394 69.16C166.754 70.3867 165.914 71.36 164.874 72.08C163.86 72.7733 162.767 73.12 161.594 73.12C160.927 73.12 160.22 73 159.474 72.76C160.914 74.6267 162.354 76.2533 163.794 77.64C165.26 79.0267 166.714 80.3067 168.154 81.48C169.62 82.6267 171.087 83.8 172.554 85C173.327 85.6133 173.767 86.2667 173.874 86.96C173.98 87.6533 173.794 88.24 173.314 88.72C172.86 89.2267 172.154 89.48 171.194 89.48C170.447 89.48 169.5 89.1467 168.354 88.48C167.207 87.84 165.967 86.9733 164.634 85.88C163.3 84.76 161.967 83.52 160.634 82.16C159.327 80.8 158.127 79.4133 157.034 78C155.967 76.5867 155.1 75.24 154.434 73.96C153.794 72.68 153.474 71.5867 153.474 70.68C153.474 69.8267 153.7 69.1733 154.154 68.72C154.607 68.24 155.194 68 155.914 68C156.5 68 157.034 68.08 157.514 68.24C158.02 68.4 158.554 68.48 159.114 68.48C159.7 68.48 160.314 68.32 160.954 68C161.62 67.68 162.18 67.1867 162.634 66.52C163.087 65.8267 163.314 64.9467 163.314 63.88C163.314 62.7067 162.98 61.92 162.314 61.52C161.674 61.12 160.807 60.92 159.714 60.92C158.194 60.92 156.82 61.4533 155.594 62.52C154.367 63.5867 153.3 65.0933 152.394 67.04C151.487 68.9867 150.754 71.28 150.194 73.92C149.66 76.56 149.3 79.44 149.114 82.56C149.007 84.5867 148.74 85.9733 148.314 86.72C147.887 87.44 147.247 87.8 146.394 87.8ZM184.475 89.36C182.822 89.36 181.488 88.7867 180.475 87.64C179.462 86.4667 178.955 84.5867 178.955 82C178.955 80.3467 179.142 78.6933 179.515 77.04C179.915 75.36 180.462 73.7733 181.155 72.28C181.875 70.76 182.702 69.4133 183.635 68.24C184.595 67.0667 185.648 66.1467 186.795 65.48C187.942 64.7867 189.128 64.44 190.355 64.44C192.435 64.44 194.062 65 195.235 66.12C196.408 67.24 196.995 68.6667 196.995 70.4C196.995 71.7333 196.622 72.9467 195.875 74.04C195.155 75.1067 194.168 76.0667 192.915 76.92C191.662 77.7733 190.262 78.5467 188.715 79.24C187.168 79.9333 185.582 80.56 183.955 81.12C183.822 82.08 183.755 82.9333 183.755 83.68C183.755 84.1333 184.008 84.36 184.515 84.36C185.715 84.36 186.995 84.1733 188.355 83.8C189.742 83.4 191.142 82.8933 192.555 82.28C193.968 81.64 195.328 80.9867 196.635 80.32C197.942 79.6267 199.128 78.9733 200.195 78.36C201.288 77.72 202.182 77.2133 202.875 76.84C203.595 76.44 204.062 76.24 204.275 76.24C204.862 76.24 205.288 76.4133 205.555 76.76C205.822 77.1067 205.955 77.48 205.955 77.88C205.955 78.0667 205.595 78.48 204.875 79.12C204.182 79.76 203.222 80.52 201.995 81.4C200.795 82.2533 199.435 83.1467 197.915 84.08C196.422 84.9867 194.862 85.8533 193.235 86.68C191.635 87.48 190.075 88.12 188.555 88.6C187.062 89.1067 185.702 89.36 184.475 89.36ZM184.635 77.56C185.728 76.92 186.808 76.2533 187.875 75.56C188.968 74.84 189.875 74.04 190.595 73.16C191.315 72.2533 191.675 71.2 191.675 70C191.675 69.6533 191.582 69.4267 191.395 69.32C191.208 69.1867 190.942 69.12 190.595 69.12C189.662 69.12 188.808 69.5333 188.035 70.36C187.288 71.1867 186.622 72.2533 186.035 73.56C185.475 74.84 185.008 76.1733 184.635 77.56ZM238.885 87.08C238.725 88.52 237.871 89.24 236.325 89.24C235.525 89.24 234.885 89 234.405 88.52C233.951 88.04 233.725 87.3467 233.725 86.44C233.725 84.8933 233.791 83.24 233.925 81.48C234.085 79.6933 234.271 77.8933 234.485 76.08C234.725 74.2667 234.951 72.5333 235.165 70.88C234.205 72.2667 233.191 73.6933 232.125 75.16C231.058 76.6267 229.991 78.0533 228.925 79.44C227.858 80.8267 226.831 82.08 225.845 83.2C224.885 84.2933 224.005 85.1733 223.205 85.84C222.405 86.48 221.738 86.8 221.205 86.8C219.925 86.8 218.818 86.3333 217.885 85.4C216.951 84.44 216.485 83.2267 216.485 81.76C216.485 81.2533 216.538 80.5733 216.645 79.72C216.751 78.84 216.885 77.9067 217.045 76.92C217.205 75.9333 217.338 75 217.445 74.12C217.551 73.24 217.605 72.5467 217.605 72.04C217.605 72.04 217.605 72.0133 217.605 71.96C217.631 71.8267 217.605 71.76 217.525 71.76C217.418 71.76 217.125 72.12 216.645 72.84C216.165 73.5333 215.578 74.44 214.885 75.56C214.191 76.68 213.458 77.8533 212.685 79.08C211.938 80.3067 211.231 81.4533 210.565 82.52C209.925 83.5867 209.391 84.4133 208.965 85C208.378 85.9067 207.831 86.48 207.325 86.72C206.818 86.96 206.231 87.08 205.565 87.08C204.631 87.08 203.898 86.7733 203.365 86.16C202.858 85.52 202.605 84.6267 202.605 83.48C202.605 83 202.685 82.2533 202.845 81.24C203.031 80.2267 203.258 79.1067 203.525 77.88C203.791 76.6267 204.058 75.4133 204.325 74.24C204.618 73.04 204.871 72.0267 205.085 71.2C205.325 70.1067 205.658 69.3467 206.085 68.92C206.538 68.4667 207.111 68.24 207.805 68.24C209.431 68.24 210.245 69.04 210.245 70.64C210.245 70.9333 210.151 71.4133 209.965 72.08C209.778 72.7467 209.551 73.52 209.285 74.4C209.018 75.28 208.738 76.1867 208.445 77.12C208.151 78.0267 207.911 78.88 207.725 79.68C208.365 78.56 209.058 77.36 209.805 76.08C210.551 74.8 211.311 73.5467 212.085 72.32C212.885 71.0933 213.671 69.9733 214.445 68.96C215.245 67.9467 216.031 67.1467 216.805 66.56C217.578 65.9467 218.311 65.64 219.005 65.64C219.698 65.64 220.378 65.8933 221.045 66.4C221.711 66.88 222.258 67.5067 222.685 68.28C223.138 69.0267 223.365 69.8267 223.365 70.68C223.365 71.48 223.258 72.44 223.045 73.56C222.831 74.68 222.591 75.8533 222.325 77.08C222.058 78.3067 221.871 79.5067 221.765 80.68C222.671 79.6667 223.631 78.52 224.645 77.24C225.658 75.9333 226.698 74.5867 227.765 73.2C228.831 71.8133 229.871 70.4667 230.885 69.16C231.925 67.8533 232.885 66.6667 233.765 65.6C234.671 64.5333 235.471 63.6933 236.165 63.08C236.858 62.44 237.391 62.12 237.765 62.12C238.858 62.12 239.711 62.4133 240.325 63C240.965 63.56 241.285 64.5467 241.285 65.96C241.285 66.84 241.218 67.9867 241.085 69.4C240.978 70.8133 240.818 72.3467 240.605 74C240.418 75.6267 240.205 77.28 239.965 78.96C239.751 80.6133 239.551 82.1467 239.365 83.56C239.178 84.9733 239.018 86.1467 238.885 87.08ZM253.288 89.32C251.395 89.32 249.875 88.6533 248.728 87.32C247.582 85.96 247.008 84.1467 247.008 81.88C247.008 81.16 247.102 80.4267 247.288 79.68C247.502 78.9333 247.755 78.24 248.048 77.6C247.888 77.36 247.755 77.0533 247.648 76.68C247.568 76.28 247.528 75.8133 247.528 75.28C247.528 73.5467 247.835 71.96 248.448 70.52C249.062 69.0533 249.888 67.7867 250.928 66.72C251.968 65.6533 253.115 64.8267 254.368 64.24C255.622 63.6533 256.888 63.36 258.168 63.36C260.355 63.36 262.142 64.0933 263.528 65.56C264.942 67.0267 265.648 69.3067 265.648 72.4C265.648 73.9467 265.408 75.52 264.928 77.12C264.448 78.72 263.795 80.2533 262.968 81.72C262.168 83.16 261.235 84.4533 260.168 85.6C259.128 86.7467 258.008 87.6533 256.808 88.32C255.635 88.9867 254.462 89.32 253.288 89.32ZM252.648 75.8C252.782 76.0933 252.848 76.44 252.848 76.84C252.848 77.24 252.768 77.6533 252.608 78.08C252.448 78.5067 252.288 79.08 252.128 79.8C251.968 80.4933 251.888 81.4933 251.888 82.8C251.888 83.1467 251.928 83.44 252.008 83.68C252.115 83.8933 252.342 84 252.688 84C253.595 84 254.448 83.7067 255.248 83.12C256.075 82.5333 256.808 81.76 257.448 80.8C258.115 79.84 258.675 78.7733 259.128 77.6C259.608 76.4 259.968 75.1867 260.208 73.96C260.475 72.7067 260.608 71.5467 260.608 70.48C260.608 69.7867 260.475 69.3067 260.208 69.04C259.942 68.7733 259.475 68.64 258.808 68.64C257.902 68.64 256.968 68.9333 256.008 69.52C255.075 70.08 254.288 70.8533 253.648 71.84C253.008 72.8 252.688 73.8933 252.688 75.12C252.688 75.36 252.675 75.5867 252.648 75.8ZM299.106 67.84C299.106 68.16 298.999 68.44 298.786 68.68C298.573 68.92 298.306 69.1067 297.986 69.24C297.533 69.4267 296.746 69.6667 295.626 69.96C294.506 70.2533 293.146 70.5867 291.546 70.96C289.973 71.3333 288.279 71.72 286.466 72.12C284.653 72.4933 282.839 72.8533 281.026 73.2C280.333 75.76 279.626 78.4 278.906 81.12C278.186 83.8133 277.466 86.4667 276.746 89.08C276.479 90.0133 276.159 90.72 275.786 91.2C275.413 91.7067 274.773 91.96 273.866 91.96C272.879 91.96 272.213 91.64 271.866 91C271.546 90.3867 271.506 89.5467 271.746 88.48C272.439 85.5733 273.079 82.8667 273.666 80.36C274.279 77.8533 274.773 75.8267 275.146 74.28C273.546 74.5467 272.146 74.76 270.946 74.92C269.746 75.0533 268.893 75.1067 268.386 75.08C267.826 75.0267 267.359 74.8 266.986 74.4C266.613 74 266.439 73.5067 266.466 72.92C266.519 72.3867 266.759 71.9333 267.186 71.56C267.613 71.16 268.119 70.92 268.706 70.84C269.533 70.76 270.599 70.64 271.906 70.48C273.213 70.32 274.653 70.1333 276.226 69.92C276.573 68.56 276.973 67.16 277.426 65.72C277.879 64.2533 278.346 62.8533 278.826 61.52C279.333 60.16 279.813 58.9733 280.266 57.96C280.719 56.9467 281.133 56.2133 281.506 55.76C281.799 55.4133 282.159 55.1467 282.586 54.96C283.039 54.7733 283.479 54.68 283.906 54.68C284.466 54.68 284.919 54.88 285.266 55.28C285.613 55.68 285.786 56.1467 285.786 56.68C285.786 56.8933 285.773 57.12 285.746 57.36C285.719 57.5733 285.666 57.7867 285.586 58C285.079 59.3333 284.533 60.9467 283.946 62.84C283.386 64.7333 282.799 66.8133 282.186 69.08C284.186 68.7867 286.146 68.4933 288.066 68.2C290.013 67.88 291.773 67.5867 293.346 67.32C294.946 67.0267 296.226 66.7733 297.186 66.56C297.719 66.3733 298.173 66.4133 298.546 66.68C298.919 66.92 299.106 67.3067 299.106 67.84ZM299.983 89.36C298.33 89.36 296.996 88.7867 295.983 87.64C294.97 86.4667 294.463 84.5867 294.463 82C294.463 80.3467 294.65 78.6933 295.023 77.04C295.423 75.36 295.97 73.7733 296.663 72.28C297.383 70.76 298.21 69.4133 299.143 68.24C300.103 67.0667 301.156 66.1467 302.303 65.48C303.45 64.7867 304.636 64.44 305.863 64.44C307.943 64.44 309.57 65 310.743 66.12C311.916 67.24 312.503 68.6667 312.503 70.4C312.503 71.7333 312.13 72.9467 311.383 74.04C310.663 75.1067 309.676 76.0667 308.423 76.92C307.17 77.7733 305.77 78.5467 304.223 79.24C302.676 79.9333 301.09 80.56 299.463 81.12C299.33 82.08 299.263 82.9333 299.263 83.68C299.263 84.1333 299.516 84.36 300.023 84.36C301.223 84.36 302.503 84.1733 303.863 83.8C305.25 83.4 306.65 82.8933 308.063 82.28C309.476 81.64 310.836 80.9867 312.143 80.32C313.45 79.6267 314.636 78.9733 315.703 78.36C316.796 77.72 317.69 77.2133 318.383 76.84C319.103 76.44 319.57 76.24 319.783 76.24C320.37 76.24 320.796 76.4133 321.063 76.76C321.33 77.1067 321.463 77.48 321.463 77.88C321.463 78.0667 321.103 78.48 320.383 79.12C319.69 79.76 318.73 80.52 317.503 81.4C316.303 82.2533 314.943 83.1467 313.423 84.08C311.93 84.9867 310.37 85.8533 308.743 86.68C307.143 87.48 305.583 88.12 304.063 88.6C302.57 89.1067 301.21 89.36 299.983 89.36ZM300.143 77.56C301.236 76.92 302.316 76.2533 303.383 75.56C304.476 74.84 305.383 74.04 306.103 73.16C306.823 72.2533 307.183 71.2 307.183 70C307.183 69.6533 307.09 69.4267 306.903 69.32C306.716 69.1867 306.45 69.12 306.103 69.12C305.17 69.12 304.316 69.5333 303.543 70.36C302.796 71.1867 302.13 72.2533 301.543 73.56C300.983 74.84 300.516 76.1733 300.143 77.56ZM139.788 142.2C139.788 142.947 139.534 143.493 139.028 143.84C138.521 144.187 137.854 144.373 137.028 144.4C136.094 144.4 135.028 144.027 133.828 143.28C132.654 142.56 131.414 141.587 130.108 140.36C128.801 139.133 127.521 137.773 126.268 136.28C125.014 134.76 123.854 133.24 122.788 131.72C122.094 134.573 121.508 136.84 121.028 138.52C120.548 140.173 120.068 141.36 119.588 142.08C119.134 142.8 118.588 143.16 117.948 143.16C117.014 143.16 116.388 142.76 116.068 141.96C115.748 141.133 115.588 140.147 115.588 139C115.588 138.2 115.641 137.387 115.748 136.56C115.881 135.707 116.081 134.707 116.348 133.56C116.614 132.387 116.974 130.933 117.428 129.2C116.841 128.64 116.548 128.013 116.548 127.32C116.548 126.813 116.681 126.32 116.948 125.84C117.241 125.333 117.788 124.92 118.588 124.6C119.334 122.147 119.974 120.147 120.508 118.6C121.041 117.027 121.521 115.813 121.948 114.96C122.374 114.107 122.761 113.52 123.108 113.2C123.481 112.88 123.868 112.72 124.268 112.72C125.014 112.72 125.588 112.933 125.988 113.36C126.388 113.787 126.588 114.533 126.588 115.6C126.588 116 126.468 116.813 126.228 118.04C126.014 119.24 125.601 121.013 124.988 123.36C127.334 121.547 129.494 119.76 131.468 118C133.441 116.24 135.161 114.64 136.628 113.2C138.121 111.76 139.334 110.613 140.268 109.76C141.201 108.907 141.801 108.48 142.068 108.48C142.841 108.48 143.454 108.733 143.908 109.24C144.388 109.72 144.628 110.267 144.628 110.88C144.628 111.493 144.361 112.133 143.828 112.8C143.241 113.493 142.454 114.373 141.468 115.44C140.481 116.507 139.374 117.667 138.148 118.92C136.921 120.147 135.628 121.373 134.268 122.6C132.908 123.8 131.534 124.893 130.148 125.88C128.788 126.867 127.468 127.64 126.188 128.2C126.454 128.467 126.734 128.773 127.028 129.12C127.348 129.44 127.681 129.8 128.028 130.2C128.934 131.187 130.014 132.28 131.268 133.48C132.521 134.653 133.801 135.813 135.108 136.96C136.441 138.08 137.641 139.067 138.708 139.92C139.081 140.267 139.348 140.613 139.508 140.96C139.694 141.28 139.788 141.693 139.788 142.2ZM151.194 144.36C149.541 144.36 148.207 143.787 147.194 142.64C146.181 141.467 145.674 139.587 145.674 137C145.674 135.347 145.861 133.693 146.234 132.04C146.634 130.36 147.181 128.773 147.874 127.28C148.594 125.76 149.421 124.413 150.354 123.24C151.314 122.067 152.367 121.147 153.514 120.48C154.661 119.787 155.847 119.44 157.074 119.44C159.154 119.44 160.781 120 161.954 121.12C163.127 122.24 163.714 123.667 163.714 125.4C163.714 126.733 163.341 127.947 162.594 129.04C161.874 130.107 160.887 131.067 159.634 131.92C158.381 132.773 156.981 133.547 155.434 134.24C153.887 134.933 152.301 135.56 150.674 136.12C150.541 137.08 150.474 137.933 150.474 138.68C150.474 139.133 150.727 139.36 151.234 139.36C152.434 139.36 153.714 139.173 155.074 138.8C156.461 138.4 157.861 137.893 159.274 137.28C160.687 136.64 162.047 135.987 163.354 135.32C164.661 134.627 165.847 133.973 166.914 133.36C168.007 132.72 168.901 132.213 169.594 131.84C170.314 131.44 170.781 131.24 170.994 131.24C171.581 131.24 172.007 131.413 172.274 131.76C172.541 132.107 172.674 132.48 172.674 132.88C172.674 133.067 172.314 133.48 171.594 134.12C170.901 134.76 169.941 135.52 168.714 136.4C167.514 137.253 166.154 138.147 164.634 139.08C163.141 139.987 161.581 140.853 159.954 141.68C158.354 142.48 156.794 143.12 155.274 143.6C153.781 144.107 152.421 144.36 151.194 144.36ZM151.354 132.56C152.447 131.92 153.527 131.253 154.594 130.56C155.687 129.84 156.594 129.04 157.314 128.16C158.034 127.253 158.394 126.2 158.394 125C158.394 124.653 158.301 124.427 158.114 124.32C157.927 124.187 157.661 124.12 157.314 124.12C156.381 124.12 155.527 124.533 154.754 125.36C154.007 126.187 153.341 127.253 152.754 128.56C152.194 129.84 151.727 131.173 151.354 132.56ZM177.014 154C175.521 154 174.161 153.907 172.934 153.72C171.708 153.56 170.508 153.293 169.334 152.92C168.161 152.547 166.894 152.053 165.534 151.44C164.974 151.173 164.508 150.893 164.134 150.6C163.761 150.307 163.574 149.867 163.574 149.28C163.574 148.427 163.841 147.773 164.374 147.32C164.881 146.893 165.588 146.68 166.494 146.68C166.974 146.68 167.588 146.84 168.334 147.16C169.081 147.507 169.934 147.893 170.894 148.32C171.881 148.773 172.974 149.16 174.174 149.48C175.374 149.827 176.668 150 178.054 150C179.468 150 180.788 149.413 182.014 148.24C183.241 147.067 184.228 145.413 184.974 143.28C185.748 141.173 186.134 138.68 186.134 135.8C186.134 135.133 186.121 134.413 186.094 133.64C186.068 132.84 186.041 132 186.014 131.12C185.054 132.933 184.014 134.627 182.894 136.2C181.774 137.773 180.614 139.053 179.414 140.04C178.241 141 177.054 141.48 175.854 141.48C174.388 141.48 173.321 141.133 172.654 140.44C172.014 139.72 171.694 138.587 171.694 137.04C171.694 135.733 171.788 134.307 171.974 132.76C172.188 131.187 172.468 129.6 172.814 128C173.161 126.4 173.561 124.88 174.014 123.44C174.494 121.973 175.001 120.707 175.534 119.64C175.934 118.867 176.548 118.48 177.374 118.48C177.908 118.48 178.441 118.733 178.974 119.24C179.534 119.747 179.814 120.427 179.814 121.28C179.814 121.76 179.694 122.453 179.454 123.36C179.214 124.267 178.921 125.293 178.574 126.44C178.254 127.56 177.921 128.747 177.574 130C177.228 131.227 176.934 132.44 176.694 133.64C176.454 134.813 176.334 135.88 176.334 136.84C176.334 136.947 176.414 137 176.574 137C176.894 137 177.321 136.733 177.854 136.2C178.414 135.64 179.028 134.92 179.694 134.04C180.388 133.133 181.081 132.147 181.774 131.08C182.494 129.987 183.188 128.907 183.854 127.84C184.521 126.773 185.121 125.8 185.654 124.92C185.574 124.493 185.521 124.12 185.494 123.8C185.494 123.453 185.494 123.16 185.494 122.92C185.494 121.827 185.681 120.92 186.054 120.2C186.454 119.48 187.228 119.12 188.374 119.12C189.121 119.12 189.694 119.4 190.094 119.96C190.494 120.493 190.694 121.253 190.694 122.24C190.694 122.667 190.628 123.16 190.494 123.72C190.361 124.253 190.094 125.107 189.694 126.28L190.134 125.04C190.374 127.44 190.574 129.573 190.734 131.44C190.921 133.307 191.014 135.16 191.014 137C191.014 140.467 190.428 143.467 189.254 146C188.108 148.56 186.481 150.533 184.374 151.92C182.294 153.307 179.841 154 177.014 154ZM206.014 145C203.614 145 201.721 144.267 200.334 142.8C198.974 141.307 198.294 139.187 198.294 136.44C198.294 134.947 198.494 133.2 198.894 131.2C199.294 129.173 199.814 127.04 200.454 124.8C201.121 122.533 201.827 120.293 202.574 118.08C203.347 115.867 204.107 113.813 204.854 111.92C205.601 110.027 206.254 108.44 206.814 107.16C207.294 106.173 207.974 105.68 208.854 105.68C209.414 105.68 209.867 105.853 210.214 106.2C210.587 106.547 210.774 107.107 210.774 107.88C210.774 108.253 210.587 109.067 210.214 110.32C209.841 111.573 209.347 113.12 208.734 114.96C208.147 116.773 207.507 118.733 206.814 120.84C206.147 122.947 205.507 125.067 204.894 127.2C204.307 129.333 203.827 131.347 203.454 133.24C203.081 135.107 202.894 136.693 202.894 138C202.894 138.533 203.041 138.96 203.334 139.28C203.654 139.6 204.067 139.76 204.574 139.76C205.667 139.76 206.787 139.56 207.934 139.16C209.107 138.76 210.254 138.253 211.374 137.64C212.521 137.027 213.601 136.373 214.614 135.68C215.627 134.987 216.534 134.333 217.334 133.72C218.161 133.08 218.827 132.573 219.334 132.2C220.001 131.693 220.454 131.44 220.694 131.44C221.601 131.44 222.054 131.88 222.054 132.76C222.054 132.973 221.787 133.413 221.254 134.08C220.801 134.667 220.161 135.413 219.334 136.32C218.507 137.227 217.547 138.187 216.454 139.2C215.387 140.187 214.241 141.12 213.014 142C211.814 142.88 210.614 143.6 209.414 144.16C208.214 144.72 207.081 145 206.014 145ZM225.554 144.32C223.661 144.32 222.141 143.653 220.994 142.32C219.847 140.96 219.274 139.147 219.274 136.88C219.274 136.16 219.367 135.427 219.554 134.68C219.767 133.933 220.021 133.24 220.314 132.6C220.154 132.36 220.021 132.053 219.914 131.68C219.834 131.28 219.794 130.813 219.794 130.28C219.794 128.547 220.101 126.96 220.714 125.52C221.327 124.053 222.154 122.787 223.194 121.72C224.234 120.653 225.381 119.827 226.634 119.24C227.887 118.653 229.154 118.36 230.434 118.36C232.621 118.36 234.407 119.093 235.794 120.56C237.207 122.027 237.914 124.307 237.914 127.4C237.914 128.947 237.674 130.52 237.194 132.12C236.714 133.72 236.061 135.253 235.234 136.72C234.434 138.16 233.501 139.453 232.434 140.6C231.394 141.747 230.274 142.653 229.074 143.32C227.901 143.987 226.727 144.32 225.554 144.32ZM224.914 130.8C225.047 131.093 225.114 131.44 225.114 131.84C225.114 132.24 225.034 132.653 224.874 133.08C224.714 133.507 224.554 134.08 224.394 134.8C224.234 135.493 224.154 136.493 224.154 137.8C224.154 138.147 224.194 138.44 224.274 138.68C224.381 138.893 224.607 139 224.954 139C225.861 139 226.714 138.707 227.514 138.12C228.341 137.533 229.074 136.76 229.714 135.8C230.381 134.84 230.941 133.773 231.394 132.6C231.874 131.4 232.234 130.187 232.474 128.96C232.741 127.707 232.874 126.547 232.874 125.48C232.874 124.787 232.741 124.307 232.474 124.04C232.207 123.773 231.741 123.64 231.074 123.64C230.167 123.64 229.234 123.933 228.274 124.52C227.341 125.08 226.554 125.853 225.914 126.84C225.274 127.8 224.954 128.893 224.954 130.12C224.954 130.36 224.941 130.587 224.914 130.8ZM245.625 154.52C243.625 154.52 242.105 154.373 241.065 154.08C240.052 153.787 239.358 153.4 238.985 152.92C238.612 152.467 238.425 152 238.425 151.52C238.425 150.853 238.638 150.307 239.065 149.88C239.518 149.453 240.105 149.24 240.825 149.24C241.305 149.24 241.998 149.307 242.905 149.44C243.812 149.573 244.718 149.64 245.625 149.64C248.292 149.64 250.492 149 252.225 147.72C253.958 146.467 255.318 144.56 256.305 142C257.292 139.413 257.972 136.16 258.345 132.24C256.505 135.253 254.465 137.667 252.225 139.48C250.012 141.293 247.705 142.2 245.305 142.2C242.478 142.2 241.065 140.813 241.065 138.04C241.065 136.707 241.425 135.307 242.145 133.84C242.865 132.373 243.825 130.92 245.025 129.48C246.225 128.04 247.545 126.68 248.985 125.4C250.425 124.093 251.865 122.947 253.305 121.96C254.772 120.973 256.132 120.2 257.385 119.64C258.638 119.053 259.652 118.76 260.425 118.76C261.038 118.76 261.572 118.867 262.025 119.08C262.505 119.293 262.878 119.72 263.145 120.36C263.412 120.973 263.545 121.88 263.545 123.08C263.545 126.413 263.425 129.64 263.185 132.76C262.945 135.853 262.478 138.72 261.785 141.36C261.092 144 260.078 146.307 258.745 148.28C257.438 150.253 255.718 151.787 253.585 152.88C251.452 153.973 248.798 154.52 245.625 154.52ZM246.185 137.24C246.185 137.427 246.265 137.52 246.425 137.52C246.958 137.52 247.678 137.24 248.585 136.68C249.492 136.093 250.465 135.32 251.505 134.36C252.572 133.373 253.612 132.28 254.625 131.08C255.638 129.853 256.532 128.587 257.305 127.28C258.105 125.973 258.678 124.707 259.025 123.48C257.638 124.28 256.198 125.213 254.705 126.28C253.238 127.32 251.852 128.44 250.545 129.64C249.265 130.84 248.212 132.093 247.385 133.4C246.585 134.68 246.185 135.96 246.185 137.24ZM274.141 154.52C272.141 154.52 270.621 154.373 269.581 154.08C268.567 153.787 267.874 153.4 267.501 152.92C267.127 152.467 266.941 152 266.941 151.52C266.941 150.853 267.154 150.307 267.581 149.88C268.034 149.453 268.621 149.24 269.341 149.24C269.821 149.24 270.514 149.307 271.421 149.44C272.327 149.573 273.234 149.64 274.141 149.64C276.807 149.64 279.007 149 280.741 147.72C282.474 146.467 283.834 144.56 284.821 142C285.807 139.413 286.487 136.16 286.861 132.24C285.021 135.253 282.981 137.667 280.741 139.48C278.527 141.293 276.221 142.2 273.821 142.2C270.994 142.2 269.581 140.813 269.581 138.04C269.581 136.707 269.941 135.307 270.661 133.84C271.381 132.373 272.341 130.92 273.541 129.48C274.741 128.04 276.061 126.68 277.501 125.4C278.941 124.093 280.381 122.947 281.821 121.96C283.287 120.973 284.647 120.2 285.901 119.64C287.154 119.053 288.167 118.76 288.941 118.76C289.554 118.76 290.087 118.867 290.541 119.08C291.021 119.293 291.394 119.72 291.661 120.36C291.927 120.973 292.061 121.88 292.061 123.08C292.061 126.413 291.941 129.64 291.701 132.76C291.461 135.853 290.994 138.72 290.301 141.36C289.607 144 288.594 146.307 287.261 148.28C285.954 150.253 284.234 151.787 282.101 152.88C279.967 153.973 277.314 154.52 274.141 154.52ZM274.701 137.24C274.701 137.427 274.781 137.52 274.941 137.52C275.474 137.52 276.194 137.24 277.101 136.68C278.007 136.093 278.981 135.32 280.021 134.36C281.087 133.373 282.127 132.28 283.141 131.08C284.154 129.853 285.047 128.587 285.821 127.28C286.621 125.973 287.194 124.707 287.541 123.48C286.154 124.28 284.714 125.213 283.221 126.28C281.754 127.32 280.367 128.44 279.061 129.64C277.781 130.84 276.727 132.093 275.901 133.4C275.101 134.68 274.701 135.96 274.701 137.24ZM319.324 125.68C319.324 127.413 318.337 129.133 316.364 130.84C314.417 132.52 311.391 134.013 307.284 135.32C307.284 135.347 307.284 135.387 307.284 135.44C307.284 136.32 307.391 137.027 307.604 137.56C307.817 138.067 308.284 138.32 309.004 138.32C310.071 138.32 311.257 138 312.564 137.36C313.897 136.693 315.271 135.853 316.684 134.84C318.124 133.8 319.524 132.707 320.884 131.56C322.244 130.413 323.497 129.333 324.644 128.32C325.817 127.28 326.804 126.44 327.604 125.8C328.431 125.133 328.977 124.8 329.244 124.8C329.804 124.8 330.271 125.013 330.644 125.44C331.044 125.867 331.244 126.507 331.244 127.36C331.244 127.84 331.217 128.413 331.164 129.08C332.337 127.053 333.697 125.387 335.244 124.08C336.791 122.747 338.311 121.76 339.804 121.12C341.324 120.453 342.617 120.12 343.684 120.12C344.884 120.12 345.697 120.36 346.124 120.84C346.551 121.293 346.764 121.773 346.764 122.28C346.764 122.573 346.697 122.867 346.564 123.16C346.457 123.427 346.164 123.72 345.684 124.04C345.231 124.36 344.471 124.733 343.404 125.16C341.991 125.693 340.644 126.32 339.364 127.04C338.111 127.76 336.951 128.747 335.884 130C334.844 131.227 333.897 132.88 333.044 134.96C332.217 137.013 331.524 139.653 330.964 142.88C330.777 143.787 330.484 144.4 330.084 144.72C329.684 145.067 329.217 145.24 328.684 145.24C328.631 145.24 328.537 145.24 328.404 145.24C328.164 145.267 327.911 145.24 327.644 145.16C327.404 145.107 327.164 144.88 326.924 144.48C326.711 144.107 326.537 143.453 326.404 142.52C326.271 141.587 326.204 140.253 326.204 138.52C326.204 137.48 326.244 136.387 326.324 135.24C326.431 134.067 326.564 132.853 326.724 131.6C325.364 132.933 323.911 134.28 322.364 135.64C320.817 137 319.217 138.253 317.564 139.4C315.937 140.52 314.337 141.427 312.764 142.12C311.217 142.813 309.777 143.16 308.444 143.16C306.657 143.16 305.191 142.587 304.044 141.44C302.924 140.267 302.364 138.467 302.364 136.04C302.364 133.64 302.684 131.467 303.324 129.52C303.991 127.547 304.844 125.853 305.884 124.44C306.924 123.027 308.031 121.947 309.204 121.2C310.404 120.427 311.524 120.04 312.564 120.04C314.777 120.04 316.457 120.573 317.604 121.64C318.751 122.68 319.324 124.027 319.324 125.68ZM307.804 131.76C308.497 131.413 309.231 131.013 310.004 130.56C310.804 130.08 311.551 129.587 312.244 129.08C312.937 128.547 313.497 128.027 313.924 127.52C314.377 127.013 314.604 126.533 314.604 126.08C314.604 125.333 314.391 124.88 313.964 124.72C313.564 124.533 313.017 124.44 312.324 124.44C311.604 124.44 310.951 124.827 310.364 125.6C309.777 126.347 309.271 127.28 308.844 128.4C308.417 129.52 308.071 130.64 307.804 131.76Z" fill="#F2F5F8"/>
<path d="M22.76 534L18.672 526.58H17.524V534H12.736V514.344H20.772C22.3213 514.344 23.6373 514.615 24.72 515.156C25.8213 515.697 26.6427 516.444 27.184 517.396C27.7253 518.329 27.996 519.375 27.996 520.532C27.996 521.839 27.6227 523.005 26.876 524.032C26.148 525.059 25.0653 525.787 23.628 526.216L28.164 534H22.76ZM17.524 523.192H20.492C21.3693 523.192 22.0227 522.977 22.452 522.548C22.9 522.119 23.124 521.512 23.124 520.728C23.124 519.981 22.9 519.393 22.452 518.964C22.0227 518.535 21.3693 518.32 20.492 518.32H17.524V523.192ZM45.7296 525.936C45.7296 526.384 45.7016 526.851 45.6456 527.336H34.8096C34.8843 528.307 35.1923 529.053 35.7336 529.576C36.2936 530.08 36.975 530.332 37.7776 530.332C38.9723 530.332 39.803 529.828 40.2696 528.82H45.3656C45.1043 529.847 44.6283 530.771 43.9376 531.592C43.2656 532.413 42.4163 533.057 41.3896 533.524C40.363 533.991 39.215 534.224 37.9456 534.224C36.415 534.224 35.0523 533.897 33.8576 533.244C32.663 532.591 31.7296 531.657 31.0576 530.444C30.3856 529.231 30.0496 527.812 30.0496 526.188C30.0496 524.564 30.3763 523.145 31.0296 521.932C31.7016 520.719 32.635 519.785 33.8296 519.132C35.0243 518.479 36.3963 518.152 37.9456 518.152C39.4576 518.152 40.8016 518.469 41.9776 519.104C43.1536 519.739 44.0683 520.644 44.7216 521.82C45.3936 522.996 45.7296 524.368 45.7296 525.936ZM40.8296 524.676C40.8296 523.855 40.5496 523.201 39.9896 522.716C39.4296 522.231 38.7296 521.988 37.8896 521.988C37.087 521.988 36.4056 522.221 35.8456 522.688C35.3043 523.155 34.9683 523.817 34.8376 524.676H40.8296ZM68.1915 518.208C70.1329 518.208 71.6729 518.796 72.8115 519.972C73.9689 521.148 74.5475 522.781 74.5475 524.872V534H69.7875V525.516C69.7875 524.508 69.5169 523.733 68.9755 523.192C68.4529 522.632 67.7249 522.352 66.7915 522.352C65.8582 522.352 65.1209 522.632 64.5795 523.192C64.0569 523.733 63.7955 524.508 63.7955 525.516V534H59.0355V525.516C59.0355 524.508 58.7649 523.733 58.2235 523.192C57.7009 522.632 56.9729 522.352 56.0395 522.352C55.1062 522.352 54.3689 522.632 53.8275 523.192C53.3049 523.733 53.0435 524.508 53.0435 525.516V534H48.2555V518.376H53.0435V520.336C53.5289 519.683 54.1635 519.169 54.9475 518.796C55.7315 518.404 56.6182 518.208 57.6075 518.208C58.7835 518.208 59.8289 518.46 60.7435 518.964C61.6769 519.468 62.4049 520.187 62.9275 521.12C63.4689 520.261 64.2062 519.561 65.1395 519.02C66.0729 518.479 67.0902 518.208 68.1915 518.208ZM85.0082 534.224C83.4775 534.224 82.0962 533.897 80.8642 533.244C79.6508 532.591 78.6895 531.657 77.9802 530.444C77.2895 529.231 76.9442 527.812 76.9442 526.188C76.9442 524.583 77.2988 523.173 78.0082 521.96C78.7175 520.728 79.6882 519.785 80.9202 519.132C82.1522 518.479 83.5335 518.152 85.0642 518.152C86.5948 518.152 87.9762 518.479 89.2082 519.132C90.4402 519.785 91.4108 520.728 92.1202 521.96C92.8295 523.173 93.1842 524.583 93.1842 526.188C93.1842 527.793 92.8202 529.212 92.0922 530.444C91.3828 531.657 90.4028 532.591 89.1522 533.244C87.9202 533.897 86.5388 534.224 85.0082 534.224ZM85.0082 530.08C85.9228 530.08 86.6975 529.744 87.3322 529.072C87.9855 528.4 88.3122 527.439 88.3122 526.188C88.3122 524.937 87.9948 523.976 87.3602 523.304C86.7442 522.632 85.9788 522.296 85.0642 522.296C84.1308 522.296 83.3562 522.632 82.7402 523.304C82.1242 523.957 81.8162 524.919 81.8162 526.188C81.8162 527.439 82.1148 528.4 82.7122 529.072C83.3282 529.744 84.0935 530.08 85.0082 530.08ZM104.432 529.94V534H101.996C100.26 534 98.9069 533.58 97.9363 532.74C96.9656 531.881 96.4803 530.491 96.4803 528.568V522.352H94.5763V518.376H96.4803V514.568H101.268V518.376H104.404V522.352H101.268V528.624C101.268 529.091 101.38 529.427 101.604 529.632C101.828 529.837 102.202 529.94 102.724 529.94H104.432ZM121.827 525.936C121.827 526.384 121.799 526.851 121.743 527.336H110.907C110.982 528.307 111.29 529.053 111.831 529.576C112.391 530.08 113.073 530.332 113.875 530.332C115.07 530.332 115.901 529.828 116.367 528.82H121.463C121.202 529.847 120.726 530.771 120.035 531.592C119.363 532.413 118.514 533.057 117.487 533.524C116.461 533.991 115.313 534.224 114.043 534.224C112.513 534.224 111.15 533.897 109.955 533.244C108.761 532.591 107.827 531.657 107.155 530.444C106.483 529.231 106.147 527.812 106.147 526.188C106.147 524.564 106.474 523.145 107.127 521.932C107.799 520.719 108.733 519.785 109.927 519.132C111.122 518.479 112.494 518.152 114.043 518.152C115.555 518.152 116.899 518.469 118.075 519.104C119.251 519.739 120.166 520.644 120.819 521.82C121.491 522.996 121.827 524.368 121.827 525.936ZM116.927 524.676C116.927 523.855 116.647 523.201 116.087 522.716C115.527 522.231 114.827 521.988 113.987 521.988C113.185 521.988 112.503 522.221 111.943 522.688C111.402 523.155 111.066 523.817 110.935 524.676H116.927ZM139.835 534L135.075 527.448V534H130.287V513.28H135.075V524.732L139.807 518.376H145.715L139.219 526.216L145.771 534H139.835ZM162.323 525.936C162.323 526.384 162.295 526.851 162.239 527.336H151.403C151.478 528.307 151.786 529.053 152.327 529.576C152.887 530.08 153.569 530.332 154.371 530.332C155.566 530.332 156.397 529.828 156.863 528.82H161.959C161.698 529.847 161.222 530.771 160.531 531.592C159.859 532.413 159.01 533.057 157.983 533.524C156.957 533.991 155.809 534.224 154.539 534.224C153.009 534.224 151.646 533.897 150.451 533.244C149.257 532.591 148.323 531.657 147.651 530.444C146.979 529.231 146.643 527.812 146.643 526.188C146.643 524.564 146.97 523.145 147.623 521.932C148.295 520.719 149.229 519.785 150.423 519.132C151.618 518.479 152.99 518.152 154.539 518.152C156.051 518.152 157.395 518.469 158.571 519.104C159.747 519.739 160.662 520.644 161.315 521.82C161.987 522.996 162.323 524.368 162.323 525.936ZM157.423 524.676C157.423 523.855 157.143 523.201 156.583 522.716C156.023 522.231 155.323 521.988 154.483 521.988C153.681 521.988 152.999 522.221 152.439 522.688C151.898 523.155 151.562 523.817 151.431 524.676H157.423ZM180.809 518.376L171.009 541.42H165.857L169.441 533.468L163.085 518.376H168.433L172.045 528.148L175.629 518.376H180.809ZM187.329 513.28V534H182.541V513.28H187.329ZM197.911 534.224C196.38 534.224 194.999 533.897 193.767 533.244C192.553 532.591 191.592 531.657 190.883 530.444C190.192 529.231 189.847 527.812 189.847 526.188C189.847 524.583 190.201 523.173 190.91 521.96C191.62 520.728 192.591 519.785 193.823 519.132C195.055 518.479 196.436 518.152 197.967 518.152C199.497 518.152 200.879 518.479 202.111 519.132C203.343 519.785 204.313 520.728 205.023 521.96C205.732 523.173 206.087 524.583 206.087 526.188C206.087 527.793 205.723 529.212 204.995 530.444C204.285 531.657 203.305 532.591 202.055 533.244C200.823 533.897 199.441 534.224 197.911 534.224ZM197.911 530.08C198.825 530.08 199.6 529.744 200.235 529.072C200.888 528.4 201.215 527.439 201.215 526.188C201.215 524.937 200.897 523.976 200.263 523.304C199.647 522.632 198.881 522.296 197.967 522.296C197.033 522.296 196.259 522.632 195.643 523.304C195.027 523.957 194.719 524.919 194.719 526.188C194.719 527.439 195.017 528.4 195.615 529.072C196.231 529.744 196.996 530.08 197.911 530.08ZM214.563 518.152C215.664 518.152 216.625 518.376 217.447 518.824C218.287 519.272 218.931 519.86 219.379 520.588V518.376H224.167V533.972C224.167 535.409 223.877 536.707 223.299 537.864C222.739 539.04 221.871 539.973 220.695 540.664C219.537 541.355 218.091 541.7 216.355 541.7C214.04 541.7 212.164 541.149 210.727 540.048C209.289 538.965 208.468 537.491 208.263 535.624H212.995C213.144 536.221 213.499 536.688 214.059 537.024C214.619 537.379 215.309 537.556 216.131 537.556C217.12 537.556 217.904 537.267 218.483 536.688C219.08 536.128 219.379 535.223 219.379 533.972V531.76C218.912 532.488 218.268 533.085 217.447 533.552C216.625 534 215.664 534.224 214.563 534.224C213.275 534.224 212.108 533.897 211.063 533.244C210.017 532.572 209.187 531.629 208.571 530.416C207.973 529.184 207.675 527.765 207.675 526.16C207.675 524.555 207.973 523.145 208.571 521.932C209.187 520.719 210.017 519.785 211.063 519.132C212.108 518.479 213.275 518.152 214.563 518.152ZM219.379 526.188C219.379 524.993 219.043 524.051 218.371 523.36C217.717 522.669 216.915 522.324 215.963 522.324C215.011 522.324 214.199 522.669 213.527 523.36C212.873 524.032 212.547 524.965 212.547 526.16C212.547 527.355 212.873 528.307 213.527 529.016C214.199 529.707 215.011 530.052 215.963 530.052C216.915 530.052 217.717 529.707 218.371 529.016C219.043 528.325 219.379 527.383 219.379 526.188ZM233.567 518.152C234.668 518.152 235.629 518.376 236.451 518.824C237.291 519.272 237.935 519.86 238.383 520.588V518.376H243.171V533.972C243.171 535.409 242.881 536.707 242.303 537.864C241.743 539.04 240.875 539.973 239.699 540.664C238.541 541.355 237.095 541.7 235.359 541.7C233.044 541.7 231.168 541.149 229.731 540.048C228.293 538.965 227.472 537.491 227.267 535.624H231.999C232.148 536.221 232.503 536.688 233.063 537.024C233.623 537.379 234.313 537.556 235.135 537.556C236.124 537.556 236.908 537.267 237.487 536.688C238.084 536.128 238.383 535.223 238.383 533.972V531.76C237.916 532.488 237.272 533.085 236.451 533.552C235.629 534 234.668 534.224 233.567 534.224C232.279 534.224 231.112 533.897 230.067 533.244C229.021 532.572 228.191 531.629 227.575 530.416C226.977 529.184 226.679 527.765 226.679 526.16C226.679 524.555 226.977 523.145 227.575 521.932C228.191 520.719 229.021 519.785 230.067 519.132C231.112 518.479 232.279 518.152 233.567 518.152ZM238.383 526.188C238.383 524.993 238.047 524.051 237.375 523.36C236.721 522.669 235.919 522.324 234.967 522.324C234.015 522.324 233.203 522.669 232.531 523.36C231.877 524.032 231.551 524.965 231.551 526.16C231.551 527.355 231.877 528.307 232.531 529.016C233.203 529.707 234.015 530.052 234.967 530.052C235.919 530.052 236.721 529.707 237.375 529.016C238.047 528.325 238.383 527.383 238.383 526.188ZM261.362 525.936C261.362 526.384 261.334 526.851 261.278 527.336H250.442C250.517 528.307 250.825 529.053 251.366 529.576C251.926 530.08 252.608 530.332 253.41 530.332C254.605 530.332 255.436 529.828 255.902 528.82H260.998C260.737 529.847 260.261 530.771 259.57 531.592C258.898 532.413 258.049 533.057 257.022 533.524C255.996 533.991 254.848 534.224 253.578 534.224C252.048 534.224 250.685 533.897 249.49 533.244C248.296 532.591 247.362 531.657 246.69 530.444C246.018 529.231 245.682 527.812 245.682 526.188C245.682 524.564 246.009 523.145 246.662 521.932C247.334 520.719 248.268 519.785 249.462 519.132C250.657 518.479 252.029 518.152 253.578 518.152C255.09 518.152 256.434 518.469 257.61 519.104C258.786 519.739 259.701 520.644 260.354 521.82C261.026 522.996 261.362 524.368 261.362 525.936ZM256.462 524.676C256.462 523.855 256.182 523.201 255.622 522.716C255.062 522.231 254.362 521.988 253.522 521.988C252.72 521.988 252.038 522.221 251.478 522.688C250.937 523.155 250.601 523.817 250.47 524.676H256.462ZM268.676 520.98C269.236 520.121 269.936 519.449 270.776 518.964C271.616 518.46 272.55 518.208 273.576 518.208V523.276H272.26C271.066 523.276 270.17 523.537 269.572 524.06C268.975 524.564 268.676 525.46 268.676 526.748V534H263.888V518.376H268.676V520.98Z" fill="white"/>
<rect x="11.5" y="545.5" width="64" height="31" rx="7.5" stroke="#F2F5F8"/>
<path d="M24.688 559.112C24.688 560.04 24.368 560.813 23.728 561.432C23.0987 562.04 22.1333 562.344 20.832 562.344H18.688V567H17.232V555.848H20.832C22.0907 555.848 23.0453 556.152 23.696 556.76C24.3573 557.368 24.688 558.152 24.688 559.112ZM20.832 561.144C21.6427 561.144 22.24 560.968 22.624 560.616C23.008 560.264 23.2 559.763 23.2 559.112C23.2 557.736 22.4107 557.048 20.832 557.048H18.688V561.144H20.832ZM34.0496 558.232L28.7696 571.128H27.2656L28.9936 566.904L25.4576 558.232H27.0736L29.8256 565.336L32.5456 558.232H34.0496ZM37.2893 559.432V564.6C37.2893 565.027 37.3799 565.331 37.5613 565.512C37.7426 565.683 38.0573 565.768 38.5052 565.768H39.5773V567H38.2653C37.4546 567 36.8466 566.813 36.4413 566.44C36.0359 566.067 35.8333 565.453 35.8333 564.6V559.432H34.6973V558.232H35.8333V556.024H37.2893V558.232H39.5773V559.432H37.2893ZM45.6934 558.072C46.3547 558.072 46.952 558.216 47.4854 558.504C48.0187 558.781 48.4347 559.203 48.7334 559.768C49.0427 560.333 49.1974 561.021 49.1974 561.832V567H47.7574V562.04C47.7574 561.165 47.5387 560.499 47.1014 560.04C46.664 559.571 46.0667 559.336 45.3094 559.336C44.5414 559.336 43.928 559.576 43.4694 560.056C43.0214 560.536 42.7974 561.235 42.7974 562.152V567H41.3414V555.16H42.7974V559.48C43.0854 559.032 43.48 558.685 43.9814 558.44C44.4934 558.195 45.064 558.072 45.6934 558.072ZM55.3998 567.144C54.5784 567.144 53.8318 566.957 53.1598 566.584C52.4984 566.211 51.9758 565.683 51.5918 565C51.2184 564.307 51.0318 563.507 51.0318 562.6C51.0318 561.704 51.2238 560.915 51.6078 560.232C52.0024 559.539 52.5358 559.011 53.2078 558.648C53.8798 558.275 54.6318 558.088 55.4638 558.088C56.2958 558.088 57.0478 558.275 57.7198 558.648C58.3918 559.011 58.9198 559.533 59.3038 560.216C59.6984 560.899 59.8958 561.693 59.8958 562.6C59.8958 563.507 59.6931 564.307 59.2878 565C58.8931 565.683 58.3544 566.211 57.6718 566.584C56.9891 566.957 56.2318 567.144 55.3998 567.144ZM55.3998 565.864C55.9224 565.864 56.4131 565.741 56.8718 565.496C57.3304 565.251 57.6984 564.883 57.9758 564.392C58.2638 563.901 58.4078 563.304 58.4078 562.6C58.4078 561.896 58.2691 561.299 57.9918 560.808C57.7144 560.317 57.3518 559.955 56.9038 559.72C56.4558 559.475 55.9704 559.352 55.4478 559.352C54.9144 559.352 54.4238 559.475 53.9758 559.72C53.5384 559.955 53.1864 560.317 52.9198 560.808C52.6531 561.299 52.5198 561.896 52.5198 562.6C52.5198 563.315 52.6478 563.917 52.9038 564.408C53.1704 564.899 53.5224 565.267 53.9598 565.512C54.3971 565.747 54.8771 565.864 55.3998 565.864ZM66.0821 558.072C67.1488 558.072 68.0128 558.397 68.6741 559.048C69.3355 559.688 69.6661 560.616 69.6661 561.832V567H68.2261V562.04C68.2261 561.165 68.0075 560.499 67.5701 560.04C67.1328 559.571 66.5355 559.336 65.7781 559.336C65.0101 559.336 64.3968 559.576 63.9381 560.056C63.4901 560.536 63.2661 561.235 63.2661 562.152V567H61.8101V558.232H63.2661V559.48C63.5541 559.032 63.9435 558.685 64.4341 558.44C64.9355 558.195 65.4848 558.072 66.0821 558.072Z" fill="#F2F5F8"/>
</svg>
