<svg width="147" height="13" viewBox="0 0 147 13" fill="none" xmlns="http://www.w3.org/2000/svg">
<path d="M5.552 7.952C5.088 7.952 4.632 7.896 4.184 7.784C3.744 7.672 3.328 7.528 2.936 7.352C2.76 8.072 2.608 8.86 2.48 9.716C2.448 9.956 2.4 10.176 2.336 10.376C2.272 10.568 2.172 10.724 2.036 10.844C1.9 10.964 1.7 11.024 1.436 11.024C1.188 11.024 1.024 10.928 0.944 10.736C0.864 10.544 0.824 10.308 0.824 10.028C0.824 9.94 0.856 9.712 0.92 9.344C0.984 8.976 1.064 8.532 1.16 8.012C1.256 7.484 1.356 6.94 1.46 6.38C1.132 6.052 0.968 5.752 0.968 5.48C0.968 5.344 1.008 5.216 1.088 5.096C1.176 4.968 1.344 4.904 1.592 4.904C1.624 4.904 1.668 4.916 1.724 4.94C1.804 4.492 1.872 4.092 1.928 3.74C1.992 3.38 2.028 3.12 2.036 2.96C2.052 2.656 2.1 2.432 2.18 2.288C2.26 2.136 2.36 2.036 2.48 1.988C2.608 1.932 2.736 1.904 2.864 1.904C3.032 1.904 3.16 1.94 3.248 2.012C3.336 2.084 3.38 2.244 3.38 2.492C3.38 2.732 3.376 2.952 3.368 3.152C3.76 2.48 4.168 2.008 4.592 1.736C5.016 1.456 5.48 1.316 5.984 1.316C6.48 1.316 6.912 1.452 7.28 1.724C7.648 1.996 7.932 2.388 8.132 2.9C8.34 3.404 8.444 4.012 8.444 4.724C8.444 5.812 8.192 6.624 7.688 7.16C7.192 7.688 6.48 7.952 5.552 7.952ZM3.344 5.936C3.64 6.096 3.956 6.236 4.292 6.356C4.628 6.468 4.972 6.524 5.324 6.524C5.892 6.524 6.308 6.376 6.572 6.08C6.844 5.784 6.98 5.296 6.98 4.616C6.98 3.408 6.616 2.804 5.888 2.804C5.424 2.804 4.972 3.064 4.532 3.584C4.1 4.104 3.704 4.888 3.344 5.936ZM10.8347 10.94C10.5387 10.94 10.3187 10.824 10.1747 10.592C10.0307 10.352 9.95872 9.92 9.95872 9.296C9.95872 8.496 10.0307 7.708 10.1747 6.932C10.3267 6.156 10.5387 5.428 10.8107 4.748C11.0907 4.068 11.4267 3.472 11.8187 2.96C12.2187 2.44 12.6707 2.036 13.1747 1.748C13.6787 1.452 14.2267 1.304 14.8187 1.304C15.6987 1.304 16.3507 1.54 16.7747 2.012C17.2067 2.476 17.4227 3.16 17.4227 4.064C17.4227 4.544 17.3267 4.972 17.1347 5.348C16.9427 5.716 16.6907 6.008 16.3787 6.224C16.0747 6.432 15.7467 6.536 15.3947 6.536C15.1947 6.536 14.9827 6.5 14.7587 6.428C15.1907 6.988 15.6227 7.476 16.0547 7.892C16.4947 8.308 16.9307 8.692 17.3627 9.044C17.8027 9.388 18.2427 9.74 18.6827 10.1C18.9147 10.284 19.0467 10.48 19.0787 10.688C19.1107 10.896 19.0547 11.072 18.9107 11.216C18.7747 11.368 18.5627 11.444 18.2747 11.444C18.0507 11.444 17.7667 11.344 17.4227 11.144C17.0787 10.952 16.7067 10.692 16.3067 10.364C15.9067 10.028 15.5067 9.656 15.1067 9.248C14.7147 8.84 14.3547 8.424 14.0267 8C13.7067 7.576 13.4467 7.172 13.2467 6.788C13.0547 6.404 12.9587 6.076 12.9587 5.804C12.9587 5.548 13.0267 5.352 13.1627 5.216C13.2987 5.072 13.4747 5 13.6907 5C13.8667 5 14.0267 5.024 14.1707 5.072C14.3227 5.12 14.4827 5.144 14.6507 5.144C14.8267 5.144 15.0107 5.096 15.2027 5C15.4027 4.904 15.5707 4.756 15.7067 4.556C15.8427 4.348 15.9107 4.084 15.9107 3.764C15.9107 3.412 15.8107 3.176 15.6107 3.056C15.4187 2.936 15.1587 2.876 14.8307 2.876C14.3747 2.876 13.9627 3.036 13.5947 3.356C13.2267 3.676 12.9067 4.128 12.6347 4.712C12.3627 5.296 12.1427 5.984 11.9747 6.776C11.8147 7.568 11.7067 8.432 11.6507 9.368C11.6187 9.976 11.5387 10.392 11.4107 10.616C11.2827 10.832 11.0907 10.94 10.8347 10.94ZM22.0773 4.592C21.6933 4.592 21.4213 4.552 21.2613 4.472C21.1013 4.392 21.0053 4.296 20.9733 4.184C20.9413 4.072 20.9253 3.976 20.9253 3.896C20.9253 3.888 20.9253 3.884 20.9253 3.884C20.9253 3.708 21.0053 3.54 21.1653 3.38C21.3253 3.212 21.5493 3.096 21.8373 3.032C22.0773 2.984 22.3613 2.936 22.6893 2.888C23.0253 2.832 23.3773 2.784 23.7453 2.744C24.1213 2.696 24.4813 2.66 24.8253 2.636C25.1693 2.612 25.4733 2.6 25.7373 2.6C26.0893 2.6 26.3613 2.652 26.5533 2.756C26.7453 2.852 26.8773 2.964 26.9493 3.092C27.0293 3.22 27.0693 3.328 27.0693 3.416C27.0693 3.496 27.0493 3.576 27.0093 3.656C26.9693 3.736 26.8693 3.816 26.7093 3.896C26.5573 3.976 26.3133 4.052 25.9773 4.124C25.6413 4.196 25.1773 4.264 24.5853 4.328C24.5293 4.336 24.4693 4.344 24.4053 4.352C24.3493 4.696 24.2813 5.108 24.2013 5.588C24.1213 6.06 24.0333 6.556 23.9373 7.076C23.8493 7.588 23.7613 8.08 23.6733 8.552C23.5933 9.016 23.5213 9.412 23.4573 9.74C23.7853 9.708 24.0733 9.684 24.3213 9.668C24.5773 9.652 24.7493 9.644 24.8373 9.644C25.1173 9.644 25.3093 9.704 25.4133 9.824C25.5173 9.936 25.5693 10.084 25.5693 10.268C25.5693 10.34 25.4413 10.452 25.1853 10.604C24.9293 10.756 24.5733 10.92 24.1173 11.096C23.6693 11.272 23.1533 11.428 22.5693 11.564C22.1853 11.652 21.8053 11.72 21.4293 11.768C21.0533 11.816 20.7813 11.84 20.6133 11.84C20.2853 11.84 20.0733 11.78 19.9773 11.66C19.8893 11.54 19.8453 11.388 19.8453 11.204C19.8453 11.044 19.8933 10.88 19.9893 10.712C20.0933 10.544 20.2373 10.424 20.4213 10.352C20.6133 10.28 20.8253 10.212 21.0573 10.148C21.2893 10.084 21.5293 10.028 21.7773 9.98C21.7933 9.772 21.8253 9.496 21.8733 9.152C21.9213 8.808 21.9733 8.432 22.0293 8.024C22.0933 7.608 22.1573 7.188 22.2213 6.764C22.2933 6.332 22.3613 5.928 22.4253 5.552C22.4973 5.168 22.5573 4.836 22.6053 4.556C22.3733 4.58 22.1973 4.592 22.0773 4.592ZM31.8264 12.212C31.5064 12.212 31.2744 12.132 31.1304 11.972C30.9864 11.812 30.9144 11.624 30.9144 11.408C30.9144 11.152 31.0504 10.58 31.3224 9.692C31.5944 8.796 32.0344 7.58 32.6424 6.044C32.3624 6.396 32.0784 6.72 31.7904 7.016C31.5024 7.312 31.2144 7.548 30.9264 7.724C30.6464 7.892 30.3704 7.976 30.0984 7.976C29.4984 7.976 29.0304 7.792 28.6944 7.424C28.3584 7.056 28.1904 6.468 28.1904 5.66C28.1904 4.828 28.2544 4.12 28.3824 3.536C28.5104 2.944 28.6664 2.464 28.8504 2.096C29.0344 1.728 29.2144 1.46 29.3904 1.292C29.5664 1.116 29.7024 1.028 29.7984 1.028C30.0864 1.028 30.3064 1.096 30.4584 1.232C30.6184 1.36 30.6984 1.54 30.6984 1.772C30.6984 1.996 30.6504 2.236 30.5544 2.492C30.4664 2.748 30.3624 3.044 30.2424 3.38C30.1224 3.716 30.0144 4.116 29.9184 4.58C29.8304 5.036 29.7864 5.58 29.7864 6.212C29.7864 6.356 29.8344 6.428 29.9304 6.428C30.2104 6.428 30.4984 6.328 30.7944 6.128C31.0984 5.92 31.3984 5.652 31.6944 5.324C31.9984 4.996 32.2864 4.636 32.5584 4.244C32.8304 3.844 33.0784 3.448 33.3024 3.056C33.5344 2.664 33.7264 2.312 33.8784 2C33.9744 1.816 34.0624 1.648 34.1424 1.496C34.2224 1.336 34.3264 1.212 34.4544 1.124C34.5824 1.028 34.7584 0.98 34.9824 0.98C35.2624 0.98 35.4744 1.056 35.6184 1.208C35.7704 1.36 35.8464 1.576 35.8464 1.856C35.8464 2.016 35.6944 2.456 35.3904 3.176C35.0864 3.888 34.6984 4.956 34.2264 6.38C33.8824 7.42 33.5944 8.292 33.3624 8.996C33.1304 9.7 32.9344 10.268 32.7744 10.7C32.6224 11.124 32.4944 11.444 32.3904 11.66C32.2864 11.876 32.1904 12.02 32.1024 12.092C32.0144 12.172 31.9224 12.212 31.8264 12.212ZM37.0935 11.324C36.9015 11.324 36.7335 11.268 36.5895 11.156C36.4455 11.044 36.3735 10.804 36.3735 10.436C36.3735 10.268 36.4335 10 36.5535 9.632C36.6735 9.264 36.8335 8.832 37.0335 8.336C37.2415 7.832 37.4735 7.3 37.7295 6.74C37.9855 6.18 38.2535 5.624 38.5335 5.072C38.8135 4.52 39.0855 4.008 39.3495 3.536C39.6135 3.064 39.8575 2.664 40.0815 2.336C40.3135 2 40.5015 1.776 40.6455 1.664C40.8535 1.512 41.0615 1.436 41.2695 1.436C41.3815 1.436 41.4895 1.448 41.5935 1.472C41.7055 1.496 41.7975 1.536 41.8695 1.592C42.0375 1.696 42.1855 1.896 42.3135 2.192C42.4495 2.48 42.5695 2.828 42.6735 3.236C42.7855 3.644 42.8775 4.084 42.9495 4.556C43.0295 5.02 43.0975 5.48 43.1535 5.936C43.4575 5.896 43.6655 5.876 43.7775 5.876C44.0175 5.876 44.2295 5.912 44.4135 5.984C44.5975 6.048 44.6935 6.184 44.7015 6.392C44.7175 6.592 44.6535 6.76 44.5095 6.896C44.3735 7.032 44.1975 7.132 43.9815 7.196C43.8855 7.228 43.6535 7.28 43.2855 7.352C43.3095 7.76 43.3215 8.104 43.3215 8.384C43.3215 9.096 43.2815 9.648 43.2015 10.04C43.1295 10.432 43.0335 10.712 42.9135 10.88C42.8015 11.048 42.6815 11.148 42.5535 11.18C42.4335 11.22 42.3255 11.24 42.2295 11.24C42.2215 11.24 42.2135 11.24 42.2055 11.24C41.9735 11.24 41.8015 11.18 41.6895 11.06C41.5855 10.94 41.5335 10.74 41.5335 10.46V9.608C41.5335 9.344 41.5295 9.048 41.5215 8.72C41.5135 8.392 41.4975 8.044 41.4735 7.676C41.0015 7.756 40.5295 7.836 40.0575 7.916C39.5935 7.988 39.1935 8.052 38.8575 8.108C38.7055 8.468 38.5735 8.792 38.4615 9.08C38.3495 9.36 38.2735 9.58 38.2335 9.74C38.1135 10.132 38.0015 10.44 37.8975 10.664C37.7935 10.88 37.6935 11.032 37.5975 11.12C37.5095 11.216 37.4255 11.272 37.3455 11.288C37.2655 11.312 37.1815 11.324 37.0935 11.324ZM39.5175 6.632C39.8535 6.552 40.1775 6.48 40.4895 6.416C40.8015 6.344 41.0975 6.28 41.3775 6.224C41.3375 5.728 41.2895 5.244 41.2335 4.772C41.1775 4.3 41.1135 3.88 41.0415 3.512C40.8335 3.912 40.5895 4.392 40.3095 4.952C40.0375 5.504 39.7735 6.064 39.5175 6.632ZM51.7951 11.792C51.6271 11.792 51.4711 11.752 51.3271 11.672C51.1831 11.592 51.0671 11.452 50.9791 11.252C50.8991 11.052 50.8751 10.772 50.9071 10.412C50.6271 9.468 50.3711 8.528 50.1391 7.592C49.9151 6.656 49.7031 5.692 49.5031 4.7C49.2151 5.356 48.9551 6.028 48.7231 6.716C48.4911 7.396 48.2831 8.04 48.0991 8.648C47.9151 9.248 47.7471 9.752 47.5951 10.16C47.4751 10.52 47.3551 10.788 47.2351 10.964C47.1151 11.132 46.9951 11.24 46.8751 11.288C46.7631 11.344 46.6511 11.372 46.5391 11.372C46.2671 11.372 46.0591 11.308 45.9151 11.18C45.7711 11.052 45.6991 10.82 45.6991 10.484C45.6991 10.308 45.7471 10.04 45.8431 9.68C45.9391 9.312 46.0671 8.892 46.2271 8.42C46.3951 7.94 46.5871 7.44 46.8031 6.92C47.0191 6.392 47.2471 5.88 47.4871 5.384C47.7271 4.888 47.9671 4.44 48.2071 4.04C48.4471 3.632 48.6791 3.308 48.9031 3.068C49.1271 2.828 49.3271 2.708 49.5031 2.708C49.6551 2.708 49.7951 2.724 49.9231 2.756C50.0511 2.78 50.1751 2.852 50.2951 2.972C50.4151 3.084 50.5391 3.272 50.6671 3.536C50.7711 3.736 50.8751 4.024 50.9791 4.4C51.0831 4.768 51.1831 5.192 51.2791 5.672C51.3751 6.144 51.4711 6.64 51.5671 7.16C51.6711 7.68 51.7751 8.188 51.8791 8.684C52.1831 7.3 52.4271 6.084 52.6111 5.036C52.8031 3.98 52.9431 3.152 53.0311 2.552C53.1191 1.952 53.1671 1.636 53.1751 1.604C53.2311 1.372 53.2911 1.212 53.3551 1.124C53.4191 1.028 53.4911 0.972 53.5711 0.956C53.6511 0.932 53.7431 0.92 53.8471 0.92C53.8551 0.92 53.8591 0.92 53.8591 0.92C54.0671 0.92 54.2711 1.004 54.4711 1.172C54.6791 1.34 54.7831 1.568 54.7831 1.856C54.7831 1.952 54.7631 2.168 54.7231 2.504C54.6831 2.832 54.6231 3.248 54.5431 3.752C54.4711 4.248 54.3751 4.8 54.2551 5.408C54.1351 6.008 53.9951 6.636 53.8351 7.292C53.6831 7.94 53.5111 8.584 53.3191 9.224C53.1271 9.864 52.9151 10.464 52.6831 11.024C52.5551 11.344 52.4031 11.552 52.2271 11.648C52.0591 11.744 51.9151 11.792 51.7951 11.792ZM57.5133 11.468C57.1933 11.468 56.9533 11.38 56.7933 11.204C56.6333 11.028 56.5533 10.848 56.5533 10.664C56.5533 10.448 56.5933 10.284 56.6733 10.172C56.7533 10.06 56.9093 9.976 57.1413 9.92C57.4453 9.856 57.7613 9.776 58.0893 9.68C58.4253 9.584 58.7453 9.484 59.0493 9.38C59.3613 9.268 59.6333 9.156 59.8653 9.044C60.0973 8.924 60.2653 8.812 60.3693 8.708C60.2413 8.636 60.0373 8.552 59.7573 8.456C59.4773 8.352 59.1653 8.232 58.8213 8.096C58.4853 7.952 58.1613 7.784 57.8493 7.592C57.5373 7.4 57.2813 7.176 57.0813 6.92C56.8813 6.664 56.7813 6.372 56.7813 6.044C56.7813 5.588 56.8973 5.16 57.1293 4.76C57.3613 4.36 57.6693 3.988 58.0533 3.644C58.4373 3.3 58.8533 2.984 59.3013 2.696C59.7573 2.408 60.2093 2.148 60.6573 1.916C61.1133 1.676 61.5213 1.464 61.8813 1.28C62.0173 1.2 62.1453 1.148 62.2653 1.124C62.3933 1.092 62.5093 1.076 62.6133 1.076C62.9733 1.076 63.2213 1.164 63.3573 1.34C63.4933 1.516 63.5613 1.696 63.5613 1.88C63.5613 2.008 63.5013 2.16 63.3813 2.336C63.2613 2.504 63.0693 2.66 62.8053 2.804C62.5493 2.948 62.2093 3.052 61.7853 3.116C61.7133 3.124 61.6493 3.132 61.5933 3.14C61.2733 3.3 60.9293 3.492 60.5613 3.716C60.1933 3.94 59.8453 4.176 59.5173 4.424C59.1973 4.664 58.9333 4.904 58.7253 5.144C58.5173 5.384 58.4133 5.6 58.4133 5.792C58.4133 6.008 58.5013 6.204 58.6773 6.38C58.8533 6.548 59.0773 6.704 59.3493 6.848C59.6293 6.984 59.9213 7.116 60.2253 7.244C60.5373 7.372 60.8293 7.504 61.1013 7.64C61.3813 7.768 61.6093 7.912 61.7853 8.072C61.9613 8.232 62.0493 8.412 62.0493 8.612C62.0493 8.884 61.9573 9.144 61.7733 9.392C61.5893 9.64 61.3493 9.872 61.0533 10.088C60.7573 10.296 60.4333 10.484 60.0813 10.652C59.7293 10.82 59.3813 10.964 59.0373 11.084C58.7013 11.212 58.3973 11.308 58.1253 11.372C57.8533 11.436 57.6493 11.468 57.5133 11.468ZM65.3038 10.808C65.3038 10.808 65.2998 10.808 65.2918 10.808C65.1638 10.808 65.0358 10.788 64.9078 10.748C64.7798 10.708 64.6758 10.592 64.5958 10.4C64.5158 10.2 64.4758 9.864 64.4758 9.392C64.4758 9.064 64.5198 8.664 64.6078 8.192C64.6958 7.72 64.8078 7.212 64.9438 6.668C65.0878 6.116 65.2438 5.568 65.4118 5.024C65.5798 4.48 65.7398 3.972 65.8918 3.5C66.0518 3.028 66.1918 2.624 66.3118 2.288C66.4398 1.952 66.5318 1.728 66.5878 1.616C66.6438 1.48 66.7358 1.364 66.8638 1.268C66.9998 1.164 67.1398 1.112 67.2838 1.112C67.5798 1.112 67.7718 1.192 67.8598 1.352C67.9478 1.504 67.9918 1.672 67.9918 1.856C67.9918 2.016 67.9238 2.388 67.7878 2.972C67.6518 3.548 67.4358 4.396 67.1398 5.516C67.8118 5.468 68.4998 5.404 69.2038 5.324C69.9158 5.244 70.5438 5.168 71.0878 5.096C71.2158 4.616 71.3398 4.172 71.4598 3.764C71.5798 3.348 71.6838 3 71.7718 2.72C71.8598 2.432 71.9198 2.24 71.9518 2.144C72.0798 1.848 72.2158 1.644 72.3598 1.532C72.5118 1.42 72.6678 1.364 72.8278 1.364C73.0358 1.364 73.2118 1.432 73.3558 1.568C73.5078 1.696 73.5838 1.912 73.5838 2.216C73.5838 2.408 73.5318 2.764 73.4278 3.284C73.3238 3.804 73.1958 4.392 73.0438 5.048C73.1638 5.128 73.2678 5.224 73.3558 5.336C73.4518 5.448 73.4998 5.552 73.4998 5.648C73.4998 5.776 73.4678 5.9 73.4038 6.02C73.3478 6.132 73.2198 6.232 73.0198 6.32C72.9638 6.344 72.8638 6.372 72.7198 6.404C72.5678 7.02 72.4198 7.612 72.2758 8.18C72.1398 8.74 72.0238 9.22 71.9278 9.62C71.8318 10.012 71.7758 10.264 71.7598 10.376C71.7118 10.672 71.6238 10.92 71.4958 11.12C71.3678 11.328 71.1718 11.432 70.9078 11.432C70.7078 11.432 70.5438 11.34 70.4158 11.156C70.2878 10.972 70.2238 10.596 70.2238 10.028C70.2238 9.604 70.2678 9.112 70.3558 8.552C70.4438 7.984 70.5518 7.404 70.6798 6.812C70.0798 6.908 69.4318 6.992 68.7358 7.064C68.0398 7.128 67.3598 7.156 66.6958 7.148C66.4638 8.052 66.2718 8.772 66.1198 9.308C65.9758 9.844 65.8438 10.228 65.7238 10.46C65.6038 10.692 65.4638 10.808 65.3038 10.808ZM86.9579 10.76C86.9579 10.984 86.8819 11.148 86.7299 11.252C86.5779 11.356 86.3779 11.412 86.1299 11.42C85.8499 11.42 85.5299 11.308 85.1699 11.084C84.8179 10.868 84.4459 10.576 84.0539 10.208C83.6619 9.84 83.2779 9.432 82.9019 8.984C82.5259 8.528 82.1779 8.072 81.8579 7.616C81.6499 8.472 81.4739 9.152 81.3299 9.656C81.1859 10.152 81.0419 10.508 80.8979 10.724C80.7619 10.94 80.5979 11.048 80.4059 11.048C80.1259 11.048 79.9379 10.928 79.8419 10.688C79.7459 10.44 79.6979 10.144 79.6979 9.8C79.6979 9.56 79.7139 9.316 79.7459 9.068C79.7859 8.812 79.8459 8.512 79.9259 8.168C80.0059 7.816 80.1139 7.38 80.2499 6.86C80.0739 6.692 79.9859 6.504 79.9859 6.296C79.9859 6.144 80.0259 5.996 80.1059 5.852C80.1939 5.7 80.3579 5.576 80.5979 5.48C80.8219 4.744 81.0139 4.144 81.1739 3.68C81.3339 3.208 81.4779 2.844 81.6059 2.588C81.7339 2.332 81.8499 2.156 81.9539 2.06C82.0659 1.964 82.1819 1.916 82.3019 1.916C82.5259 1.916 82.6979 1.98 82.8179 2.108C82.9379 2.236 82.9979 2.46 82.9979 2.78C82.9979 2.9 82.9619 3.144 82.8899 3.512C82.8259 3.872 82.7019 4.404 82.5179 5.108C83.2219 4.564 83.8699 4.028 84.4619 3.5C85.0539 2.972 85.5699 2.492 86.0099 2.06C86.4579 1.628 86.8219 1.284 87.1019 1.028C87.3819 0.772 87.5619 0.644 87.6419 0.644C87.8739 0.644 88.0579 0.72 88.1939 0.872C88.3379 1.016 88.4099 1.18 88.4099 1.364C88.4099 1.548 88.3299 1.74 88.1699 1.94C87.9939 2.148 87.7579 2.412 87.4619 2.732C87.1659 3.052 86.8339 3.4 86.4659 3.776C86.0979 4.144 85.7099 4.512 85.3019 4.88C84.8939 5.24 84.4819 5.568 84.0659 5.864C83.6579 6.16 83.2619 6.392 82.8779 6.56C82.9579 6.64 83.0419 6.732 83.1299 6.836C83.2259 6.932 83.3259 7.04 83.4299 7.16C83.7019 7.456 84.0259 7.784 84.4019 8.144C84.7779 8.496 85.1619 8.844 85.5539 9.188C85.9539 9.524 86.3139 9.82 86.6339 10.076C86.7459 10.18 86.8259 10.284 86.8739 10.388C86.9299 10.484 86.9579 10.608 86.9579 10.76ZM90.1518 10.808C90.1518 10.808 90.1478 10.808 90.1398 10.808C90.0118 10.808 89.8838 10.788 89.7558 10.748C89.6278 10.708 89.5238 10.592 89.4438 10.4C89.3638 10.2 89.3238 9.864 89.3238 9.392C89.3238 9.064 89.3678 8.664 89.4558 8.192C89.5438 7.72 89.6558 7.212 89.7918 6.668C89.9358 6.116 90.0918 5.568 90.2598 5.024C90.4278 4.48 90.5878 3.972 90.7398 3.5C90.8998 3.028 91.0398 2.624 91.1598 2.288C91.2878 1.952 91.3798 1.728 91.4358 1.616C91.4918 1.48 91.5838 1.364 91.7118 1.268C91.8478 1.164 91.9878 1.112 92.1318 1.112C92.4278 1.112 92.6198 1.192 92.7078 1.352C92.7958 1.504 92.8398 1.672 92.8398 1.856C92.8398 2.016 92.7718 2.388 92.6358 2.972C92.4998 3.548 92.2838 4.396 91.9878 5.516C92.6598 5.468 93.3478 5.404 94.0518 5.324C94.7638 5.244 95.3918 5.168 95.9358 5.096C96.0638 4.616 96.1878 4.172 96.3078 3.764C96.4278 3.348 96.5318 3 96.6198 2.72C96.7078 2.432 96.7678 2.24 96.7998 2.144C96.9278 1.848 97.0638 1.644 97.2078 1.532C97.3598 1.42 97.5158 1.364 97.6758 1.364C97.8838 1.364 98.0598 1.432 98.2038 1.568C98.3558 1.696 98.4318 1.912 98.4318 2.216C98.4318 2.408 98.3798 2.764 98.2758 3.284C98.1718 3.804 98.0438 4.392 97.8918 5.048C98.0118 5.128 98.1158 5.224 98.2038 5.336C98.2998 5.448 98.3478 5.552 98.3478 5.648C98.3478 5.776 98.3158 5.9 98.2518 6.02C98.1958 6.132 98.0678 6.232 97.8678 6.32C97.8118 6.344 97.7118 6.372 97.5678 6.404C97.4158 7.02 97.2678 7.612 97.1238 8.18C96.9878 8.74 96.8718 9.22 96.7758 9.62C96.6798 10.012 96.6238 10.264 96.6078 10.376C96.5598 10.672 96.4718 10.92 96.3438 11.12C96.2158 11.328 96.0198 11.432 95.7558 11.432C95.5558 11.432 95.3918 11.34 95.2638 11.156C95.1358 10.972 95.0718 10.596 95.0718 10.028C95.0718 9.604 95.1158 9.112 95.2038 8.552C95.2918 7.984 95.3998 7.404 95.5278 6.812C94.9278 6.908 94.2798 6.992 93.5838 7.064C92.8878 7.128 92.2078 7.156 91.5438 7.148C91.3118 8.052 91.1198 8.772 90.9678 9.308C90.8238 9.844 90.6918 10.228 90.5718 10.46C90.4518 10.692 90.3118 10.808 90.1518 10.808ZM100.713 11.324C100.521 11.324 100.353 11.268 100.209 11.156C100.065 11.044 99.9927 10.804 99.9927 10.436C99.9927 10.268 100.053 10 100.173 9.632C100.293 9.264 100.453 8.832 100.653 8.336C100.861 7.832 101.093 7.3 101.349 6.74C101.605 6.18 101.873 5.624 102.153 5.072C102.433 4.52 102.705 4.008 102.969 3.536C103.233 3.064 103.477 2.664 103.701 2.336C103.933 2 104.121 1.776 104.265 1.664C104.473 1.512 104.681 1.436 104.889 1.436C105.001 1.436 105.109 1.448 105.213 1.472C105.325 1.496 105.417 1.536 105.489 1.592C105.657 1.696 105.805 1.896 105.933 2.192C106.069 2.48 106.189 2.828 106.293 3.236C106.405 3.644 106.497 4.084 106.569 4.556C106.649 5.02 106.717 5.48 106.773 5.936C107.077 5.896 107.285 5.876 107.397 5.876C107.637 5.876 107.849 5.912 108.033 5.984C108.217 6.048 108.313 6.184 108.321 6.392C108.337 6.592 108.273 6.76 108.129 6.896C107.993 7.032 107.817 7.132 107.601 7.196C107.505 7.228 107.273 7.28 106.905 7.352C106.929 7.76 106.941 8.104 106.941 8.384C106.941 9.096 106.901 9.648 106.821 10.04C106.749 10.432 106.653 10.712 106.533 10.88C106.421 11.048 106.301 11.148 106.173 11.18C106.053 11.22 105.945 11.24 105.849 11.24C105.841 11.24 105.833 11.24 105.825 11.24C105.593 11.24 105.421 11.18 105.309 11.06C105.205 10.94 105.153 10.74 105.153 10.46V9.608C105.153 9.344 105.149 9.048 105.141 8.72C105.133 8.392 105.117 8.044 105.093 7.676C104.621 7.756 104.149 7.836 103.677 7.916C103.213 7.988 102.813 8.052 102.477 8.108C102.325 8.468 102.193 8.792 102.081 9.08C101.969 9.36 101.893 9.58 101.853 9.74C101.733 10.132 101.621 10.44 101.517 10.664C101.413 10.88 101.313 11.032 101.217 11.12C101.129 11.216 101.045 11.272 100.965 11.288C100.885 11.312 100.801 11.324 100.713 11.324ZM103.137 6.632C103.473 6.552 103.797 6.48 104.109 6.416C104.421 6.344 104.717 6.28 104.997 6.224C104.957 5.728 104.909 5.244 104.853 4.772C104.797 4.3 104.733 3.88 104.661 3.512C104.453 3.912 104.209 4.392 103.929 4.952C103.657 5.504 103.393 6.064 103.137 6.632ZM115.414 11.792C115.246 11.792 115.09 11.752 114.946 11.672C114.802 11.592 114.686 11.452 114.598 11.252C114.518 11.052 114.494 10.772 114.526 10.412C114.246 9.468 113.99 8.528 113.758 7.592C113.534 6.656 113.322 5.692 113.122 4.7C112.834 5.356 112.574 6.028 112.342 6.716C112.11 7.396 111.902 8.04 111.718 8.648C111.534 9.248 111.366 9.752 111.214 10.16C111.094 10.52 110.974 10.788 110.854 10.964C110.734 11.132 110.614 11.24 110.494 11.288C110.382 11.344 110.27 11.372 110.158 11.372C109.886 11.372 109.678 11.308 109.534 11.18C109.39 11.052 109.318 10.82 109.318 10.484C109.318 10.308 109.366 10.04 109.462 9.68C109.558 9.312 109.686 8.892 109.846 8.42C110.014 7.94 110.206 7.44 110.422 6.92C110.638 6.392 110.866 5.88 111.106 5.384C111.346 4.888 111.586 4.44 111.826 4.04C112.066 3.632 112.298 3.308 112.522 3.068C112.746 2.828 112.946 2.708 113.122 2.708C113.274 2.708 113.414 2.724 113.542 2.756C113.67 2.78 113.794 2.852 113.914 2.972C114.034 3.084 114.158 3.272 114.286 3.536C114.39 3.736 114.494 4.024 114.598 4.4C114.702 4.768 114.802 5.192 114.898 5.672C114.994 6.144 115.09 6.64 115.186 7.16C115.29 7.68 115.394 8.188 115.498 8.684C115.802 7.3 116.046 6.084 116.23 5.036C116.422 3.98 116.562 3.152 116.65 2.552C116.738 1.952 116.786 1.636 116.794 1.604C116.85 1.372 116.91 1.212 116.974 1.124C117.038 1.028 117.11 0.972 117.19 0.956C117.27 0.932 117.362 0.92 117.466 0.92C117.474 0.92 117.478 0.92 117.478 0.92C117.686 0.92 117.89 1.004 118.09 1.172C118.298 1.34 118.402 1.568 118.402 1.856C118.402 1.952 118.382 2.168 118.342 2.504C118.302 2.832 118.242 3.248 118.162 3.752C118.09 4.248 117.994 4.8 117.874 5.408C117.754 6.008 117.614 6.636 117.454 7.292C117.302 7.94 117.13 8.584 116.938 9.224C116.746 9.864 116.534 10.464 116.302 11.024C116.174 11.344 116.022 11.552 115.846 11.648C115.678 11.744 115.534 11.792 115.414 11.792ZM120.886 11.732C120.654 11.732 120.47 11.668 120.334 11.54C120.206 11.42 120.142 11.248 120.142 11.024C120.142 10.816 120.198 10.64 120.31 10.496C120.422 10.344 120.638 10.2 120.958 10.064C120.982 10.056 121.006 10.048 121.03 10.04C120.83 10 120.69 9.888 120.61 9.704C120.538 9.52 120.502 9.308 120.502 9.068C120.502 8.932 120.526 8.712 120.574 8.408C120.622 8.104 120.682 7.756 120.754 7.364C120.826 6.972 120.902 6.584 120.982 6.2C121.062 5.808 121.13 5.464 121.186 5.168C121.338 4.488 121.534 3.888 121.774 3.368C122.014 2.848 122.338 2.444 122.746 2.156C123.154 1.86 123.678 1.712 124.318 1.712C124.806 1.712 125.286 1.816 125.758 2.024C126.238 2.224 126.674 2.508 127.066 2.876C127.458 3.244 127.77 3.676 128.002 4.172C128.242 4.668 128.362 5.212 128.362 5.804C128.362 6.476 128.098 7.152 127.57 7.832C127.042 8.512 126.302 9.164 125.35 9.788C124.406 10.404 123.302 10.96 122.038 11.456C121.83 11.536 121.642 11.6 121.474 11.648C121.314 11.704 121.118 11.732 120.886 11.732ZM121.918 9.692C123.078 9.228 124.014 8.784 124.726 8.36C125.438 7.936 125.954 7.488 126.274 7.016C126.602 6.544 126.766 6.008 126.766 5.408C126.766 5.072 126.654 4.752 126.43 4.448C126.206 4.144 125.918 3.9 125.566 3.716C125.214 3.524 124.842 3.428 124.45 3.428C124.026 3.428 123.686 3.6 123.43 3.944C123.174 4.28 122.97 4.856 122.818 5.672C122.746 6 122.67 6.356 122.59 6.74C122.518 7.116 122.446 7.48 122.374 7.832C122.31 8.176 122.254 8.464 122.206 8.696C122.166 8.928 122.142 9.064 122.134 9.104C122.094 9.344 122.022 9.54 121.918 9.692ZM130.424 11.324C130.232 11.324 130.064 11.268 129.92 11.156C129.776 11.044 129.704 10.804 129.704 10.436C129.704 10.268 129.764 10 129.884 9.632C130.004 9.264 130.164 8.832 130.364 8.336C130.572 7.832 130.804 7.3 131.06 6.74C131.316 6.18 131.584 5.624 131.864 5.072C132.144 4.52 132.416 4.008 132.68 3.536C132.944 3.064 133.188 2.664 133.412 2.336C133.644 2 133.832 1.776 133.976 1.664C134.184 1.512 134.392 1.436 134.6 1.436C134.712 1.436 134.82 1.448 134.924 1.472C135.036 1.496 135.128 1.536 135.2 1.592C135.368 1.696 135.516 1.896 135.644 2.192C135.78 2.48 135.9 2.828 136.004 3.236C136.116 3.644 136.208 4.084 136.28 4.556C136.36 5.02 136.428 5.48 136.484 5.936C136.788 5.896 136.996 5.876 137.108 5.876C137.348 5.876 137.56 5.912 137.744 5.984C137.928 6.048 138.024 6.184 138.032 6.392C138.048 6.592 137.984 6.76 137.84 6.896C137.704 7.032 137.528 7.132 137.312 7.196C137.216 7.228 136.984 7.28 136.616 7.352C136.64 7.76 136.652 8.104 136.652 8.384C136.652 9.096 136.612 9.648 136.532 10.04C136.46 10.432 136.364 10.712 136.244 10.88C136.132 11.048 136.012 11.148 135.884 11.18C135.764 11.22 135.656 11.24 135.56 11.24C135.552 11.24 135.544 11.24 135.536 11.24C135.304 11.24 135.132 11.18 135.02 11.06C134.916 10.94 134.864 10.74 134.864 10.46V9.608C134.864 9.344 134.86 9.048 134.852 8.72C134.844 8.392 134.828 8.044 134.804 7.676C134.332 7.756 133.86 7.836 133.388 7.916C132.924 7.988 132.524 8.052 132.188 8.108C132.036 8.468 131.904 8.792 131.792 9.08C131.68 9.36 131.604 9.58 131.564 9.74C131.444 10.132 131.332 10.44 131.228 10.664C131.124 10.88 131.024 11.032 130.928 11.12C130.84 11.216 130.756 11.272 130.676 11.288C130.596 11.312 130.512 11.324 130.424 11.324ZM132.848 6.632C133.184 6.552 133.508 6.48 133.82 6.416C134.132 6.344 134.428 6.28 134.708 6.224C134.668 5.728 134.62 5.244 134.564 4.772C134.508 4.3 134.444 3.88 134.372 3.512C134.164 3.912 133.92 4.392 133.64 4.952C133.368 5.504 133.104 6.064 132.848 6.632ZM142.067 11.624C141.771 11.624 141.463 11.552 141.143 11.408C140.823 11.272 140.551 11.04 140.327 10.712C140.111 10.384 140.003 9.948 140.003 9.404C140.003 8.828 140.051 8.232 140.147 7.616C140.251 6.992 140.383 6.38 140.543 5.78C140.711 5.172 140.891 4.6 141.083 4.064C141.283 3.528 141.479 3.052 141.671 2.636C141.871 2.22 142.055 1.896 142.223 1.664C142.399 1.424 142.539 1.304 142.643 1.304C142.859 1.304 143.051 1.384 143.219 1.544C143.395 1.704 143.483 1.948 143.483 2.276C143.483 2.356 143.435 2.552 143.339 2.864C143.251 3.168 143.135 3.548 142.991 4.004C142.855 4.46 142.703 4.956 142.535 5.492C142.375 6.02 142.223 6.556 142.079 7.1C141.943 7.644 141.827 8.156 141.731 8.636C141.643 9.116 141.599 9.528 141.599 9.872C141.599 9.968 141.655 10.016 141.767 10.016C141.927 10.016 142.163 9.976 142.475 9.896C142.795 9.816 143.143 9.716 143.519 9.596C143.903 9.468 144.271 9.344 144.623 9.224C144.975 9.104 145.275 9.004 145.523 8.924C145.771 8.844 145.911 8.804 145.943 8.804C146.143 8.804 146.303 8.86 146.423 8.972C146.543 9.084 146.603 9.244 146.603 9.452C146.603 9.596 146.507 9.764 146.315 9.956C146.123 10.14 145.867 10.332 145.547 10.532C145.227 10.724 144.867 10.9 144.467 11.06C144.075 11.228 143.671 11.364 143.255 11.468C142.839 11.572 142.443 11.624 142.067 11.624Z" fill="black"/>
</svg>
