<svg width="42" height="42" viewBox="0 0 42 42" fill="none" xmlns="http://www.w3.org/2000/svg">
<g clip-path="url(#clip0_3_28)">
<rect width="42" height="42" rx="4" fill="#0D0F12"/>
<g filter="url(#filter0_d_3_28)">
<mask id="path-2-outside-1_3_28" maskUnits="userSpaceOnUse" x="4" y="9" width="36" height="22" fill="black">
<rect fill="white" x="4" y="9" width="36" height="22"/>
<path d="M14.012 23.412C13.1613 23.412 12.3253 23.3093 11.504 23.104C10.6973 22.8987 9.93467 22.6347 9.216 22.312C8.89333 23.632 8.61467 25.0767 8.38 26.646C8.32133 27.086 8.23333 27.4893 8.116 27.856C7.99867 28.208 7.81533 28.494 7.566 28.714C7.31667 28.934 6.95 29.044 6.466 29.044C6.01133 29.044 5.71067 28.868 5.564 28.516C5.41733 28.164 5.344 27.7313 5.344 27.218C5.344 27.0567 5.40267 26.6387 5.52 25.964C5.63733 25.2893 5.784 24.4753 5.96 23.522C6.136 22.554 6.31933 21.5567 6.51 20.53C5.90867 19.9287 5.608 19.3787 5.608 18.88C5.608 18.6307 5.68133 18.396 5.828 18.176C5.98933 17.9413 6.29733 17.824 6.752 17.824C6.81067 17.824 6.89133 17.846 6.994 17.89C7.14067 17.0687 7.26533 16.3353 7.368 15.69C7.48533 15.03 7.55133 14.5533 7.566 14.26C7.59533 13.7027 7.68333 13.292 7.83 13.028C7.97667 12.7493 8.16 12.566 8.38 12.478C8.61467 12.3753 8.84933 12.324 9.084 12.324C9.392 12.324 9.62667 12.39 9.788 12.522C9.94933 12.654 10.03 12.9473 10.03 13.402C10.03 13.842 10.0227 14.2453 10.008 14.612C10.7267 13.38 11.4747 12.5147 12.252 12.016C13.0293 11.5027 13.88 11.246 14.804 11.246C15.7133 11.246 16.5053 11.4953 17.18 11.994C17.8547 12.4927 18.3753 13.2113 18.742 14.15C19.1233 15.074 19.314 16.1887 19.314 17.494C19.314 19.4887 18.852 20.9773 17.928 21.96C17.0187 22.928 15.7133 23.412 14.012 23.412ZM9.964 19.716C10.5067 20.0093 11.086 20.266 11.702 20.486C12.318 20.6913 12.9487 20.794 13.594 20.794C14.6353 20.794 15.398 20.5227 15.882 19.98C16.3807 19.4373 16.63 18.5427 16.63 17.296C16.63 15.0813 15.9627 13.974 14.628 13.974C13.7773 13.974 12.9487 14.4507 12.142 15.404C11.35 16.3573 10.624 17.7947 9.964 19.716ZM35.4036 28.56C35.4036 28.9707 35.2642 29.2713 34.9856 29.462C34.7069 29.6527 34.3402 29.7553 33.8856 29.77C33.3722 29.77 32.7856 29.5647 32.1256 29.154C31.4802 28.758 30.7982 28.2227 30.0796 27.548C29.3609 26.8733 28.6569 26.1253 27.9676 25.304C27.2782 24.468 26.6402 23.632 26.0536 22.796C25.6722 24.3653 25.3496 25.612 25.0856 26.536C24.8216 27.4453 24.5576 28.098 24.2936 28.494C24.0442 28.89 23.7436 29.088 23.3916 29.088C22.8782 29.088 22.5336 28.868 22.3576 28.428C22.1816 27.9733 22.0936 27.4307 22.0936 26.8C22.0936 26.36 22.1229 25.9127 22.1816 25.458C22.2549 24.9887 22.3649 24.4387 22.5116 23.808C22.6582 23.1627 22.8562 22.3633 23.1056 21.41C22.7829 21.102 22.6216 20.7573 22.6216 20.376C22.6216 20.0973 22.6949 19.826 22.8416 19.562C23.0029 19.2833 23.3036 19.056 23.7436 18.88C24.1542 17.5307 24.5062 16.4307 24.7996 15.58C25.0929 14.7147 25.3569 14.0473 25.5916 13.578C25.8262 13.1087 26.0389 12.786 26.2296 12.61C26.4349 12.434 26.6476 12.346 26.8676 12.346C27.2782 12.346 27.5936 12.4633 27.8136 12.698C28.0336 12.9327 28.1436 13.3433 28.1436 13.93C28.1436 14.15 28.0776 14.5973 27.9456 15.272C27.8282 15.932 27.6009 16.9073 27.2636 18.198C28.5542 17.2007 29.7422 16.218 30.8276 15.25C31.9129 14.282 32.8589 13.402 33.6656 12.61C34.4869 11.818 35.1542 11.1873 35.6676 10.718C36.1809 10.2487 36.5109 10.014 36.6576 10.014C37.0829 10.014 37.4202 10.1533 37.6696 10.432C37.9336 10.696 38.0656 10.9967 38.0656 11.334C38.0656 11.6713 37.9189 12.0233 37.6256 12.39C37.3029 12.7713 36.8702 13.2553 36.3276 13.842C35.7849 14.4287 35.1762 15.0667 34.5016 15.756C33.8269 16.4307 33.1156 17.1053 32.3676 17.78C31.6196 18.44 30.8642 19.0413 30.1016 19.584C29.3536 20.1267 28.6276 20.552 27.9236 20.86C28.0702 21.0067 28.2242 21.1753 28.3856 21.366C28.5616 21.542 28.7449 21.74 28.9356 21.96C29.4342 22.5027 30.0282 23.104 30.7176 23.764C31.4069 24.4093 32.1109 25.0473 32.8296 25.678C33.5629 26.294 34.2229 26.8367 34.8096 27.306C35.0149 27.4967 35.1616 27.6873 35.2496 27.878C35.3522 28.054 35.4036 28.2813 35.4036 28.56Z"/>
</mask>
<path d="M14.012 23.412C13.1613 23.412 12.3253 23.3093 11.504 23.104C10.6973 22.8987 9.93467 22.6347 9.216 22.312C8.89333 23.632 8.61467 25.0767 8.38 26.646C8.32133 27.086 8.23333 27.4893 8.116 27.856C7.99867 28.208 7.81533 28.494 7.566 28.714C7.31667 28.934 6.95 29.044 6.466 29.044C6.01133 29.044 5.71067 28.868 5.564 28.516C5.41733 28.164 5.344 27.7313 5.344 27.218C5.344 27.0567 5.40267 26.6387 5.52 25.964C5.63733 25.2893 5.784 24.4753 5.96 23.522C6.136 22.554 6.31933 21.5567 6.51 20.53C5.90867 19.9287 5.608 19.3787 5.608 18.88C5.608 18.6307 5.68133 18.396 5.828 18.176C5.98933 17.9413 6.29733 17.824 6.752 17.824C6.81067 17.824 6.89133 17.846 6.994 17.89C7.14067 17.0687 7.26533 16.3353 7.368 15.69C7.48533 15.03 7.55133 14.5533 7.566 14.26C7.59533 13.7027 7.68333 13.292 7.83 13.028C7.97667 12.7493 8.16 12.566 8.38 12.478C8.61467 12.3753 8.84933 12.324 9.084 12.324C9.392 12.324 9.62667 12.39 9.788 12.522C9.94933 12.654 10.03 12.9473 10.03 13.402C10.03 13.842 10.0227 14.2453 10.008 14.612C10.7267 13.38 11.4747 12.5147 12.252 12.016C13.0293 11.5027 13.88 11.246 14.804 11.246C15.7133 11.246 16.5053 11.4953 17.18 11.994C17.8547 12.4927 18.3753 13.2113 18.742 14.15C19.1233 15.074 19.314 16.1887 19.314 17.494C19.314 19.4887 18.852 20.9773 17.928 21.96C17.0187 22.928 15.7133 23.412 14.012 23.412ZM9.964 19.716C10.5067 20.0093 11.086 20.266 11.702 20.486C12.318 20.6913 12.9487 20.794 13.594 20.794C14.6353 20.794 15.398 20.5227 15.882 19.98C16.3807 19.4373 16.63 18.5427 16.63 17.296C16.63 15.0813 15.9627 13.974 14.628 13.974C13.7773 13.974 12.9487 14.4507 12.142 15.404C11.35 16.3573 10.624 17.7947 9.964 19.716ZM35.4036 28.56C35.4036 28.9707 35.2642 29.2713 34.9856 29.462C34.7069 29.6527 34.3402 29.7553 33.8856 29.77C33.3722 29.77 32.7856 29.5647 32.1256 29.154C31.4802 28.758 30.7982 28.2227 30.0796 27.548C29.3609 26.8733 28.6569 26.1253 27.9676 25.304C27.2782 24.468 26.6402 23.632 26.0536 22.796C25.6722 24.3653 25.3496 25.612 25.0856 26.536C24.8216 27.4453 24.5576 28.098 24.2936 28.494C24.0442 28.89 23.7436 29.088 23.3916 29.088C22.8782 29.088 22.5336 28.868 22.3576 28.428C22.1816 27.9733 22.0936 27.4307 22.0936 26.8C22.0936 26.36 22.1229 25.9127 22.1816 25.458C22.2549 24.9887 22.3649 24.4387 22.5116 23.808C22.6582 23.1627 22.8562 22.3633 23.1056 21.41C22.7829 21.102 22.6216 20.7573 22.6216 20.376C22.6216 20.0973 22.6949 19.826 22.8416 19.562C23.0029 19.2833 23.3036 19.056 23.7436 18.88C24.1542 17.5307 24.5062 16.4307 24.7996 15.58C25.0929 14.7147 25.3569 14.0473 25.5916 13.578C25.8262 13.1087 26.0389 12.786 26.2296 12.61C26.4349 12.434 26.6476 12.346 26.8676 12.346C27.2782 12.346 27.5936 12.4633 27.8136 12.698C28.0336 12.9327 28.1436 13.3433 28.1436 13.93C28.1436 14.15 28.0776 14.5973 27.9456 15.272C27.8282 15.932 27.6009 16.9073 27.2636 18.198C28.5542 17.2007 29.7422 16.218 30.8276 15.25C31.9129 14.282 32.8589 13.402 33.6656 12.61C34.4869 11.818 35.1542 11.1873 35.6676 10.718C36.1809 10.2487 36.5109 10.014 36.6576 10.014C37.0829 10.014 37.4202 10.1533 37.6696 10.432C37.9336 10.696 38.0656 10.9967 38.0656 11.334C38.0656 11.6713 37.9189 12.0233 37.6256 12.39C37.3029 12.7713 36.8702 13.2553 36.3276 13.842C35.7849 14.4287 35.1762 15.0667 34.5016 15.756C33.8269 16.4307 33.1156 17.1053 32.3676 17.78C31.6196 18.44 30.8642 19.0413 30.1016 19.584C29.3536 20.1267 28.6276 20.552 27.9236 20.86C28.0702 21.0067 28.2242 21.1753 28.3856 21.366C28.5616 21.542 28.7449 21.74 28.9356 21.96C29.4342 22.5027 30.0282 23.104 30.7176 23.764C31.4069 24.4093 32.1109 25.0473 32.8296 25.678C33.5629 26.294 34.2229 26.8367 34.8096 27.306C35.0149 27.4967 35.1616 27.6873 35.2496 27.878C35.3522 28.054 35.4036 28.2813 35.4036 28.56Z" fill="#F2F5F8"/>
<path d="M11.504 23.104L11.2573 24.0731L11.2615 24.0741L11.504 23.104ZM9.216 22.312L9.62559 21.3997L8.52982 20.9078L8.2446 22.0745L9.216 22.312ZM8.38 26.646L7.391 26.4981L7.38982 26.506L7.38877 26.5138L8.38 26.646ZM8.116 27.856L9.06475 28.1723L9.06842 28.1608L8.116 27.856ZM7.566 28.714L8.22762 29.4638L8.22762 29.4638L7.566 28.714ZM5.564 28.516L4.64092 28.9006L4.64092 28.9006L5.564 28.516ZM5.96 23.522L6.94339 23.7035L6.94387 23.7009L5.96 23.522ZM6.51 20.53L7.49319 20.7126L7.5893 20.1951L7.21711 19.8229L6.51 20.53ZM5.828 18.176L5.00396 17.6095L4.99991 17.6154L4.99595 17.6213L5.828 18.176ZM6.994 17.89L6.60008 18.8091L7.75714 19.305L7.97843 18.0658L6.994 17.89ZM7.368 15.69L6.38344 15.515L6.38185 15.5239L6.38042 15.5329L7.368 15.69ZM7.566 14.26L6.56738 14.2074L6.56725 14.2101L7.566 14.26ZM7.83 13.028L8.70416 13.5136L8.70965 13.5038L8.71492 13.4937L7.83 13.028ZM8.38 12.478L8.75139 13.4065L8.7662 13.4006L8.78082 13.3942L8.38 12.478ZM9.788 12.522L9.15476 13.296L9.15476 13.296L9.788 12.522ZM10.008 14.612L9.0088 14.572L10.8718 15.1159L10.008 14.612ZM12.252 12.016L12.792 12.8578L12.8031 12.8505L12.252 12.016ZM17.18 11.994L17.7744 11.1898L17.7744 11.1898L17.18 11.994ZM18.742 14.15L17.8105 14.5138L17.814 14.5227L17.8176 14.5315L18.742 14.15ZM17.928 21.96L17.1995 21.275L17.1992 21.2753L17.928 21.96ZM9.964 19.716L9.01824 19.3911L8.7429 20.1927L9.48848 20.5957L9.964 19.716ZM11.702 20.486L11.3657 21.4277L11.3757 21.4313L11.3858 21.4347L11.702 20.486ZM15.882 19.98L15.1457 19.3034L15.1406 19.3088L15.1357 19.3144L15.882 19.98ZM12.142 15.404L11.3786 14.758L11.3728 14.765L12.142 15.404ZM14.012 22.412C13.2427 22.412 12.4882 22.3193 11.7465 22.1339L11.2615 24.0741C12.1625 24.2994 13.08 24.412 14.012 24.412V22.412ZM11.7507 22.1349C10.9967 21.943 10.2888 21.6975 9.62559 21.3997L8.80641 23.2243C9.58051 23.5718 10.3979 23.8543 11.2573 24.0731L11.7507 22.1349ZM8.2446 22.0745C7.91363 23.4285 7.62944 24.9035 7.391 26.4981L9.369 26.7939C9.59989 25.2498 9.87304 23.8355 10.1874 22.5495L8.2446 22.0745ZM7.38877 26.5138C7.33676 26.9039 7.26042 27.2486 7.16358 27.5512L9.06842 28.1608C9.20625 27.7301 9.30591 27.2681 9.37123 26.7782L7.38877 26.5138ZM7.16732 27.5398C7.09914 27.7443 7.00661 27.874 6.90438 27.9642L8.22762 29.4638C8.62405 29.114 8.89819 28.6717 9.06468 28.1722L7.16732 27.5398ZM6.90438 27.9642C6.90321 27.9652 6.88253 27.9839 6.81665 28.0037C6.74736 28.0245 6.63511 28.044 6.466 28.044V30.044C7.08466 30.044 7.72772 29.9049 8.22762 29.4638L6.90438 27.9642ZM6.466 28.044C6.36342 28.044 6.36184 28.0239 6.40468 28.049C6.42639 28.0617 6.44819 28.0797 6.46586 28.1006C6.48288 28.1207 6.48818 28.134 6.48708 28.1314L4.64092 28.9006C4.7895 29.2572 5.03846 29.5667 5.39432 29.775C5.73783 29.9761 6.11392 30.044 6.466 30.044V28.044ZM6.48708 28.1314C6.40548 27.9355 6.344 27.6424 6.344 27.218H4.344C4.344 27.8203 4.42919 28.3925 4.64092 28.9006L6.48708 28.1314ZM6.344 27.218C6.344 27.2279 6.34374 27.2106 6.34991 27.1496C6.35552 27.0942 6.3647 27.0194 6.37829 26.9225C6.40548 26.7288 6.44742 26.4676 6.50521 26.1353L4.53479 25.7927C4.42362 26.4319 4.344 26.9499 4.344 27.218H6.344ZM6.50521 26.1353C6.62177 25.4652 6.76778 24.6548 6.94338 23.7035L4.97662 23.3405C4.80023 24.2959 4.6529 25.1135 4.53479 25.7927L6.50521 26.1353ZM6.94387 23.7009C7.11963 22.7342 7.30274 21.7381 7.49319 20.7126L5.52681 20.3474C5.33593 21.3752 5.15237 22.3738 4.97613 23.3431L6.94387 23.7009ZM7.21711 19.8229C6.67949 19.2853 6.608 18.9786 6.608 18.88H4.608C4.608 19.7787 5.13784 20.5721 5.80289 21.2371L7.21711 19.8229ZM6.608 18.88C6.608 18.8403 6.61593 18.7969 6.66005 18.7307L4.99595 17.6213C4.74674 17.9951 4.608 18.421 4.608 18.88H6.608ZM6.65204 18.7425C6.62902 18.776 6.60205 18.8028 6.5765 18.822C6.55194 18.8404 6.5356 18.8466 6.536 18.8465C6.53707 18.8461 6.55343 18.8401 6.59056 18.8344C6.62763 18.8287 6.68052 18.824 6.752 18.824V16.824C6.16949 16.824 5.44253 16.9715 5.00396 17.6095L6.65204 18.7425ZM6.752 18.824C6.70525 18.824 6.66838 18.8197 6.64416 18.8159C6.61958 18.812 6.60223 18.8077 6.59338 18.8053C6.57716 18.8008 6.57809 18.7997 6.60008 18.8091L7.38792 16.9709C7.25295 16.913 7.01939 16.824 6.752 16.824V18.824ZM7.97843 18.0658C8.12592 17.2398 8.2517 16.5001 8.35558 15.8471L6.38042 15.5329C6.27897 16.1706 6.15542 16.8975 6.00957 17.7142L7.97843 18.0658ZM8.35256 15.865C8.47036 15.2024 8.54667 14.6717 8.56475 14.3099L6.56725 14.2101C6.556 14.435 6.5003 14.8576 6.38344 15.515L8.35256 15.865ZM8.56462 14.3126C8.59163 13.7993 8.67025 13.5747 8.70416 13.5136L6.95584 12.5424C6.69642 13.0093 6.59904 13.606 6.56738 14.2074L8.56462 14.3126ZM8.71492 13.4937C8.75112 13.425 8.77733 13.3959 8.78461 13.3886C8.7896 13.3836 8.77854 13.3956 8.75139 13.4065L8.00861 11.5495C7.50416 11.7513 7.16566 12.1432 6.94508 12.5623L8.71492 13.4937ZM8.78082 13.3942C8.90076 13.3417 8.99949 13.324 9.084 13.324V11.324C8.69918 11.324 8.32857 11.409 7.97918 11.5618L8.78082 13.3942ZM9.084 13.324C9.16934 13.324 9.21063 13.3334 9.22025 13.3362C9.22726 13.3381 9.19716 13.3306 9.15476 13.296L10.4212 11.748C10.0133 11.4142 9.51631 11.324 9.084 11.324V13.324ZM9.15476 13.296C9.08496 13.2388 9.04489 13.1812 9.02471 13.1458C9.00535 13.1117 9.00206 13.0944 9.00529 13.1062C9.00836 13.1173 9.01502 13.1464 9.02064 13.1985C9.02619 13.2499 9.03 13.317 9.03 13.402H11.03C11.03 13.1246 11.0064 12.8402 10.9337 12.5758C10.8625 12.317 10.7206 11.993 10.4212 11.748L9.15476 13.296ZM9.03 13.402C9.03 13.8312 9.02284 14.221 9.0088 14.572L11.0072 14.652C11.0225 14.2697 11.03 13.8528 11.03 13.402H9.03ZM10.8718 15.1159C11.5501 13.9531 12.2008 13.2369 12.792 12.8577L11.712 11.1743C10.7486 11.7924 9.90326 12.8069 9.14422 14.1081L10.8718 15.1159ZM12.8031 12.8505C13.4183 12.4442 14.0776 12.246 14.804 12.246V10.246C13.6824 10.246 12.6404 10.5612 11.7009 11.1815L12.8031 12.8505ZM14.804 12.246C15.5183 12.246 16.0977 12.4375 16.5856 12.7982L17.7744 11.1898C16.913 10.5531 15.9083 10.246 14.804 10.246V12.246ZM16.5856 12.7982C17.0806 13.164 17.4986 13.7152 17.8105 14.5138L19.6735 13.7861C19.2521 12.7075 18.6288 11.8213 17.7744 11.1898L16.5856 12.7982ZM17.8176 14.5315C18.1363 15.3037 18.314 16.2815 18.314 17.494H20.314C20.314 16.0959 20.1104 14.8443 19.6664 13.7685L17.8176 14.5315ZM18.314 17.494C18.314 19.3541 17.8813 20.5498 17.1995 21.275L18.6565 22.645C19.8227 21.4048 20.314 19.6232 20.314 17.494H18.314ZM17.1992 21.2753C16.5285 21.9892 15.5194 22.412 14.012 22.412V24.412C15.9073 24.412 17.5088 23.8668 18.6568 22.6447L17.1992 21.2753ZM9.48848 20.5957C10.0785 20.9146 10.7046 21.1917 11.3657 21.4277L12.0383 19.5443C11.4674 19.3403 10.9348 19.104 10.4395 18.8363L9.48848 20.5957ZM11.3858 21.4347C12.1031 21.6738 12.8405 21.794 13.594 21.794V19.794C13.0568 19.794 12.5329 19.7089 12.0182 19.5373L11.3858 21.4347ZM13.594 21.794C14.7942 21.794 15.8842 21.4799 16.6283 20.6456L15.1357 19.3144C14.9118 19.5655 14.4765 19.794 13.594 19.794V21.794ZM16.6183 20.6566C17.3707 19.8379 17.63 18.6324 17.63 17.296H15.63C15.63 18.4529 15.3907 19.0368 15.1457 19.3034L16.6183 20.6566ZM17.63 17.296C17.63 16.1208 17.4588 15.0728 16.986 14.2883C16.4643 13.4227 15.632 12.974 14.628 12.974V14.974C14.9586 14.974 15.1273 15.0789 15.273 15.3207C15.4676 15.6435 15.63 16.2565 15.63 17.296H17.63ZM14.628 12.974C13.3666 12.974 12.2842 13.6878 11.3786 14.7581L12.9054 16.0499C13.6131 15.2135 14.1881 14.974 14.628 14.974V12.974ZM11.3728 14.765C10.4697 15.8521 9.69571 17.4189 9.01824 19.3911L10.9098 20.0409C11.5523 18.1704 12.2303 16.8626 12.9112 16.043L11.3728 14.765ZM34.9856 29.462L34.4209 28.6367L34.4209 28.6367L34.9856 29.462ZM33.8856 29.77V30.77H33.9017L33.9178 30.7695L33.8856 29.77ZM32.1256 29.154L32.6539 28.3049L32.6486 28.3017L32.1256 29.154ZM30.0796 27.548L29.3951 28.2771L29.3951 28.2771L30.0796 27.548ZM27.9676 25.304L27.196 25.9402L27.2016 25.9469L27.9676 25.304ZM26.0536 22.796L26.8721 22.2216L25.6034 20.4136L25.0818 22.5599L26.0536 22.796ZM25.0856 26.536L26.0459 26.8148L26.0471 26.8107L25.0856 26.536ZM24.2936 28.494L23.4615 27.9393L23.4543 27.9502L23.4473 27.9612L24.2936 28.494ZM22.3576 28.428L21.4249 28.789L21.4291 28.7994L22.3576 28.428ZM22.1816 25.458L21.1936 25.3036L21.1915 25.3168L21.1898 25.33L22.1816 25.458ZM22.5116 23.808L23.4856 24.0345L23.4867 24.0296L22.5116 23.808ZM23.1056 21.41L24.073 21.663L24.222 21.0933L23.796 20.6866L23.1056 21.41ZM22.8416 19.562L21.9761 19.061L21.9717 19.0686L21.9674 19.0764L22.8416 19.562ZM23.7436 18.88L24.115 19.8085L24.5605 19.6303L24.7002 19.1712L23.7436 18.88ZM24.7996 15.58L25.7449 15.906L25.7466 15.901L24.7996 15.58ZM26.2296 12.61L25.5788 11.8507L25.5648 11.8627L25.5513 11.8752L26.2296 12.61ZM27.8136 12.698L28.5431 12.0141L28.5431 12.0141L27.8136 12.698ZM27.9456 15.272L26.9642 15.08L26.9625 15.0885L26.961 15.097L27.9456 15.272ZM27.2636 18.198L26.2961 17.9451L25.5545 20.7824L27.875 18.9893L27.2636 18.198ZM30.8276 15.25L30.1619 14.5037L30.1619 14.5037L30.8276 15.25ZM33.6656 12.61L32.9714 11.8901L32.965 11.8964L33.6656 12.61ZM35.6676 10.718L34.9928 9.97997L34.9928 9.97997L35.6676 10.718ZM37.6696 10.432L36.9243 11.0988L36.9428 11.1195L36.9625 11.1391L37.6696 10.432ZM37.6256 12.39L38.389 13.0359L38.3978 13.0254L38.4064 13.0147L37.6256 12.39ZM36.3276 13.842L37.0617 14.521L37.0617 14.521L36.3276 13.842ZM34.5016 15.756L35.2087 16.4631L35.2162 16.4555L34.5016 15.756ZM32.3676 17.78L33.0292 18.5299L33.0373 18.5226L32.3676 17.78ZM30.1016 19.584L29.5218 18.7692L29.5143 18.7746L30.1016 19.584ZM27.9236 20.86L27.5227 19.9438L26.1804 20.5311L27.2165 21.5671L27.9236 20.86ZM28.3856 21.366L27.6222 22.0119L27.649 22.0437L27.6785 22.0731L28.3856 21.366ZM28.9356 21.96L28.1799 22.6149L28.1894 22.6259L28.1992 22.6366L28.9356 21.96ZM30.7176 23.764L30.0259 24.4864L30.0341 24.494L30.7176 23.764ZM32.8296 25.678L32.17 26.4296L32.1781 26.4368L32.1864 26.4437L32.8296 25.678ZM34.8096 27.306L35.49 26.5732L35.463 26.5481L35.4343 26.5251L34.8096 27.306ZM35.2496 27.878L34.3416 28.2971L34.3617 28.3405L34.3858 28.3819L35.2496 27.878ZM34.4036 28.56C34.4036 28.654 34.3876 28.6821 34.3918 28.673C34.3939 28.6684 34.3988 28.6598 34.4068 28.6504C34.4105 28.6461 34.4139 28.6426 34.4167 28.6401C34.4195 28.6376 34.4211 28.6365 34.4209 28.6367L35.5502 30.2873C36.1622 29.8686 36.4036 29.2195 36.4036 28.56H34.4036ZM34.4209 28.6367C34.3453 28.6884 34.1818 28.7599 33.8533 28.7705L33.9178 30.7695C34.4986 30.7507 35.0685 30.6169 35.5502 30.2873L34.4209 28.6367ZM33.8856 28.77C33.6316 28.77 33.231 28.6641 32.6539 28.3049L31.5973 30.0031C32.3401 30.4653 33.1129 30.77 33.8856 30.77V28.77ZM32.6486 28.3017C32.0754 27.9499 31.4471 27.4602 30.764 26.8189L29.3951 28.2771C30.1493 28.9851 30.8851 29.5661 31.6025 30.0063L32.6486 28.3017ZM30.764 26.8189C30.0766 26.1736 29.3996 25.4548 28.7335 24.6611L27.2016 25.9469C27.9142 26.7959 28.6452 27.5731 29.3951 28.2771L30.764 26.8189ZM28.7391 24.6678C28.0652 23.8506 27.4431 23.0352 26.8721 22.2216L25.235 23.3704C25.8374 24.2288 26.4912 25.0854 27.196 25.9402L28.7391 24.6678ZM25.0818 22.5599C24.7019 24.1237 24.3828 25.3558 24.124 26.2613L26.0471 26.8107C26.3164 25.8682 26.6426 24.607 27.0253 23.0321L25.0818 22.5599ZM24.1252 26.2572C23.8674 27.1454 23.6371 27.6758 23.4615 27.9393L25.1256 29.0487C25.478 28.5202 25.7758 27.7453 26.0459 26.8148L24.1252 26.2572ZM23.4473 27.9612C23.3769 28.0731 23.3322 28.1036 23.3311 28.1043C23.331 28.1044 23.3333 28.1029 23.3378 28.1007C23.3424 28.0986 23.3484 28.0961 23.3556 28.0939C23.3712 28.0892 23.3844 28.088 23.3916 28.088V30.088C24.1974 30.088 24.775 29.6062 25.1398 29.0268L23.4473 27.9612ZM23.3916 28.088C23.3341 28.088 23.301 28.0818 23.2866 28.0781C23.2734 28.0747 23.2759 28.0735 23.2861 28.0801C23.2968 28.0869 23.3041 28.0946 23.3063 28.0974C23.3077 28.0991 23.2989 28.0887 23.286 28.0566L21.4291 28.7994C21.582 29.1816 21.8345 29.5262 22.21 29.7659C22.5796 30.0018 22.9927 30.088 23.3916 30.088V28.088ZM23.2901 28.067C23.1697 27.7558 23.0936 27.3417 23.0936 26.8H21.0936C21.0936 27.5196 21.1935 28.1909 21.425 28.789L23.2901 28.067ZM23.0936 26.8C23.0936 26.4045 23.1199 26 23.1733 25.586L21.1898 25.33C21.1259 25.8254 21.0936 26.3155 21.0936 26.8H23.0936ZM23.1696 25.6124C23.2381 25.1741 23.3426 24.6492 23.4856 24.0345L21.5376 23.5815C21.3872 24.2281 21.2717 24.8032 21.1936 25.3036L23.1696 25.6124ZM23.4867 24.0296C23.6301 23.3985 23.8252 22.6104 24.073 21.663L22.1381 21.157C21.8872 22.1162 21.6863 22.9268 21.5364 23.5864L23.4867 24.0296ZM23.796 20.6866C23.6346 20.5325 23.6216 20.4374 23.6216 20.376H21.6216C21.6216 21.0772 21.9312 21.6715 22.4151 22.1334L23.796 20.6866ZM23.6216 20.376C23.6216 20.2813 23.6445 20.1759 23.7157 20.0476L21.9674 19.0764C21.7453 19.4761 21.6216 19.9133 21.6216 20.376H23.6216ZM23.707 20.063C23.7141 20.0508 23.7884 19.9391 24.115 19.8085L23.3722 17.9515C22.8187 18.1729 22.2917 18.5158 21.9761 19.061L23.707 20.063ZM24.7002 19.1712C25.1091 17.8278 25.4571 16.7406 25.7449 15.906L23.8542 15.254C23.5553 16.1208 23.1994 17.2336 22.7869 18.5888L24.7002 19.1712ZM25.7466 15.901C26.0343 15.0523 26.2813 14.4346 26.486 14.0252L24.6971 13.1308C24.4325 13.6601 24.1515 14.377 23.8525 15.259L25.7466 15.901ZM26.486 14.0252C26.7103 13.5765 26.8571 13.3916 26.9078 13.3448L25.5513 11.8752C25.2207 12.1804 24.9421 12.6408 24.6971 13.1308L26.486 14.0252ZM26.8804 13.3693C26.9165 13.3383 26.9321 13.3333 26.9254 13.336C26.922 13.3374 26.9144 13.3402 26.9032 13.3424C26.892 13.3447 26.8797 13.346 26.8676 13.346V11.346C26.3576 11.346 25.9222 11.5564 25.5788 11.8507L26.8804 13.3693ZM26.8676 13.346C26.9793 13.346 27.0388 13.3621 27.0633 13.3712C27.0752 13.3756 27.0803 13.3789 27.0813 13.3796C27.0821 13.3801 27.0827 13.3805 27.084 13.3819L28.5431 12.0141C28.085 11.5254 27.4736 11.346 26.8676 11.346V13.346ZM27.084 13.3819C27.051 13.3467 27.0695 13.3451 27.0951 13.4407C27.1208 13.5366 27.1436 13.6935 27.1436 13.93H29.1436C29.1436 13.2775 29.0329 12.5365 28.5431 12.0141L27.084 13.3819ZM27.1436 13.93C27.1436 14.0359 27.0999 14.3862 26.9642 15.08L28.927 15.464C29.0552 14.8085 29.1436 14.2641 29.1436 13.93H27.1436ZM26.961 15.097C26.8509 15.7163 26.6319 16.6603 26.2961 17.9451L28.2311 18.4509C28.5699 17.1544 28.8056 16.1477 28.9301 15.447L26.961 15.097ZM27.875 18.9893C29.1821 17.9793 30.3884 16.9817 31.4932 15.9963L30.1619 14.5037C29.0961 15.4543 27.9264 16.422 26.6521 17.4067L27.875 18.9893ZM31.4932 15.9963C32.5873 15.0205 33.5454 14.1294 34.3662 13.3236L32.965 11.8964C32.1724 12.6746 31.2385 13.5435 30.1619 14.5037L31.4932 15.9963ZM34.3597 13.3298C35.1781 12.5406 35.8383 11.9168 36.3423 11.456L34.9928 9.97997C34.4701 10.4578 33.7957 11.0954 32.9714 11.8902L34.3597 13.3298ZM36.3423 11.456C36.5869 11.2324 36.7632 11.0877 36.8796 11.005C36.9385 10.963 36.9613 10.952 36.9549 10.9552C36.9506 10.9573 36.9263 10.9691 36.8855 10.9816C36.8476 10.9931 36.767 11.014 36.6576 11.014V9.014C36.3892 9.014 36.1743 9.11022 36.0715 9.16083C35.9459 9.22268 35.8266 9.29963 35.7205 9.37504C35.5069 9.52693 35.2615 9.73426 34.9928 9.97997L36.3423 11.456ZM36.6576 11.014C36.8417 11.014 36.8918 11.0624 36.9243 11.0988L38.4148 9.7652C37.9487 9.24423 37.3241 9.014 36.6576 9.014V11.014ZM36.9625 11.1391C37.0609 11.2375 37.0656 11.2914 37.0656 11.334H39.0656C39.0656 10.7019 38.8062 10.1545 38.3767 9.72489L36.9625 11.1391ZM37.0656 11.334C37.0656 11.3698 37.051 11.5074 36.8447 11.7653L38.4064 13.0147C38.7868 12.5392 39.0656 11.9729 39.0656 11.334H37.0656ZM36.8622 11.7441C36.5529 12.1096 36.1313 12.5815 35.5935 13.163L37.0617 14.521C37.6092 13.9291 38.0529 13.4331 38.389 13.0359L36.8622 11.7441ZM35.5935 13.163C35.0583 13.7415 34.4563 14.3726 33.7869 15.0565L35.2162 16.4555C35.8962 15.7607 36.5115 15.1158 37.0617 14.521L35.5935 13.163ZM33.7945 15.0489C33.1326 15.7108 32.4337 16.3736 31.6978 17.0374L33.0373 18.5226C33.7974 17.837 34.5212 17.1506 35.2087 16.4631L33.7945 15.0489ZM31.7059 17.0302C30.9824 17.6686 30.2543 18.248 29.5218 18.7692L30.6813 20.3988C31.4742 19.8346 32.2567 19.2114 33.0292 18.5298L31.7059 17.0302ZM29.5143 18.7746C28.8132 19.2833 28.1493 19.6697 27.5227 19.9438L28.3244 21.7762C29.1058 21.4343 29.8939 20.9701 30.6888 20.3934L29.5143 18.7746ZM27.2165 21.5671C27.3401 21.6907 27.4753 21.8383 27.6222 22.0119L29.149 20.7201C28.9732 20.5123 28.8004 20.3226 28.6307 20.1529L27.2165 21.5671ZM27.6785 22.0731C27.8351 22.2298 28.0022 22.41 28.1799 22.6149L29.6913 21.3051C29.4875 21.07 29.288 20.8542 29.0927 20.6589L27.6785 22.0731ZM28.1992 22.6366C28.7158 23.1988 29.3255 23.8156 30.026 24.4863L31.4091 23.0417C30.731 22.3924 30.1527 21.8066 29.6719 21.2834L28.1992 22.6366ZM30.0341 24.494C30.7314 25.1468 31.4433 25.792 32.17 26.4296L33.4892 24.9264C32.7784 24.3027 32.0824 23.6719 31.401 23.034L30.0341 24.494ZM32.1864 26.4437C32.9242 27.0635 33.5906 27.6114 34.1849 28.0869L35.4343 26.5251C34.8552 26.0619 34.2015 25.5245 33.4728 24.9123L32.1864 26.4437ZM34.1291 28.0388C34.2691 28.1687 34.3232 28.2572 34.3416 28.2971L36.1575 27.4589C35.9999 27.1175 35.7607 26.8246 35.49 26.5732L34.1291 28.0388ZM34.3858 28.3819C34.3723 28.3588 34.4036 28.396 34.4036 28.56H36.4036C36.4036 28.1667 36.3321 27.7492 36.1133 27.3741L34.3858 28.3819Z" fill="#0D0F12" mask="url(#path-2-outside-1_3_28)"/>
</g>
</g>
<defs>
<filter id="filter0_d_3_28" x="1.344" y="10.014" width="40.7216" height="27.756" filterUnits="userSpaceOnUse" color-interpolation-filters="sRGB">
<feFlood flood-opacity="0" result="BackgroundImageFix"/>
<feColorMatrix in="SourceAlpha" type="matrix" values="0 0 0 0 0 0 0 0 0 0 0 0 0 0 0 0 0 0 127 0" result="hardAlpha"/>
<feOffset dy="4"/>
<feGaussianBlur stdDeviation="2"/>
<feComposite in2="hardAlpha" operator="out"/>
<feColorMatrix type="matrix" values="0 0 0 0 1 0 0 0 0 1 0 0 0 0 1 0 0 0 0.25 0"/>
<feBlend mode="normal" in2="BackgroundImageFix" result="effect1_dropShadow_3_28"/>
<feBlend mode="normal" in="SourceGraphic" in2="effect1_dropShadow_3_28" result="shape"/>
</filter>
<clipPath id="clip0_3_28">
<rect width="42" height="42" rx="4" fill="white"/>
</clipPath>
</defs>
</svg>
